<svg width="23" height="23" viewBox="0 0 23 23" fill="none" xmlns="http://www.w3.org/2000/svg">
<path d="M8.41211 13.3533H11.5003M11.5003 13.3533H14.5886M11.5003 13.3533V17.0592M11.5003 13.3533V9.64746" stroke="#DAFF99" stroke-width="1.75" stroke-linecap="round"/>
<path d="M1 6.19724C1 5.27058 1 4.80725 1.07282 4.42131C1.39337 2.72233 2.72233 1.39337 4.42131 1.07282C4.80725 1 5.27058 1 6.19724 1C6.60324 1 6.80625 1 7.00135 1.01825C7.84248 1.0969 8.64035 1.42739 9.29074 1.96654C9.44158 2.09159 9.58511 2.23515 9.87218 2.52224L10.45 3.1C11.3066 3.95657 11.7349 4.38485 12.2477 4.6702C12.5294 4.82695 12.8284 4.95073 13.1384 5.03912C13.7028 5.2 14.3084 5.2 15.5198 5.2H15.9122C18.6762 5.2 20.0581 5.2 20.9565 6.00793C21.0391 6.08225 21.1178 6.1609 21.192 6.24352C22 7.14182 22 8.52382 22 11.2878V13.6C22 17.5598 22 19.5397 20.7698 20.7698C19.5397 22 17.5598 22 13.6 22H9.4C5.4402 22 3.46031 22 2.23015 20.7698C1 19.5397 1 17.5598 1 13.6V6.19724Z" stroke="#DAFF99" stroke-width="0.75"/>
</svg>
