<svg width="30" height="27" viewBox="0 0 30 27" fill="none" xmlns="http://www.w3.org/2000/svg">
<path d="M27.3577 2.62136C23.8345 -0.873785 18.1021 -0.873785 14.5789 2.62136L2.07262 15.0285C-0.69102 17.7703 -0.690727 22.2073 2.07262 24.9488C4.82964 27.6838 9.31535 27.6837 12.0722 24.9488L24.5785 12.5415C26.5691 10.5667 26.5691 7.35325 24.5785 5.37837C22.5879 3.40349 19.3488 3.40349 17.3581 5.37837L6.69163 15.9605C6.23267 16.4158 6.23267 17.154 6.69163 17.6093C7.1506 18.0646 7.89462 18.0646 8.35365 17.6093L19.0201 7.02732C20.0943 5.96147 21.8423 5.96158 22.9165 7.02732C23.9907 8.09307 23.9907 9.82712 22.9165 10.8928L10.4102 23.3C8.56963 25.1258 5.57507 25.1258 3.73458 23.3C1.88963 21.4697 1.88981 18.5075 3.73458 16.6774L16.241 4.27019C18.854 1.67786 23.083 1.67821 25.6957 4.27019C28.3087 6.86247 28.3084 11.058 25.6957 13.6499L20.1373 19.1643C19.6783 19.6196 19.6783 20.3578 20.1373 20.8131C20.5963 21.2684 21.3403 21.2684 21.7993 20.8131L27.3577 15.2988C30.8808 11.8036 30.8808 6.1165 27.3577 2.62136Z" fill="#DAFF99"/>
</svg>
