<svg width="46" height="46" viewBox="0 0 46 46" fill="none" xmlns="http://www.w3.org/2000/svg">
<path fill-rule="evenodd" clip-rule="evenodd" d="M8.19056 0H37.8094C40.6563 0 41.6913 0.296461 42.7314 0.853603C43.7716 1.41075 44.5893 2.22857 45.1464 3.26874C45.7036 4.30891 46 5.34141 46 8.19101V27.3843L34.7786 17.0261C34.3713 16.6503 33.8875 16.3673 33.3605 16.1966C32.8334 16.0258 32.2755 15.9714 31.7254 16.0369C31.1752 16.1025 30.6458 16.2866 30.1736 16.5765C29.7014 16.8664 29.2977 17.2552 28.9902 17.7161L20.9913 29.7151L15.1059 25.9327C14.3212 25.4285 13.3797 25.2278 12.4577 25.368C11.5357 25.5081 10.6964 25.9797 10.097 26.6943L0.0127781 38.7188C0.00438302 38.4165 0.00012307 38.114 0 37.8115V8.19101C0 5.34141 0.296445 4.30891 0.853556 3.26874C1.41067 2.22857 2.22844 1.41075 3.26856 0.853603C4.30867 0.296461 5.34111 0 8.19056 0ZM32.4096 21.8001L46 34.3409V37.809C46 40.656 45.7036 41.6911 45.1464 42.7313C44.6018 43.7602 43.7604 44.6017 42.7314 45.1464C41.6913 45.7035 40.6589 46 37.8094 46H8.19056C5.34111 46 4.30867 45.7035 3.26856 45.1464C2.81904 44.9073 2.40242 44.6109 2.02911 44.2647L13.2889 30.8396L19.2842 34.6936C20.1302 35.2372 21.1558 35.4266 22.1401 35.221C23.1243 35.0155 23.9884 34.4314 24.5461 33.5946L32.4096 21.8001ZM12.7471 7.66709C9.91044 7.66709 7.66667 9.79343 7.66667 12.7478C7.66667 15.7048 9.913 17.8899 12.7471 17.8899C15.6426 17.8899 17.8889 15.7048 17.8889 12.7478C17.8889 9.79343 15.6426 7.66709 12.7471 7.66709Z" fill="#DAFF99"/>
</svg>
