<svg width="20" height="17" viewBox="0 0 20 17" fill="none" xmlns="http://www.w3.org/2000/svg">
<path fill-rule="evenodd" clip-rule="evenodd" d="M17 2.42857H15.1786L14.5714 1.21429C14.2138 0.508179 14.0274 0 13.3571 0H6.07143C5.40114 0 5.17893 0.579214 4.85714 1.21429L4.25 2.42857H2.42857C1.08739 2.42857 0 3.51596 0 4.85714V14.5714C0 15.9126 1.08739 17 2.42857 17H17C18.3412 17 19.4286 15.9126 19.4286 14.5714V4.85714C19.4286 3.51596 18.3412 2.42857 17 2.42857ZM9.71429 14.5714C7.03193 14.5714 4.85714 12.3966 4.85714 9.71429C4.85714 7.03193 7.03193 4.85714 9.71429 4.85714C12.3966 4.85714 14.5714 7.03193 14.5714 9.71429C14.5714 12.3966 12.3966 14.5714 9.71429 14.5714ZM9.71429 6.07143C7.70282 6.07143 6.07143 7.70282 6.07143 9.71429C6.07143 11.7257 7.70282 13.3571 9.71429 13.3571C11.7257 13.3571 13.3571 11.7257 13.3571 9.71429C13.3571 7.70282 11.7257 6.07143 9.71429 6.07143Z" fill="#008312"/>
</svg>
