<svg width="14" height="20" viewBox="0 0 14 20" fill="none" xmlns="http://www.w3.org/2000/svg">
<path fill-rule="evenodd" clip-rule="evenodd" d="M7 0C6.45 0 6 0.45 6 1V9.922C5.99996 10.6759 6.08517 11.4273 6.254 12.162L6.048 12.368L5.833 12.024C5.433 11.384 4.96 10.79 4.426 10.256L3.46 9.29C3.36749 9.1973 3.2576 9.12375 3.13662 9.07357C3.01565 9.02339 2.88597 8.99756 2.755 8.99756C2.62403 8.99756 2.49435 9.02339 2.37338 9.07357C2.2524 9.12375 2.14251 9.1973 2.05 9.29C1.66 9.68 1.66 10.32 2.05 10.71L5.94 14.593C6.22125 14.8739 6.6025 15.0317 7 15.0317C7.3975 15.0317 7.77875 14.8739 8.06 14.593L11.95 10.71C12.34 10.32 12.34 9.68 11.95 9.29C11.8575 9.1973 11.7476 9.12375 11.6266 9.07357C11.5057 9.02339 11.376 8.99756 11.245 8.99756C11.114 8.99756 10.9843 9.02339 10.8634 9.07357C10.7424 9.12375 10.6325 9.1973 10.54 9.29L9.574 10.256C9.03974 10.7903 8.56773 11.3834 8.167 12.024L7.952 12.368L7.746 12.161C7.91483 11.4263 8.00004 10.6749 8 9.921V1C8 0.45 7.55 0 7 0ZM1 18C0.734784 18 0.48043 18.1054 0.292893 18.2929C0.105357 18.4804 0 18.7348 0 19C0 19.2652 0.105357 19.5196 0.292893 19.7071C0.48043 19.8946 0.734784 20 1 20H13C13.2652 20 13.5196 19.8946 13.7071 19.7071C13.8946 19.5196 14 19.2652 14 19C14 18.7348 13.8946 18.4804 13.7071 18.2929C13.5196 18.1054 13.2652 18 13 18H1Z" fill="#DAFF99"/>
</svg>
