<svg width="61" height="61" viewBox="0 0 61 61" fill="none" xmlns="http://www.w3.org/2000/svg">
<g filter="url(#filter0_d_274_127)">
<circle cx="30.5" cy="26.5" r="22.5" fill="#DAFF99"/>
</g>
<path fill-rule="evenodd" clip-rule="evenodd" d="M39.8477 16.722C38.6761 15.648 36.7766 15.648 35.605 16.722L21.4474 29.6998C21.0286 30.0837 20.7432 30.5726 20.627 31.1049L20.04 33.7957C19.7601 35.0785 20.9939 36.2096 22.3933 35.953L25.3287 35.4148C25.9095 35.3084 26.4429 35.0467 26.8617 34.6628L41.0192 21.685C42.1908 20.611 42.1908 18.8698 41.0192 17.7959L39.8477 16.722ZM37.0192 18.0183C37.4098 17.6603 38.0429 17.6603 38.4335 18.0183L39.605 19.0923C39.9956 19.4502 39.9956 20.0306 39.605 20.3886L36.9334 22.8376L34.3477 20.4673L37.0192 18.0183ZM32.9334 21.7636L22.8617 30.9961C22.7221 31.1241 22.6269 31.2871 22.5882 31.4645L22.0011 34.1552L24.9365 33.6171C25.13 33.5816 25.3078 33.4944 25.4474 33.3664L35.5192 24.1339L32.9334 21.7636Z" fill="#052D23"/>
<defs>
<filter id="filter0_d_274_127" x="0" y="0" width="61" height="61" filterUnits="userSpaceOnUse" color-interpolation-filters="sRGB">
<feFlood flood-opacity="0" result="BackgroundImageFix"/>
<feColorMatrix in="SourceAlpha" type="matrix" values="0 0 0 0 0 0 0 0 0 0 0 0 0 0 0 0 0 0 127 0" result="hardAlpha"/>
<feOffset dy="4"/>
<feGaussianBlur stdDeviation="4"/>
<feComposite in2="hardAlpha" operator="out"/>
<feColorMatrix type="matrix" values="0 0 0 0 0 0 0 0 0 0 0 0 0 0 0 0 0 0 0.61 0"/>
<feBlend mode="normal" in2="BackgroundImageFix" result="effect1_dropShadow_274_127"/>
<feBlend mode="normal" in="SourceGraphic" in2="effect1_dropShadow_274_127" result="shape"/>
</filter>
</defs>
</svg>
