<svg width="17" height="12" viewBox="0 0 17 12" fill="none" xmlns="http://www.w3.org/2000/svg">
<path d="M8.5 2.5C8.18719 2.50518 7.8767 2.5578 7.57798 2.65625C7.71616 2.91354 7.78973 3.20403 7.79167 3.5C7.79167 3.72981 7.74891 3.95738 7.66585 4.1697C7.58279 4.38202 7.46105 4.57493 7.30758 4.73744C7.1541 4.89994 6.9719 5.02884 6.77138 5.11679C6.57085 5.20474 6.35593 5.25 6.13888 5.25C5.85936 5.24795 5.585 5.17005 5.34201 5.02375C5.15029 5.72775 5.17264 6.47777 5.40588 7.16757C5.63911 7.85738 6.07142 8.452 6.64156 8.8672C7.21169 9.28241 7.89076 9.49715 8.58257 9.48101C9.27438 9.46487 9.94385 9.21867 10.4962 8.77728C11.0485 8.33589 11.4556 7.72169 11.66 7.02168C11.8643 6.32167 11.8554 5.57133 11.6346 4.87696C11.4138 4.18258 10.9922 3.57937 10.4296 3.15277C9.86706 2.72616 9.19197 2.49779 8.5 2.5ZM16.8973 5.54375C15.2968 2.23719 12.1281 0 8.5 0C4.87185 0 1.70235 2.23875 0.102692 5.54406C0.0351769 5.68547 0 5.8417 0 6.00016C0 6.15861 0.0351769 6.31484 0.102692 6.45625C1.70323 9.76281 4.87185 12 8.5 12C12.1281 12 15.2977 9.76125 16.8973 6.45594C16.9648 6.31453 17 6.1583 17 5.99984C17 5.84139 16.9648 5.68516 16.8973 5.54375ZM8.5 10.5C5.58845 10.5 2.91921 8.78125 1.47775 6C2.91921 3.21875 5.58815 1.5 8.5 1.5C11.4118 1.5 14.0808 3.21875 15.5223 6C14.0811 8.78125 11.4118 10.5 8.5 10.5Z" fill="#DAFF99"/>
</svg>
