<svg width="28" height="26" viewBox="0 0 28 26" fill="none" xmlns="http://www.w3.org/2000/svg">
<path d="M13.3166 13.004H3.90797M3.64128 14.2456L2.08685 18.92C1.23549 21.4802 0.809816 22.7602 1.1153 23.5484C1.38058 24.2331 1.95035 24.752 2.65342 24.9496C3.46301 25.177 4.68582 24.6231 7.13143 23.5153L22.8101 16.4126C25.1972 15.3311 26.3908 14.7905 26.7596 14.0393C27.0801 13.3868 27.0801 12.621 26.7596 11.9684C26.3908 11.2174 25.1972 10.6767 22.8101 9.59528L7.10439 2.48042C4.66614 1.37587 3.44703 0.823589 2.63824 1.05015C1.93584 1.2469 1.36613 1.76451 1.09992 2.44781C0.793386 3.23461 1.21451 4.51191 2.05679 7.06651L3.6443 11.8815C3.78895 12.3202 3.86129 12.5397 3.88984 12.764C3.91518 12.9632 3.91491 13.1647 3.88908 13.3637C3.85995 13.588 3.78706 13.8071 3.64128 14.2456Z" stroke="#65FF84" stroke-width="2" stroke-linecap="round" stroke-linejoin="round"/>
</svg>
