<svg width="22" height="22" viewBox="0 0 22 22" fill="none" xmlns="http://www.w3.org/2000/svg">
<path fill-rule="evenodd" clip-rule="evenodd" d="M11 1.69231C5.8595 1.69231 1.69231 5.8595 1.69231 11C1.69231 16.1404 5.8595 20.3077 11 20.3077C16.1404 20.3077 20.3077 16.1404 20.3077 11C20.3077 5.8595 16.1404 1.69231 11 1.69231ZM0 11C0 4.92486 4.92486 0 11 0C17.0752 0 22 4.92486 22 11C22 17.0752 17.0752 22 11 22C4.92486 22 0 17.0752 0 11ZM11 10.1538C11.4673 10.1538 11.8462 10.5327 11.8462 11V14.9487C11.8462 15.416 11.4673 15.7949 11 15.7949C10.5327 15.7949 10.1538 15.416 10.1538 14.9487V11C10.1538 10.5327 10.5327 10.1538 11 10.1538ZM11 6.48718C10.3769 6.48718 9.8718 6.9923 9.8718 7.61539C9.8718 8.23847 10.3769 8.74359 11 8.74359H11.0113C11.6344 8.74359 12.1395 8.23847 12.1395 7.61539C12.1395 6.9923 11.6344 6.48718 11.0113 6.48718H11Z" fill="#DAFF99"/>
</svg>
