<svg width="14" height="18" viewBox="0 0 14 18" fill="none" xmlns="http://www.w3.org/2000/svg">
<path d="M0 17.1C0 16.8613 0.0819442 16.6324 0.227806 16.4636C0.373667 16.2948 0.571498 16.2 0.777778 16.2H3.38333L8.91411 1.8H7C6.79372 1.8 6.59589 1.70518 6.45003 1.5364C6.30417 1.36761 6.22222 1.13869 6.22222 0.9C6.22222 0.661305 6.30417 0.432387 6.45003 0.263604C6.59589 0.0948211 6.79372 0 7 0H13.2222C13.4285 0 13.6263 0.0948211 13.7722 0.263604C13.9181 0.432387 14 0.661305 14 0.9C14 1.13869 13.9181 1.36761 13.7722 1.5364C13.6263 1.70518 13.4285 1.8 13.2222 1.8H10.6167L5.08589 16.2H7C7.20628 16.2 7.40411 16.2948 7.54997 16.4636C7.69583 16.6324 7.77778 16.8613 7.77778 17.1C7.77778 17.3387 7.69583 17.5676 7.54997 17.7364C7.40411 17.9052 7.20628 18 7 18H0.777778C0.571498 18 0.373667 17.9052 0.227806 17.7364C0.0819442 17.5676 0 17.3387 0 17.1Z" fill="#DAFF99"/>
</svg>
