<svg width="24" height="24" viewBox="0 0 24 24" fill="none" xmlns="http://www.w3.org/2000/svg">
<path fill-rule="evenodd" clip-rule="evenodd" d="M5.84191 0H8.76287V2.91667H14.6048V5.83333H12.9516C12.5174 8.26869 11.3709 10.458 9.73496 12.1787C10.9035 12.745 12.2058 13.0789 13.5817 13.1206L15.0042 8.75H18.5868L23.3333 23.3333H20.2619L19.3126 20.4167H14.2783L13.329 23.3333H10.2577L12.6503 15.9822C10.7 15.7916 8.88212 15.1503 7.30238 14.164C5.39641 15.3539 3.14375 16.0417 0.730239 16.0417H0V13.125H0.730239C2.21423 13.125 3.6187 12.785 4.86978 12.1787C3.91965 11.1793 3.13461 10.0219 2.55833 8.75H5.87374C6.28039 9.38424 6.76061 9.96692 7.30238 10.4861C8.59846 9.2441 9.54231 7.63841 9.96933 5.83333H0V2.91667H5.84191V0ZM18.3633 17.5L16.7955 12.683L15.2277 17.5H18.3633Z" fill="#DAFF99"/>
</svg>
