<svg width="22" height="18" viewBox="0 0 22 18" fill="none" xmlns="http://www.w3.org/2000/svg">
<mask id="path-1-inside-1_697_810" fill="white">
<path d="M1.1 0C0.492492 0 0 0.552797 0 1.23469C0 1.91659 0.492492 2.46939 1.1 2.46939H20.9C21.5075 2.46939 22 1.91659 22 1.23469C22 0.552797 21.5075 0 20.9 0H1.1Z"/>
</mask>
<path d="M1.1 0C0.492492 0 0 0.552797 0 1.23469C0 1.91659 0.492492 2.46939 1.1 2.46939H20.9C21.5075 2.46939 22 1.91659 22 1.23469C22 0.552797 21.5075 0 20.9 0H1.1Z" fill="black"/>
<path d="M1.1 -2.5C-1.15191 -2.5 -2.5 -0.548577 -2.5 1.23469H2.5C2.5 1.49441 2.40601 1.78088 2.18883 2.02465C1.96763 2.27294 1.58684 2.5 1.1 2.5V-2.5ZM-2.5 1.23469C-2.5 3.01796 -1.15191 4.96939 1.1 4.96939V-0.0306122C1.58684 -0.0306122 1.96763 0.196451 2.18883 0.444737C2.40601 0.68851 2.5 0.974978 2.5 1.23469H-2.5ZM1.1 4.96939H20.9V-0.0306122H1.1V4.96939ZM20.9 4.96939C23.152 4.96939 24.5 3.01793 24.5 1.23469H19.5C19.5 0.975008 19.594 0.688539 19.8112 0.44475C20.0324 0.196438 20.4132 -0.0306122 20.9 -0.0306122V4.96939ZM24.5 1.23469C24.5 -0.548542 23.152 -2.5 20.9 -2.5V2.5C20.4132 2.5 20.0324 2.27295 19.8112 2.02464C19.594 1.78085 19.5 1.49438 19.5 1.23469H24.5ZM20.9 -2.5H1.1V2.5H20.9V-2.5Z" fill="#DAFF99" mask="url(#path-1-inside-1_697_810)"/>
<mask id="path-3-inside-2_697_810" fill="white">
<path d="M1.1 9.87744C0.492492 9.87744 0 10.4302 0 11.1121C0 11.7941 0.492492 12.3468 1.1 12.3468H20.9C21.5075 12.3468 22 11.7941 22 11.1121C22 10.4302 21.5075 9.87744 20.9 9.87744H1.1Z"/>
</mask>
<path d="M1.1 9.87744C0.492492 9.87744 0 10.4302 0 11.1121C0 11.7941 0.492492 12.3468 1.1 12.3468H20.9C21.5075 12.3468 22 11.7941 22 11.1121C22 10.4302 21.5075 9.87744 20.9 9.87744H1.1Z" fill="black"/>
<path d="M1.1 7.37744C-1.15188 7.37744 -2.5 9.32881 -2.5 11.1121H2.5C2.5 11.3718 2.40602 11.6583 2.18882 11.9021C1.9676 12.1504 1.58681 12.3774 1.1 12.3774V7.37744ZM-2.5 11.1121C-2.5 12.8955 -1.15188 14.8468 1.1 14.8468V9.84683C1.58681 9.84683 1.9676 10.0739 2.18882 10.3222C2.40602 10.566 2.5 10.8524 2.5 11.1121H-2.5ZM1.1 14.8468H20.9V9.84683H1.1V14.8468ZM20.9 14.8468C23.1519 14.8468 24.5 12.8954 24.5 11.1121H19.5C19.5 10.8525 19.594 10.566 19.8112 10.3222C20.0324 10.0739 20.4132 9.84683 20.9 9.84683V14.8468ZM24.5 11.1121C24.5 9.32884 23.1519 7.37744 20.9 7.37744V12.3774C20.4132 12.3774 20.0324 12.1504 19.8112 11.9021C19.594 11.6583 19.5 11.3718 19.5 11.1121H24.5ZM20.9 7.37744H1.1V12.3774H20.9V7.37744Z" fill="#DAFF99" mask="url(#path-3-inside-2_697_810)"/>
<mask id="path-5-inside-3_697_810" fill="white">
<path d="M0 6.17317C0 5.49127 0.492492 4.93848 1.1 4.93848H14.3C14.9075 4.93848 15.4 5.49127 15.4 6.17317C15.4 6.85509 14.9075 7.40786 14.3 7.40786H1.1C0.492492 7.40786 0 6.85509 0 6.17317Z"/>
</mask>
<path d="M0 6.17317C0 5.49127 0.492492 4.93848 1.1 4.93848H14.3C14.9075 4.93848 15.4 5.49127 15.4 6.17317C15.4 6.85509 14.9075 7.40786 14.3 7.40786H1.1C0.492492 7.40786 0 6.85509 0 6.17317Z" fill="black"/>
<path d="M2.5 6.17317C2.5 6.43289 2.40601 6.71935 2.18883 6.96313C1.96763 7.21141 1.58684 7.43848 1.1 7.43848V2.43848C-1.15191 2.43848 -2.5 4.3899 -2.5 6.17317H2.5ZM1.1 7.43848H14.3V2.43848H1.1V7.43848ZM14.3 7.43848C13.8132 7.43848 13.4324 7.21143 13.2112 6.96311C12.994 6.71932 12.9 6.43286 12.9 6.17317H17.9C17.9 4.38993 16.552 2.43848 14.3 2.43848V7.43848ZM12.9 6.17317C12.9 5.91351 12.994 5.62703 13.2112 5.38322C13.4324 5.13489 13.8132 4.90786 14.3 4.90786V9.90786C16.5519 9.90786 17.9 7.95647 17.9 6.17317H12.9ZM14.3 4.90786H1.1V9.90786H14.3V4.90786ZM1.1 4.90786C1.58681 4.90786 1.9676 5.1349 2.18882 5.38321C2.40602 5.627 2.5 5.91348 2.5 6.17317H-2.5C-2.5 7.9565 -1.15188 9.90786 1.1 9.90786V4.90786Z" fill="#DAFF99" mask="url(#path-5-inside-3_697_810)"/>
<mask id="path-7-inside-4_697_810" fill="white">
<path d="M1.1 14.8164C0.492492 14.8164 0 15.3692 0 16.0511C0 16.733 0.492492 17.2858 1.1 17.2858H14.3C14.9075 17.2858 15.4 16.733 15.4 16.0511C15.4 15.3692 14.9075 14.8164 14.3 14.8164H1.1Z"/>
</mask>
<path d="M1.1 14.8164C0.492492 14.8164 0 15.3692 0 16.0511C0 16.733 0.492492 17.2858 1.1 17.2858H14.3C14.9075 17.2858 15.4 16.733 15.4 16.0511C15.4 15.3692 14.9075 14.8164 14.3 14.8164H1.1Z" fill="black"/>
<path d="M1.1 12.3164C-1.15188 12.3164 -2.5 14.2678 -2.5 16.0511H2.5C2.5 16.3108 2.40602 16.5973 2.18882 16.8411C1.9676 17.0894 1.58681 17.3164 1.1 17.3164V12.3164ZM-2.5 16.0511C-2.5 17.8344 -1.15188 19.7858 1.1 19.7858V14.7858C1.58681 14.7858 1.9676 15.0128 2.18882 15.2611C2.40602 15.5049 2.5 15.7914 2.5 16.0511H-2.5ZM1.1 19.7858H14.3V14.7858H1.1V19.7858ZM14.3 19.7858C16.5519 19.7858 17.9 17.8344 17.9 16.0511H12.9C12.9 15.7914 12.994 15.505 13.2112 15.2612C13.4324 15.0128 13.8132 14.7858 14.3 14.7858V19.7858ZM17.9 16.0511C17.9 14.2678 16.5519 12.3164 14.3 12.3164V17.3164C13.8132 17.3164 13.4324 17.0894 13.2112 16.841C12.994 16.5972 12.9 16.3108 12.9 16.0511H17.9ZM14.3 12.3164H1.1V17.3164H14.3V12.3164Z" fill="#DAFF99" mask="url(#path-7-inside-4_697_810)"/>
</svg>
