<svg width="67" height="52" viewBox="0 0 67 52" fill="none" xmlns="http://www.w3.org/2000/svg">
<g clip-path="url(#clip0_811_775)">
<path d="M12.143 51.8859V48.4348C12.143 47.1147 11.3384 46.2503 9.95706 46.2503C9.26641 46.2503 8.51541 46.4781 7.9991 47.2287C7.59677 46.5988 7.02011 46.2503 6.15512 46.2503C5.57846 46.2503 5.0018 46.4245 4.54583 47.0544V46.3642H3.33887V51.8859H4.54583V48.8369C4.54583 47.8586 5.06215 47.3962 5.86679 47.3962C6.67143 47.3962 7.07376 47.9122 7.07376 48.8369V51.8859H8.28072V48.8369C8.28072 47.8586 8.85738 47.3962 9.60168 47.3962C10.4063 47.3962 10.8086 47.9122 10.8086 48.8369V51.8859H12.143ZM30.0463 46.3642H28.0884V44.6957H26.8814V46.3642H25.7884V47.4565H26.8814V49.9895C26.8814 51.256 27.3977 51.9998 28.779 51.9998C29.2953 51.9998 29.872 51.8256 30.2743 51.5977L29.9256 50.5591C29.577 50.7869 29.1746 50.8472 28.8863 50.8472C28.3096 50.8472 28.0817 50.4988 28.0817 49.9292V47.4565H30.0396V46.3642H30.0463ZM40.2921 46.2436C39.6015 46.2436 39.1388 46.5921 38.8505 47.0477V46.3575H37.6435V51.8792H38.8505V48.7699C38.8505 47.8519 39.2528 47.3292 40.0038 47.3292C40.2318 47.3292 40.5201 47.3895 40.7548 47.4431L41.1035 46.2905C40.8621 46.2436 40.5201 46.2436 40.2921 46.2436ZM24.8094 46.8199C24.2328 46.4178 23.4281 46.2436 22.5631 46.2436C21.1818 46.2436 20.2632 46.9338 20.2632 48.0261C20.2632 48.9441 20.9539 49.4668 22.1608 49.6343L22.7375 49.6946C23.3678 49.8086 23.7165 49.9828 23.7165 50.2709C23.7165 50.673 23.2538 50.9611 22.4492 50.9611C21.6445 50.9611 21.0075 50.673 20.6052 50.3848L20.0285 51.3029C20.6588 51.7653 21.5238 51.9931 22.3888 51.9931C23.9981 51.9931 24.9234 51.2426 24.9234 50.2106C24.9234 49.2323 24.1724 48.7163 23.0258 48.5421L22.4492 48.4818C21.9328 48.4214 21.5305 48.3075 21.5305 47.9658C21.5305 47.5637 21.9328 47.3359 22.5699 47.3359C23.2605 47.3359 23.9512 47.624 24.2998 47.7982L24.8094 46.8199ZM56.9214 46.2436C56.2308 46.2436 55.7681 46.5921 55.4798 47.0477V46.3575H54.2728V51.8792H55.4798V48.7699C55.4798 47.8519 55.8821 47.3292 56.6331 47.3292C56.8611 47.3292 57.1494 47.3895 57.3841 47.4431L57.7328 46.3039C57.4981 46.2436 57.1561 46.2436 56.9214 46.2436ZM41.4991 49.125C41.4991 50.7936 42.6524 51.9998 44.436 51.9998C45.2407 51.9998 45.8174 51.8256 46.394 51.3699L45.8173 50.3915C45.3547 50.74 44.8987 50.9075 44.3757 50.9075C43.3967 50.9075 42.7061 50.2173 42.7061 49.125C42.7061 48.0864 43.3967 47.3962 44.3757 47.3426C44.892 47.3426 45.3547 47.5168 45.8173 47.8586L46.394 46.8802C45.8174 46.4178 45.2407 46.2503 44.436 46.2503C42.6524 46.2436 41.4991 47.4565 41.4991 49.125ZM52.6635 49.125V46.3642H51.4566V47.0544C51.0542 46.5385 50.4776 46.2503 49.7266 46.2503C48.1709 46.2503 46.964 47.4565 46.964 49.125C46.964 50.7936 48.1709 51.9998 49.7266 51.9998C50.5312 51.9998 51.1079 51.7116 51.4566 51.1957V51.8859H52.6635V49.125ZM48.2313 49.125C48.2313 48.1467 48.8616 47.3426 49.9009 47.3426C50.8799 47.3426 51.5705 48.0931 51.5705 49.125C51.5705 50.1034 50.8799 50.9075 49.9009 50.9075C48.8683 50.8472 48.2313 50.0967 48.2313 49.125ZM33.7879 46.2436C32.1786 46.2436 31.0253 47.3962 31.0253 49.1183C31.0253 50.8472 32.1786 51.9931 33.8483 51.9931C34.6529 51.9931 35.4576 51.7653 36.0946 51.2426L35.5179 50.3781C35.0552 50.7266 34.4786 50.9544 33.9086 50.9544C33.1576 50.9544 32.4133 50.606 32.239 49.6343H36.3226C36.3226 49.4601 36.3226 49.3462 36.3226 49.172C36.3762 47.3962 35.3369 46.2436 33.7879 46.2436ZM33.7879 47.2823C34.5389 47.2823 35.0552 47.7446 35.1692 48.6024H32.2926C32.4066 47.8586 32.9229 47.2823 33.7879 47.2823ZM63.7743 49.125V44.1797H62.5673V47.0544C62.165 46.5385 61.5884 46.2503 60.8374 46.2503C59.2817 46.2503 58.0748 47.4565 58.0748 49.125C58.0748 50.7936 59.2817 51.9998 60.8374 51.9998C61.642 51.9998 62.2187 51.7116 62.5673 51.1957V51.8859H63.7743V49.125ZM59.3421 49.125C59.3421 48.1467 59.9724 47.3426 61.0117 47.3426C61.9907 47.3426 62.6813 48.0931 62.6813 49.125C62.6813 50.1034 61.9907 50.9075 61.0117 50.9075C59.9724 50.8472 59.3421 50.0967 59.3421 49.125ZM18.9355 49.125V46.3642H17.7286V47.0544C17.3263 46.5385 16.7496 46.2503 15.9986 46.2503C14.443 46.2503 13.236 47.4565 13.236 49.125C13.236 50.7936 14.443 51.9998 15.9986 51.9998C16.8032 51.9998 17.3799 51.7116 17.7286 51.1957V51.8859H18.9355V49.125ZM14.4497 49.125C14.4497 48.1467 15.08 47.3426 16.1193 47.3426C17.0983 47.3426 17.7889 48.0931 17.7889 49.125C17.7889 50.1034 17.0983 50.9075 16.1193 50.9075C15.08 50.8472 14.4497 50.0967 14.4497 49.125Z" fill="white"/>
<path d="M42.5385 4.4292H24.4072V36.9828H42.5385V4.4292Z" fill="#FF5A00"/>
<path d="M25.6145 20.7062C25.6145 14.0923 28.7258 8.22217 33.5 4.42938C29.9864 1.66856 25.5541 0 20.7196 0C9.26681 0 0 9.26083 0 20.7062C0 32.1516 9.26681 41.4124 20.7196 41.4124C25.5541 41.4124 29.9864 39.7438 33.5 36.983C28.7191 33.2438 25.6145 27.3201 25.6145 20.7062Z" fill="#EB001B"/>
<path d="M67 20.7062C67 32.1516 57.7332 41.4124 46.2804 41.4124C41.4459 41.4124 37.0136 39.7438 33.5 36.983C38.3346 33.1835 41.3855 27.3201 41.3855 20.7062C41.3855 14.0923 38.2742 8.22217 33.5 4.42938C37.0069 1.66856 41.4391 0 46.2737 0C57.7332 0 67 9.32113 67 20.7062Z" fill="#F79E1B"/>
</g>
<defs>
<clipPath id="clip0_811_775">
<rect width="67" height="52" fill="white"/>
</clipPath>
</defs>
</svg>
