<svg width="22" height="12" viewBox="0 0 22 12" fill="none" xmlns="http://www.w3.org/2000/svg">
<path d="M1.60956 5.33016C1.24135 4.96018 0.644359 4.96018 0.276154 5.33016C-0.0920513 5.70014 -0.0920513 6.29989 0.276154 6.66987L1.60956 5.33016ZM5.97144 11.0527L5.30473 11.7225C5.67294 12.0925 6.26993 12.0925 6.63814 11.7225L5.97144 11.0527ZM16.6953 1.61726C17.0635 1.24729 17.0635 0.647443 16.6953 0.277476C16.327 -0.0924918 15.7301 -0.0924918 15.3619 0.277476L16.6953 1.61726ZM6.63814 5.33016C6.26993 4.96018 5.67294 4.96018 5.30473 5.33016C4.93653 5.70014 4.93653 6.29989 5.30473 6.66987L6.63814 5.33016ZM11 11.0527L10.3333 11.7225C10.7016 12.0925 11.2985 12.0925 11.6667 11.7225L11 11.0527ZM21.7238 1.61726C22.0921 1.24729 22.0921 0.647443 21.7238 0.277476C21.3556 -0.0924918 20.7587 -0.0924918 20.3905 0.277476L21.7238 1.61726ZM0.276154 6.66987L5.30473 11.7225L6.63814 10.3828L1.60956 5.33016L0.276154 6.66987ZM6.63814 11.7225L16.6953 1.61726L15.3619 0.277476L5.30473 10.3828L6.63814 11.7225ZM5.30473 6.66987L10.3333 11.7225L11.6667 10.3828L6.63814 5.33016L5.30473 6.66987ZM11.6667 11.7225L21.7238 1.61726L20.3905 0.277476L10.3333 10.3828L11.6667 11.7225Z" fill="#799270"/>
</svg>
