<svg width="24" height="24" viewBox="0 0 24 24" fill="none" xmlns="http://www.w3.org/2000/svg">
<path d="M23.9612 9.10487C23.872 8.83822 23.641 8.64395 23.3631 8.60119L15.985 7.47382L12.6792 0.431297C12.5554 0.168018 12.2907 0 12 0C11.7094 0 11.445 0.168018 11.3209 0.431297L8.01511 7.47382L0.637011 8.60157C0.359123 8.64394 0.128487 8.83859 0.0388578 9.10525C-0.0503964 9.37152 0.0167318 9.66556 0.213241 9.86695L5.57374 15.3639L4.30693 23.1288C4.26043 23.4123 4.38006 23.6977 4.6152 23.8627C4.7442 23.9539 4.89534 24 5.04684 24C5.17135 24 5.2966 23.9685 5.40986 23.9062L11.9997 20.2612L18.5895 23.9062C18.7027 23.9685 18.828 24 18.9525 24C19.104 24 19.2555 23.9539 19.3841 23.8627C19.6193 23.6977 19.7389 23.4123 19.6924 23.1288L18.4256 15.3639L23.7861 9.86695C23.983 9.66518 24.0505 9.37115 23.9612 9.10487Z" fill="white"/>
</svg>
