<svg width="26" height="19" viewBox="0 0 26 19" fill="none" xmlns="http://www.w3.org/2000/svg">
<path d="M25.922 0.245542C25.9064 0.224747 25.8959 0.203897 25.8804 0.188383C25.7347 0.0115157 25.4955 -0.0456978 25.2875 0.0375921L0.334886 9.53396C0.116484 9.61708 -0.0187387 9.83043 0.00211129 10.0643C0.017735 10.2932 0.189321 10.4855 0.418121 10.5272L7.24135 11.8534L8.70277 18.245L8.70794 18.2815C8.71834 18.323 8.72873 18.3594 8.74953 18.3958C8.75993 18.4166 8.77555 18.4426 8.79112 18.4635C8.81191 18.4947 8.83794 18.5207 8.85873 18.5466C8.92634 18.609 9.00952 18.6558 9.09793 18.6715C9.10838 18.6766 9.12395 18.6818 9.1344 18.6818C9.16042 18.6818 9.19162 18.687 9.21758 18.687C9.254 18.687 9.28519 18.6818 9.32156 18.6766C9.33718 18.6715 9.35275 18.6715 9.37354 18.6611C9.37877 18.6611 9.38394 18.6611 9.38917 18.6559C9.42036 18.6455 9.44638 18.6352 9.4724 18.6195H9.47763C9.48797 18.6091 9.50365 18.6039 9.51399 18.5935L16.67 13.5645L20.7162 14.329C20.7473 14.3342 20.7838 14.3342 20.815 14.3342C21.0334 14.3342 21.231 14.199 21.3039 13.991L25.9688 0.703196C25.9792 0.677285 25.9844 0.651264 25.9896 0.625242C26 0.588879 26 0.547289 26 0.510815C26 0.417183 25.974 0.323495 25.922 0.245542ZM12.3276 11.9002C12.2964 11.9262 12.2652 11.9626 12.2495 11.999C12.2392 12.0043 12.234 12.0094 12.2288 12.0198L9.43081 16.7732L8.26591 11.6609L21.1947 3.75081L12.3276 11.9002Z" fill="#DAFF99"/>
</svg>
