<svg width="26" height="30" viewBox="0 0 26 30" fill="none" xmlns="http://www.w3.org/2000/svg">
<path d="M15.5 10C15.5 15.2467 19.7533 19.5 25 19.5C19.7533 19.5 15.5 23.7533 15.5 29C15.5 23.7533 11.2467 19.5 6 19.5C11.2467 19.5 15.5 15.2467 15.5 10Z" fill="#DAFF99" fill-opacity="0.721569" stroke="#DAFF99" stroke-opacity="0.721569" stroke-linecap="round" stroke-linejoin="round"/>
<path d="M5.5 6C5.5 8.48528 7.5147 10.5 10 10.5C7.5147 10.5 5.5 12.5147 5.5 15C5.5 12.5147 3.48528 10.5 1 10.5C3.48528 10.5 5.5 8.48528 5.5 6Z" fill="#DAFF99" fill-opacity="0.721569" stroke="#DAFF99" stroke-opacity="0.721569" stroke-linecap="round" stroke-linejoin="round"/>
<path d="M11.5 0C11.5 1.933 13.067 3.5 15 3.5C13.067 3.5 11.5 5.06699 11.5 7C11.5 5.06699 9.933 3.5 8 3.5C9.933 3.5 11.5 1.933 11.5 0Z" fill="#DAFF99" fill-opacity="0.721569"/>
</svg>
