<svg width="20" height="20" viewBox="0 0 20 20" fill="none" xmlns="http://www.w3.org/2000/svg">
<path fill-rule="evenodd" clip-rule="evenodd" d="M13.5356 12.65C13.78 12.8937 13.78 13.2938 13.5356 13.5375C13.2919 13.7813 12.8956 13.7813 12.6513 13.5375L10.0037 10.8875L7.33749 13.5562C7.09124 13.8 6.69252 13.8 6.44627 13.5562C6.20064 13.3062 6.20064 12.9063 6.44627 12.6625L9.11251 9.99374L6.465 7.35001C6.22062 7.10626 6.22062 6.70623 6.465 6.46248C6.70812 6.21873 7.10437 6.21873 7.34875 6.46248L9.99626 9.11247L12.6825 6.42502C12.9287 6.18127 13.3269 6.18127 13.5731 6.42502C13.8187 6.67502 13.8187 7.06873 13.5731 7.31873L10.8875 10.0063L13.5356 12.65ZM10 0C4.47688 0 0 4.475 0 10C0 15.525 4.47688 20 10 20C15.5231 20 20 15.525 20 10C20 4.475 15.5231 0 10 0Z" fill="white" fill-opacity="0.18"/>
</svg>
