<svg width="21" height="27" viewBox="0 0 21 27" fill="none" xmlns="http://www.w3.org/2000/svg">
<path d="M20.2205 16.7164L18.9289 14.5722C18.6576 14.0943 18.4122 13.1902 18.4122 12.6606V9.39266C18.4122 6.35725 16.6297 3.73516 14.0593 2.50808C13.3876 1.31975 12.1476 0.583496 10.7268 0.583496C9.31887 0.583496 8.05309 1.34558 7.38142 2.54683C4.86267 3.79975 3.11892 6.396 3.11892 9.39266V12.6606C3.11892 13.1902 2.8735 14.0943 2.60225 14.5593L1.29767 16.7164C0.781003 17.5818 0.664754 18.5377 0.98767 19.416C1.29767 20.2814 2.03392 20.9531 2.98975 21.276C5.49559 22.1285 8.13059 22.5418 10.7655 22.5418C13.4005 22.5418 16.0355 22.1285 18.5414 21.2889C19.4455 20.9918 20.143 20.3072 20.4789 19.416C20.8147 18.5247 20.7243 17.5431 20.2205 16.7164Z" fill="#DAFF99" fill-opacity="0.721569"/>
<path d="M14.3949 23.8464C13.8524 25.3447 12.4186 26.4168 10.7394 26.4168C9.71902 26.4168 8.71152 26.0035 8.00109 25.2672C7.58776 24.8797 7.27776 24.3631 7.09692 23.8335C7.26484 23.8593 7.43276 23.8722 7.61359 23.8981C7.91067 23.9368 8.22069 23.9756 8.53069 24.0014C9.26694 24.066 10.0161 24.1047 10.7653 24.1047C11.5015 24.1047 12.2378 24.066 12.9611 24.0014C13.2324 23.9756 13.5036 23.9627 13.7619 23.9239C13.9686 23.8981 14.1753 23.8722 14.3949 23.8464Z" fill="#DAFF99" fill-opacity="0.721569"/>
</svg>
