<svg width="29" height="29" viewBox="0 0 29 29" fill="none" xmlns="http://www.w3.org/2000/svg">
<g clip-path="url(#clip0_780_1119)">
<path d="M21.4336 0H11.7981H11.0515L10.5239 0.527551L3.2297 7.82218L2.70215 8.34973V9.09603V24.1349C2.70215 26.8174 4.8844 29.0001 7.56735 29.0001H21.4336C24.1157 29.0001 26.298 26.8174 26.298 24.1349V4.8652C26.298 2.18225 24.1157 0 21.4336 0ZM24.497 24.1349C24.497 25.8271 23.1255 27.1986 21.4336 27.1986H7.56735C5.8747 27.1986 4.50321 25.8271 4.50321 24.1349V9.09597H9.24493C10.6544 9.09597 11.7981 7.95308 11.7981 6.54318V1.8014H21.4336C23.1255 1.8014 24.497 3.17289 24.497 4.8652V24.1349Z" fill="#DAFF99"/>
<path d="M9.73972 14.3179H8.12382C7.81614 14.3179 7.63184 14.518 7.63184 14.8178V18.9952C7.63184 19.357 7.86995 19.5956 8.20056 19.5956C8.52404 19.5956 8.7621 19.3571 8.7621 18.9952V17.7261C8.7621 17.6953 8.7779 17.6799 8.80877 17.6799H9.73972C10.8779 17.6799 11.5629 16.9874 11.5629 16.0026C11.5629 15.0025 10.8858 14.3179 9.73972 14.3179ZM9.67016 16.7026H8.80877C8.7779 16.7026 8.7621 16.6872 8.7621 16.6568V15.341C8.7621 15.3101 8.7779 15.2948 8.80877 15.2948H9.67016C10.1471 15.2948 10.4318 15.5795 10.4318 16.0027C10.4319 16.4258 10.1471 16.7026 9.67016 16.7026Z" fill="#DAFF99"/>
<path d="M14.171 14.3179H12.9324C12.6247 14.3179 12.4404 14.518 12.4404 14.8178V19.0569C12.4404 19.3571 12.6247 19.5493 12.9324 19.5493H14.171C15.2863 19.5493 15.9792 19.1953 16.256 18.3415C16.3557 18.0413 16.4102 17.6799 16.4102 16.9336C16.4102 16.1873 16.3556 15.8258 16.256 15.5257C15.9791 14.6718 15.2863 14.3179 14.171 14.3179ZM15.1716 17.9492C15.0403 18.3644 14.6638 18.5416 14.1402 18.5416H13.6174C13.5865 18.5416 13.5707 18.5262 13.5707 18.4954V15.3719C13.5707 15.341 13.5865 15.3256 13.6174 15.3256H14.1402C14.6638 15.3256 15.0403 15.5028 15.1716 15.9181C15.2254 16.0952 15.2633 16.4029 15.2633 16.9336C15.2633 17.4643 15.2253 17.772 15.1716 17.9492Z" fill="#DAFF99"/>
<path d="M20.4567 14.3179H17.9186C17.6109 14.3179 17.4258 14.518 17.4258 14.8178V18.9952C17.4258 19.357 17.6647 19.5956 17.9953 19.5956C18.318 19.5956 18.5568 19.3571 18.5568 18.9952V17.5027C18.5568 17.4722 18.5718 17.4568 18.6027 17.4568H20.0802C20.4109 17.4568 20.603 17.2568 20.603 16.972C20.603 16.6872 20.4109 16.4875 20.0802 16.4875H18.6027C18.5718 16.4875 18.5568 16.4721 18.5568 16.4412V15.341C18.5568 15.3101 18.5718 15.2948 18.6027 15.2948H20.4567C20.7723 15.2948 20.9804 15.0871 20.9804 14.8103C20.9803 14.5255 20.7723 14.3179 20.4567 14.3179Z" fill="#DAFF99"/>
</g>
<defs>
<clipPath id="clip0_780_1119">
<rect width="29" height="29" fill="white"/>
</clipPath>
</defs>
</svg>
