<svg width="53" height="53" viewBox="0 0 53 53" fill="none" xmlns="http://www.w3.org/2000/svg">
<path d="M12.9055 28.9272C11.0129 27.1362 3.445 26.5554 1.17045 26.4185C0.881126 26.4185 0.56975 26.5112 0.348951 26.7166C0.125875 26.9241 0 27.2179 0 27.5227V47.3977C0 48.0072 0.494702 48.5019 1.1042 48.5019H7.72921C8.20621 48.5019 8.63021 48.195 8.78041 47.74C8.94158 47.2453 12.7466 35.5677 13.2457 29.826C13.2765 29.4903 13.1485 29.1612 12.9055 28.9272Z" fill="#A8A185"/>
<path d="M20.7892 11.2294L28.0635 16.5161L25.2854 25.0668C25.1375 25.5218 25.2987 26.0208 25.6874 26.3012C26.0761 26.5817 26.5972 26.5817 26.9859 26.3012L34.258 21.0167L41.53 26.3012C41.7243 26.4404 41.9519 26.5132 42.1793 26.5132C42.4067 26.5132 42.6342 26.4425 42.8285 26.3012C43.215 26.0208 43.3784 25.5217 43.2305 25.0668L40.4524 16.5161L47.7245 11.2315C48.111 10.9511 48.2744 10.452 48.1265 9.99711C47.9786 9.54226 47.5546 9.23306 47.0753 9.23306H38.0851L35.3068 0.68235C35.0108 -0.22745 33.5026 -0.22745 33.2067 0.68235L30.4286 9.23306H21.4385C20.9593 9.23306 20.5353 9.54226 20.3873 9.99711C20.2394 10.4521 20.4005 10.9489 20.7892 11.2294Z" fill="#A8A185"/>
<path d="M52.8825 42.4858C51.3786 39.4802 47.8917 37.8726 44.6299 38.6897L39.6368 39.9374C39.7119 40.443 39.7495 40.973 39.7495 41.5252V41.8763C39.7495 43.3979 38.716 44.7206 37.2386 45.0894L34.2661 45.8314C33.4844 46.028 32.674 46.1274 31.8568 46.1274C31.1965 46.1274 30.5406 46.0633 29.9091 45.9353L20.3271 44.0185C19.7287 43.8992 19.34 43.3184 19.4592 42.72C19.5807 42.1193 20.1726 41.7373 20.7577 41.8543L30.342 43.7711C31.4417 43.9919 32.6364 43.9632 33.7273 43.6916C33.7273 43.6916 35.9578 43.1351 36.702 42.9496C37.1967 42.8237 37.5412 42.382 37.5412 41.8763C37.5412 41.7902 37.5412 41.5274 37.5412 41.5274C37.5412 41.1232 37.5147 40.7456 37.4683 40.3834C37.455 40.2796 37.4307 40.1868 37.4131 40.0853C37.3689 39.8291 37.3204 39.5773 37.2497 39.3411C37.2187 39.2373 37.1812 39.1424 37.1458 39.043C37.0685 38.8244 36.9824 38.6102 36.8787 38.4092C36.8323 38.3209 36.7815 38.2347 36.7307 38.1486C36.6159 37.952 36.4878 37.7644 36.3443 37.5855C36.2869 37.5126 36.2272 37.4397 36.1633 37.3713C36.0043 37.1924 35.8276 37.0246 35.6377 36.8656C35.5715 36.8105 35.5074 36.753 35.4368 36.6978C35.2248 36.5367 34.9907 36.3865 34.7456 36.2452C34.6794 36.2076 34.6176 36.1635 34.5469 36.1281C34.262 35.9757 33.9528 35.841 33.6238 35.7129C33.5753 35.6952 33.5332 35.6731 33.4847 35.6533C33.096 35.5097 32.6786 35.3816 32.2304 35.269L16.4033 31.7511C16.1073 31.6871 15.8026 31.7445 15.5508 31.9123C15.2991 32.0801 15.129 32.3429 15.076 32.6389C14.281 37.1638 12.5563 43.0357 11.6 46.134C11.4233 46.7082 11.737 47.3177 12.3044 47.5076L25.0001 51.7409C26.7006 52.3836 28.0211 52.8385 29.5802 52.8385C29.5802 52.8385 29.5802 52.8385 29.5824 52.8385C31.8481 52.8385 34.4142 51.8779 40.2022 49.5061L52.348 43.9853C52.6197 43.8616 52.8317 43.632 52.9332 43.3493C53.0372 43.0666 53.0173 42.7553 52.8825 42.4858Z" fill="#A8A185"/>
</svg>
