<svg width="53" height="40" viewBox="0 0 53 40" fill="none" xmlns="http://www.w3.org/2000/svg">
<path fill-rule="evenodd" clip-rule="evenodd" d="M16.25 15C16.25 9.47715 20.7271 5 26.25 5C31.7728 5 36.25 9.47715 36.25 15V17.5H38.75C43.5825 17.5 47.5 21.4175 47.5 26.25C47.5 31.0825 43.5825 35 38.75 35H36.25C34.8693 35 33.75 36.1193 33.75 37.5C33.75 38.8807 34.8693 40 36.25 40H38.75C46.344 40 52.5 33.844 52.5 26.25C52.5 19.4482 47.5612 13.7999 41.074 12.6956C39.9655 5.50533 33.7507 0 26.25 0C18.7493 0 12.5345 5.50533 11.4259 12.6956C4.93878 13.7999 0 19.4482 0 26.25C0 33.844 6.15608 40 13.75 40H16.25C17.6307 40 18.75 38.8807 18.75 37.5C18.75 36.1193 17.6307 35 16.25 35H13.75C8.9175 35 5 31.0825 5 26.25C5 21.4175 8.9175 17.5 13.75 17.5H16.25V15ZM35.5177 23.2323L28.0177 15.7323C27.0415 14.7559 25.4585 14.7559 24.4823 15.7323L16.9822 23.2323C16.0059 24.2085 16.0059 25.7915 16.9822 26.7677C17.9585 27.744 19.5415 27.744 20.5178 26.7677L23.75 23.5355V37.5C23.75 38.8807 24.8693 40 26.25 40C27.6307 40 28.75 38.8807 28.75 37.5V23.5355L31.9823 26.7677C32.9585 27.744 34.5415 27.744 35.5177 26.7677C36.494 25.7915 36.494 24.2085 35.5177 23.2323Z" fill="#DAFF99"/>
</svg>
