<svg width="92" height="92" viewBox="0 0 92 92" fill="none" xmlns="http://www.w3.org/2000/svg">
<circle cx="46" cy="46" r="46" fill="#011E17"/>
<path d="M45.9998 53.5C52.5046 53.5 57.9999 46.9743 57.9999 39.25C57.9999 31.5258 52.5046 25 45.9998 25C39.495 25 33.9998 31.5258 33.9998 39.25C33.9998 46.9743 39.495 53.5 45.9998 53.5ZM45.9998 28C50.8786 28 54.9999 33.1518 54.9999 39.25C54.9999 45.3482 50.8786 50.5 45.9998 50.5C41.1211 50.5 36.9998 45.3482 36.9998 39.25C36.9998 33.1518 41.1211 28 45.9998 28Z" fill="#DAFF99"/>
<path d="M25.0769 56.0253L22.0769 65.0253C21.9246 65.4828 22.0011 65.9853 22.2831 66.3768C22.5644 66.7683 23.0174 67.0001 23.4996 67.0001H68.5C68.9822 67.0001 69.4352 66.7683 69.7165 66.3768C69.9985 65.9861 70.0758 65.4836 69.9227 65.0253L66.9227 56.0253C66.766 55.5558 66.388 55.1943 65.9117 55.0578L55.4116 52.0578C55.0501 51.9536 54.6646 51.9903 54.3286 52.1583L45.9998 56.3231L37.671 52.1583C37.335 51.9903 36.9495 51.9543 36.588 52.0578L26.0879 55.0578C25.6109 55.1943 25.2337 55.5558 25.0769 56.0253ZM36.8512 55.1028L45.3293 59.3418C45.7508 59.5526 46.2496 59.5526 46.6711 59.3418L55.1491 55.1028L64.3277 57.7248L66.4195 64.0001H25.5802L27.6719 57.7248L36.8512 55.1028Z" fill="#DAFF99"/>
<path d="M68.5 26.5H65.4999V23.5C65.4999 22.672 64.8279 22 63.9999 22C63.1719 22 62.4999 22.672 62.4999 23.5V26.5H59.4999C58.6719 26.5 57.9999 27.172 57.9999 28C57.9999 28.828 58.6719 29.5 59.4999 29.5H62.4999V32.5C62.4999 33.328 63.1719 34 63.9999 34C64.8279 34 65.4999 33.328 65.4999 32.5V29.5H68.5C69.328 29.5 70 28.828 70 28C70 27.172 69.328 26.5 68.5 26.5Z" fill="#DAFF99"/>
</svg>
