<svg width="23" height="23" viewBox="0 0 23 23" fill="none" xmlns="http://www.w3.org/2000/svg">
<path fill-rule="evenodd" clip-rule="evenodd" d="M9.1928 3.06677C8.95943 3.26565 8.84273 3.3651 8.7181 3.44863C8.43242 3.64011 8.11158 3.773 7.77418 3.83961C7.62699 3.86868 7.47415 3.88087 7.16849 3.90526C6.4005 3.96655 6.0165 3.99719 5.69614 4.11035C4.95516 4.37207 4.37232 4.95491 4.1106 5.69589C3.99744 6.01626 3.9668 6.40026 3.9055 7.16825C3.88111 7.47391 3.86892 7.62674 3.83986 7.77393C3.77324 8.11134 3.64035 8.43218 3.44888 8.71786C3.36535 8.84249 3.2659 8.95917 3.06701 9.19256C2.5673 9.77896 2.31743 10.0721 2.17092 10.3787C1.83202 11.0878 1.83202 11.9119 2.17092 12.621C2.31744 12.9276 2.5673 13.2207 3.06701 13.8071C3.26587 14.0405 3.36535 14.1572 3.44888 14.2818C3.64035 14.5675 3.77324 14.8883 3.83986 15.2257C3.86892 15.3729 3.88111 15.5258 3.9055 15.8314C3.9668 16.5994 3.99744 16.9834 4.1106 17.3038C4.37232 18.0448 4.95516 18.6276 5.69614 18.8894C6.0165 19.0024 6.4005 19.0331 7.16849 19.0944C7.47415 19.1188 7.62699 19.131 7.77418 19.1601C8.11158 19.2267 8.43242 19.3596 8.7181 19.5511C8.84273 19.6346 8.95942 19.734 9.1928 19.9329C9.7792 20.4327 10.0724 20.6825 10.3789 20.829C11.088 21.1679 11.9122 21.1679 12.6212 20.829C12.9278 20.6825 13.221 20.4327 13.8074 19.9329C14.0407 19.734 14.1574 19.6346 14.282 19.5511C14.5677 19.3596 14.8886 19.2267 15.226 19.1601C15.3732 19.131 15.526 19.1188 15.8317 19.0944C16.5997 19.0331 16.9837 19.0024 17.304 18.8894C18.045 18.6276 18.6279 18.0448 18.8896 17.3038C19.0027 16.9834 19.0333 16.5994 19.0947 15.8314C19.119 15.5258 19.1313 15.3729 19.1603 15.2257C19.2269 14.8883 19.3599 14.5675 19.5513 14.2818C19.6348 14.1572 19.7343 14.0405 19.9331 13.8071C20.4329 13.2207 20.6827 12.9276 20.8293 12.621C21.1681 11.9119 21.1681 11.0878 20.8293 10.3787C20.6827 10.0721 20.4329 9.77896 19.9331 9.19256C19.7343 8.95917 19.6348 8.84249 19.5513 8.71786C19.3599 8.43218 19.2269 8.11134 19.1603 7.77393C19.1313 7.62674 19.119 7.47391 19.0947 7.16825C19.0333 6.40026 19.0027 6.01626 18.8896 5.69589C18.6279 4.95491 18.045 4.37207 17.304 4.11035C16.9837 3.99719 16.5997 3.96655 15.8317 3.90526C15.526 3.88087 15.3732 3.86868 15.226 3.83961C14.8886 3.773 14.5677 3.64011 14.282 3.44863C14.1574 3.3651 14.0407 3.26566 13.8074 3.06677C13.221 2.56705 12.9278 2.3172 12.6212 2.17068C11.9122 1.83178 11.088 1.83178 10.3789 2.17068C10.0724 2.31719 9.7792 2.56705 9.1928 3.06677ZM15.6914 9.45202C15.9959 9.14742 15.9959 8.65359 15.6914 8.34899C15.3868 8.04441 14.8929 8.04441 14.5883 8.34899L9.9402 12.9971L8.41182 11.4688C8.10723 11.1642 7.61339 11.1642 7.3088 11.4688C7.00422 11.7733 7.00422 12.2672 7.3088 12.5718L9.38866 14.6517C9.69324 14.9563 10.1871 14.9563 10.4917 14.6517L15.6914 9.45202Z" fill="#1D6ED9"/>
</svg>
