<svg width="76" height="24" viewBox="0 0 76 24" fill="none" xmlns="http://www.w3.org/2000/svg">
<g clip-path="url(#clip0_811_749)">
<path d="M49.4905 0.0371094C44.0998 0.0371094 39.2822 2.75511 39.2822 7.77568C39.2822 13.534 47.8261 13.9317 47.8261 16.8248C47.8261 18.043 46.3913 19.1333 43.9395 19.1333C40.461 19.1333 37.861 17.6099 37.861 17.6099L36.7484 22.677C36.7484 22.677 39.7435 23.9639 43.7198 23.9639C49.6137 23.9639 54.2519 21.1129 54.2519 16.0058C54.2519 9.92081 45.6723 9.53496 45.6723 6.85022C45.6723 5.89593 46.8503 4.85071 49.2944 4.85071C52.0525 4.85071 54.3021 5.95876 54.3021 5.95876L55.3912 1.06532C55.3912 1.06532 52.9424 0.0371094 49.4898 0.0371094H49.4905ZM0.168806 0.406704L0.0380859 1.14515C0.0380859 1.14515 2.30593 1.54875 4.34881 2.35447C6.97917 3.27772 7.16613 3.81585 7.60921 5.48494L12.436 23.5825H18.9066L28.8748 0.406704H22.4193L16.014 16.164L13.4004 2.80685C13.161 1.27821 11.9465 0.405965 10.4607 0.405965H0.169566L0.168806 0.406704ZM31.4709 0.406704L26.407 23.5825H32.563L37.6087 0.406704H31.4709ZM65.8047 0.406704C64.3204 0.406704 63.5338 1.1799 62.957 2.5304L53.938 23.5825H60.3935L61.6422 20.0736H69.5067L70.2659 23.5825H75.9621L70.9932 0.406704H65.8047ZM66.6445 6.66838L68.5582 15.3649H63.432L66.6452 6.66838H66.6445Z" fill="#1434CB"/>
</g>
<defs>
<clipPath id="clip0_811_749">
<rect width="76" height="24" fill="white"/>
</clipPath>
</defs>
</svg>
