<svg width="14" height="14" viewBox="0 0 14 14" fill="none" xmlns="http://www.w3.org/2000/svg">
<path d="M5.00721 2.24514C5.89385 0.748382 6.33716 0 6.99999 0C7.66282 0 8.10613 0.748376 8.99275 2.24513L9.22214 2.63236C9.47414 3.05769 9.60007 3.27037 9.79656 3.41069C9.99298 3.551 10.2376 3.60309 10.7269 3.70726L11.1723 3.8021C12.8941 4.1687 13.755 4.35199 13.9598 4.97178C14.1646 5.59154 13.5777 6.23741 12.4039 7.52901L12.1003 7.86318C11.7667 8.23021 11.5999 8.41373 11.5249 8.64078C11.4499 8.86784 11.4751 9.11269 11.5255 9.60244L11.5714 10.0483C11.7489 11.7716 11.8376 12.6332 11.3014 13.0163C10.7651 13.3993 9.9591 13.0501 8.347 12.3516L7.92994 12.1709C7.47186 11.9724 7.24282 11.8731 6.99999 11.8731C6.75716 11.8731 6.52812 11.9724 6.07004 12.1709L5.65298 12.3516C4.04087 13.0501 3.23482 13.3993 2.6986 13.0163C2.16238 12.6332 2.25111 11.7716 2.42858 10.0483L2.47448 9.60244C2.52492 9.11269 2.55013 8.86784 2.4751 8.64078C2.40007 8.41373 2.2333 8.23021 1.89974 7.86318L1.59607 7.52901C0.422276 6.23741 -0.164624 5.59154 0.0401953 4.97178C0.245015 4.35199 1.1059 4.1687 2.82768 3.8021L3.27312 3.70726C3.76239 3.60309 4.00703 3.551 4.20345 3.41069C4.39988 3.27037 4.52587 3.0577 4.77782 2.63236L5.00721 2.24514Z" fill="white"/>
</svg>
