<svg width="22" height="22" viewBox="0 0 22 22" fill="none" xmlns="http://www.w3.org/2000/svg">
<path fill-rule="evenodd" clip-rule="evenodd" d="M11 20.625C5.68425 20.625 1.375 16.3144 1.375 11C1.375 5.68563 5.68425 1.375 11 1.375C16.3158 1.375 20.625 5.68563 20.625 11C20.625 16.3144 16.3158 20.625 11 20.625ZM11 0C4.92456 0 0 4.9225 0 11C0 17.0775 4.92456 22 11 22C17.0754 22 22 17.0775 22 11C22 4.9225 17.0754 0 11 0ZM15.125 10.3125H11.6875V6.875C11.6875 6.49687 11.3802 6.1875 11 6.1875C10.6198 6.1875 10.3125 6.49687 10.3125 6.875V10.3125H6.875C6.49481 10.3125 6.1875 10.6219 6.1875 11C6.1875 11.3781 6.49481 11.6875 6.875 11.6875H10.3125V15.125C10.3125 15.5031 10.6198 15.8125 11 15.8125C11.3802 15.8125 11.6875 15.5031 11.6875 15.125V11.6875H15.125C15.5052 11.6875 15.8125 11.3781 15.8125 11C15.8125 10.6219 15.5052 10.3125 15.125 10.3125Z" fill="#DAFF99"/>
</svg>
