<svg width="14" height="18" viewBox="0 0 14 18" fill="none" xmlns="http://www.w3.org/2000/svg">
<path fill-rule="evenodd" clip-rule="evenodd" d="M2.54546 7.71428H7.63636C9.04019 7.71428 10.1818 6.561 10.1818 5.14285C10.1818 3.72472 9.04019 2.57143 7.63636 2.57143H2.54546V7.71428ZM2.54546 15.4286H8.90909C10.3129 15.4286 11.4546 14.2753 11.4546 12.8571C11.4546 11.439 10.3129 10.2857 8.90909 10.2857H2.54546V15.4286ZM8.90909 18H0V0H7.63636C10.444 0 12.7273 2.30657 12.7273 5.14285C12.7273 6.40157 12.2767 7.55615 11.5322 8.44972C13.0098 9.351 14 10.9903 14 12.8571C14 15.6934 11.7167 18 8.90909 18Z" fill="#DAFF99"/>
</svg>
