<svg width="49" height="36" viewBox="0 0 49 36" fill="none" xmlns="http://www.w3.org/2000/svg">
<path d="M18.25 10V26M10.75 18H25.75M34.5 12.6667L40.942 8.54379C42.9247 7.27475 43.9163 6.64024 44.732 6.72136C45.4433 6.79208 46.0922 7.184 46.515 7.79821C47 8.50261 47 9.73587 47 12.2024V23.7976C47 26.264 47 27.4973 46.515 28.2019C46.0922 28.816 45.4433 29.208 44.732 29.2787C43.9163 29.3597 42.9247 28.7253 40.942 27.4563L34.5 23.3333M10 34H26.5C29.3003 34 30.7005 34 31.77 33.4187C32.7108 32.9075 33.4757 32.0915 33.955 31.088C34.5 29.9472 34.5 28.4536 34.5 25.4667V10.5333C34.5 7.5464 34.5 6.05291 33.955 4.91205C33.4757 3.90851 32.7108 3.09261 31.77 2.58131C30.7005 2 29.3003 2 26.5 2H10C7.19975 2 5.7996 2 4.73005 2.58131C3.78923 3.09261 3.02432 3.90851 2.54497 4.91205C2 6.05291 2 7.54637 2 10.5333V25.4667C2 28.4536 2 29.9472 2.54497 31.088C3.02432 32.0915 3.78923 32.9075 4.73005 33.4187C5.7996 34 7.19972 34 10 34Z" stroke="#DAFF99" stroke-width="3" stroke-linecap="round" stroke-linejoin="round"/>
</svg>
