<svg width="10" height="10" viewBox="0 0 10 10" fill="none" xmlns="http://www.w3.org/2000/svg">
<path d="M1.42776 0.244035L5 3.81636L8.57224 0.244035C8.87017 -0.0538944 9.34226 -0.0816415 9.69493 0.193885L9.75596 0.249467C10.0813 0.574847 10.0813 1.10239 9.75596 1.42778L6.18365 5L9.75596 8.57223C10.0539 8.87016 10.0816 9.34226 9.80611 9.69493L9.75055 9.75597C9.42517 10.0813 8.8976 10.0813 8.57221 9.75596L5 6.18364L1.42776 9.75597C1.12983 10.0539 0.657744 10.0816 0.305072 9.80612L0.244037 9.75054C-0.0813437 9.42516 -0.0813475 8.89761 0.244037 8.57223L3.81635 5L0.244037 1.42777C-0.0538933 1.12984 -0.0816401 0.657741 0.193886 0.305069L0.249454 0.244035C0.574834 -0.0813451 1.10238 -0.0813451 1.42776 0.244035ZM0.845284 9.58328C0.843064 9.58332 0.840842 9.58334 0.838621 9.58334L0.845284 9.58328ZM0.900597 9.57873L0.882338 9.58105C0.88839 9.58042 0.894506 9.57964 0.900597 9.57873ZM0.777205 9.57881L0.78463 9.57984C0.782111 9.57952 0.779719 9.57918 0.777205 9.57881ZM0.724841 9.56758L0.731352 9.56936C0.729105 9.56876 0.72708 9.56821 0.724841 9.56758ZM0.953494 9.56726L0.931039 9.57301C0.938544 9.57131 0.946043 9.56939 0.953494 9.56726ZM1.00064 9.55065L0.983325 9.5575C0.989097 9.55537 0.994882 9.55308 1.00064 9.55065ZM0.676522 9.55062C0.677516 9.55104 0.678574 9.55148 0.676522 9.55062ZM0.627643 9.52607L0.583342 9.49599C0.601844 9.51038 0.621261 9.52299 0.641401 9.53382L0.627643 9.52607ZM1.0494 9.52618L1.03599 9.53373C1.04039 9.53136 1.04491 9.52882 1.0494 9.52618ZM9.53382 9.35859L9.52606 9.37235L9.49598 9.41667C9.51036 9.39817 9.52299 9.37873 9.53382 9.35859ZM9.55689 9.30776L9.55063 9.32348C9.55284 9.31823 9.55492 9.31301 9.55689 9.30776ZM9.57283 9.25461L9.56757 9.27515C9.56946 9.26849 9.57124 9.26156 9.57283 9.25461ZM9.58102 9.20537L9.57881 9.22281C9.57966 9.21709 9.5804 9.21123 9.58102 9.20537ZM9.16138 0.833189L5 4.99468L0.838621 0.833189L0.833179 0.83862L4.99468 5L0.833179 9.16138L0.838621 9.16681L5 5.00532L9.16138 9.16681L9.16682 9.16138L5.00532 5L9.16682 0.83862L9.16138 0.833189ZM9.58328 9.15472L9.58331 9.1668C9.58336 9.1628 9.58335 9.15876 9.58328 9.15472ZM9.57873 9.09942L9.58105 9.11767C9.58041 9.11162 9.57964 9.10551 9.57873 9.09942ZM9.56726 9.0465L9.57301 9.06895C9.57131 9.06145 9.56939 9.05395 9.56726 9.0465ZM9.55066 8.99935L9.5575 9.01669C9.55536 9.01092 9.55309 9.00511 9.55066 8.99935ZM9.52619 8.95059L9.53372 8.96401C9.53135 8.95961 9.52883 8.95508 9.52619 8.95059ZM0.466281 1.03599L0.472563 1.04726C0.470371 1.04347 0.468344 1.03983 0.466281 1.03599ZM0.442503 0.983316L0.448098 0.99767C0.446126 0.99289 0.44429 0.988153 0.442503 0.983316ZM0.42699 0.931048L0.430652 0.945878C0.429342 0.940942 0.428116 0.93602 0.42699 0.931048ZM0.418775 0.880674L0.420149 0.892617C0.419629 0.88862 0.419179 0.884681 0.418775 0.880674ZM0.416843 0.82653L0.416665 0.83862C0.416665 0.834564 0.416725 0.830584 0.416843 0.82653ZM0.421191 0.777197L0.420149 0.784624C0.420476 0.782105 0.420818 0.779711 0.421191 0.777197ZM0.432432 0.724854L0.430652 0.731363C0.431248 0.729117 0.431797 0.727092 0.432432 0.724854ZM0.449369 0.676522C0.44895 0.677516 0.448509 0.678574 0.449369 0.676522ZM0.473936 0.627649L0.504021 0.583334C0.489635 0.601836 0.477012 0.621274 0.466179 0.641414L0.473936 0.627649ZM1.03582 0.466184L1.0496 0.47393L1.0939 0.504013C1.0754 0.489627 1.05596 0.477017 1.03582 0.466184ZM8.96401 0.466273L8.95274 0.472568C8.95652 0.470375 8.96017 0.468337 8.96401 0.466273ZM0.641249 0.466273L0.629983 0.472568C0.633766 0.470375 0.637412 0.468337 0.641249 0.466273ZM9.3586 0.466184L9.37236 0.47393L9.41666 0.504013C9.39816 0.489627 9.37874 0.477017 9.3586 0.466184ZM0.692264 0.44312L0.679574 0.448111C0.683774 0.446378 0.68802 0.444709 0.692264 0.44312ZM0.983249 0.442473L1.00072 0.449382C0.994895 0.446926 0.989093 0.444632 0.983249 0.442473ZM9.01667 0.4425L9.00233 0.448111C9.00711 0.446138 9.01184 0.444287 9.01667 0.4425ZM9.30776 0.443128L9.32348 0.449382C9.31823 0.44717 9.31301 0.445094 9.30776 0.443128ZM0.745517 0.427147L0.731352 0.430643C0.736014 0.429405 0.740823 0.42822 0.745517 0.427147ZM0.931013 0.426988L0.953571 0.43276C0.946062 0.430613 0.938551 0.428695 0.931013 0.426988ZM9.06896 0.426995L9.05413 0.430643C9.05907 0.429332 9.06399 0.428121 9.06896 0.426995ZM9.25461 0.427176L9.27516 0.432426C9.26849 0.430537 9.26157 0.428766 9.25461 0.427176ZM0.796405 0.418796L0.78463 0.42016C0.78852 0.419654 0.792506 0.419192 0.796405 0.418796ZM0.880608 0.418776L0.900546 0.421271C0.893932 0.420281 0.887282 0.419448 0.880608 0.418776ZM9.11934 0.418782L9.10739 0.42016C9.11138 0.41964 9.11533 0.419186 9.11934 0.418782ZM9.2037 0.418807L9.22279 0.421193C9.21652 0.420261 9.21012 0.41946 9.2037 0.418807ZM9.1493 0.41684L9.17353 0.416843C9.16546 0.416608 9.15738 0.416607 9.1493 0.41684ZM0.826465 0.416843L0.850701 0.41684C0.842624 0.416607 0.834542 0.416608 0.826465 0.416843Z" fill="url(#paint0_linear_1788_1054)"/>
<defs>
<linearGradient id="paint0_linear_1788_1054" x1="500" y1="0" x2="500" y2="1000" gradientUnits="userSpaceOnUse">
<stop stop-color="#FC4343"/>
<stop offset="1" stop-color="#F82020"/>
</linearGradient>
</defs>
</svg>
