<?xml version="1.0" encoding="UTF-8"?>
<!-- Generator: visioncortex VTracer 0.6.3 -->
<svg version="1.1" xmlns="http://www.w3.org/2000/svg" width="200" height="134">
<path d="M0 0 C66 0 132 0 200 0 C200 44.22 200 88.44 200 134 C134 134 68 134 0 134 C0 89.78 0 45.56 0 0 Z " fill="#1F074E" transform="translate(0,0)"/>
<path d="M0 0 C1.47 0.01 2.94 0.01 4.41 0.02 C8.26 0.03 12.11 0.07 15.95 0.12 C19.89 0.16 23.82 0.18 27.76 0.2 C35.47 0.24 43.17 0.31 50.88 0.39 C51.07 5.78 50.43 8.2 46.88 12.39 C40.77 16.89 35.69 16.93 28.26 16.78 C27.16 16.78 26.06 16.77 24.92 16.76 C21.43 16.74 17.94 16.69 14.44 16.64 C12.06 16.62 9.69 16.6 7.31 16.59 C1.5 16.54 -4.31 16.48 -10.12 16.39 C-10.11 17 -10.09 17.6 -10.08 18.23 C-9.95 24.57 -9.86 30.91 -9.79 37.26 C-9.76 39.62 -9.72 41.99 -9.67 44.35 C-9.6 47.76 -9.56 51.17 -9.54 54.57 C-9.5 55.62 -9.47 56.67 -9.44 57.75 C-9.44 65.1 -11.14 69.9 -16.12 75.39 C-20.02 78.02 -22.52 78.51 -27.12 78.39 C-27.24 69.92 -27.33 61.46 -27.38 52.99 C-27.41 49.06 -27.44 45.12 -27.5 41.19 C-27.55 37.39 -27.58 33.59 -27.6 29.79 C-27.6 28.35 -27.62 26.9 -27.65 25.46 C-27.9 11.35 -27.9 11.35 -23.62 5.9 C-16.77 -0.99 -9.12 -0.14 0 0 Z " fill="#04A760" transform="translate(99.12109375,16.609375)"/>
<path d="M0 0 C0.09 8.63 0.16 17.26 0.21 25.9 C0.23 29.9 0.26 33.91 0.3 37.92 C0.35 41.79 0.37 45.66 0.38 49.53 C0.39 51.01 0.4 52.48 0.42 53.96 C0.45 56.03 0.46 58.1 0.45 60.17 C0.46 61.35 0.47 62.52 0.48 63.73 C-0.26 68.74 -2.8 71.8 -6.31 75.31 C-9.56 77.35 -12.23 77.55 -16 78 C-16.09 69.37 -16.16 60.74 -16.21 52.1 C-16.23 48.1 -16.26 44.09 -16.3 40.08 C-16.35 36.21 -16.37 32.34 -16.38 28.47 C-16.39 26.99 -16.4 25.52 -16.42 24.04 C-16.45 21.97 -16.46 19.9 -16.45 17.83 C-16.47 16.07 -16.47 16.07 -16.48 14.27 C-15.69 8.92 -13.18 5.89 -8.94 2.69 C-5.71 0.84 -3.72 0 0 0 Z " fill="#F9AF16" transform="translate(66,39)"/>
<path d="M0 0 C11.88 0 23.76 0 36 0 C34.86 7.96 34.86 7.96 32.38 10.75 C31.91 11.3 31.44 11.85 30.96 12.42 C24.6 17.54 18.39 17.39 10.56 17.19 C9.54 17.17 8.53 17.16 7.48 17.15 C4.99 17.11 2.49 17.06 0 17 C0 11.39 0 5.78 0 0 Z " fill="#F5AB17" transform="translate(94,39)"/>
</svg>
