<svg width="25" height="22" viewBox="0 0 25 22" fill="none" xmlns="http://www.w3.org/2000/svg">
<path d="M20.0345 12.3323V1.87292C20.0345 0.839298 19.2012 6.26418e-07 18.1713 6.26418e-07H1.86321C0.834111 -0.000836996 0 0.838461 0 1.87292V12.3323C0 13.3668 0.834111 14.2052 1.86321 14.2052H4.9705V18.5081L9.72352 14.2052H18.1705C19.2012 14.2052 20.0345 13.3668 20.0345 12.3323ZM23.1368 4.11189H20.8053C20.8053 4.11189 20.8053 12.4647 20.8053 13.2495C20.8053 14.0344 19.792 15.0437 19.0112 15.0437C18.2304 15.0437 9.89101 15.0898 9.89101 15.0898C9.89101 16.1242 10.7251 16.7533 11.7542 16.7533H15.3448L20.0295 21.0268L20.0237 16.7533H23.1368C24.1667 16.7533 25 16.1242 25 15.0898V5.93288C25 4.89925 24.1667 4.11189 23.1368 4.11189Z" fill="#359846"/>
</svg>
