<svg width="54" height="54" viewBox="0 0 54 54" fill="none" xmlns="http://www.w3.org/2000/svg">
<path d="M26.5016 13.2305C34.2266 11.5564 42.0596 11.3134 49.8115 12.5824C45.0307 5.02218 36.6035 0 26.9878 0C18.5877 0 11.0788 3.83414 6.10889 9.85535C7.29734 13.3655 8.80992 16.7136 10.6196 19.8997C11.646 21.7358 14.266 21.6548 15.3194 19.8457C17.6153 15.9846 21.7478 13.3925 26.5016 13.2305Z" fill="#DAFF99"/>
<path d="M15.4289 34.3491C10.0268 28.5708 5.81318 21.9826 2.92307 14.6924C-1.12848 22.6846 -1.10147 32.486 3.84142 40.7213C8.16308 47.9305 15.2938 52.4127 23.0187 53.5737C25.4226 50.7386 27.5294 47.7145 29.3391 44.5554C30.3925 42.7193 28.961 40.5323 26.8542 40.5323C22.3435 40.5593 17.9948 38.3452 15.4289 34.3491Z" fill="#DAFF99"/>
<path d="M17.7256 26.996C17.7256 28.6431 18.1307 30.1821 18.9681 31.6402C20.6157 34.4753 23.6678 36.2573 26.9631 36.2573C30.2584 36.2573 33.3375 34.4753 34.9582 31.6402C35.7955 30.1821 36.2276 28.6431 36.2276 26.996C36.2276 21.8928 32.0681 17.7616 26.9631 17.7616C21.8852 17.7346 17.7256 21.8928 17.7256 26.996Z" fill="#DAFF99"/>
<path d="M52.2174 17.3328C48.517 16.5497 44.7625 16.1177 41.0351 16.0637C38.9013 16.0367 37.6858 18.3588 38.7392 20.2219C39.8196 22.1389 40.4409 24.353 40.4409 26.7021C40.4409 28.9701 39.8466 31.2112 38.7392 33.2093C36.2002 40.9856 32.4188 47.8978 27.4219 54C42.1425 53.757 54.0001 41.7686 54.0001 26.9991C54.0001 23.5969 53.3788 20.3299 52.2174 17.3328Z" fill="#DAFF99"/>
</svg>
