<svg width="29" height="29" viewBox="0 0 29 29" fill="none" xmlns="http://www.w3.org/2000/svg">
<g clip-path="url(#clip0_274_165)">
<path d="M0 17.7744V21.6099C0 23.2002 1.2629 24.3228 2.80645 24.3228H26.1935C27.7371 24.3228 29 23.2002 29 21.6099V17.7744H0Z" fill="#359846"/>
<path d="M26.1935 4.67725H2.80645C1.2629 4.67725 0 5.79983 0 7.39015V11.2256H29V7.39015C29 5.79983 27.7371 4.67725 26.1935 4.67725Z" fill="#EA8634"/>
<path d="M29 11.2256H0V17.774H29V11.2256Z" fill="#FCFBF0"/>
<path d="M26.0999 24.3228C27.6435 24.3228 28.9999 23.2002 28.9999 21.6099V17.7744H18.429L26.0999 24.3228Z" fill="#21872F"/>
<path d="M26.1935 4.67725H2.8064L10.5709 11.2256H28.9999V7.39015C28.9999 5.79983 27.737 4.67725 26.1935 4.67725Z" fill="#E27423"/>
<path d="M18.4758 17.774H29V11.2256H10.5242L18.4758 17.774Z" fill="#F7F4E2"/>
<path d="M26.1935 4.67725H2.8064L24.4628 11.2256H28.9999V7.39015C28.9999 5.79983 27.737 4.67725 26.1935 4.67725Z" fill="#D86619"/>
<path d="M29 12.5353V11.2256H24.229L29 12.5353Z" fill="#F2E9C2"/>
<path d="M29 21.5629C29 23.2468 27.7371 24.3226 26.1935 24.3226H2.80645C1.2629 24.3226 0 23.1064 0 21.5161" fill="#167A20"/>
<path d="M14.5 11.5532C12.8629 11.5532 11.5532 12.8629 11.5532 14.5C11.5532 16.1371 12.8629 17.4468 14.5 17.4468C16.1371 17.4468 17.4468 16.1371 17.4468 14.5C17.4468 12.8629 16.1371 11.5532 14.5 11.5532ZM16.9323 14.8274C16.9323 14.8742 16.979 14.9677 17.0258 14.9677C16.979 15.1081 16.979 15.2484 16.9323 15.3887C16.8855 15.3419 16.7919 15.3887 16.7452 15.4355C16.6984 15.4823 16.7452 15.5758 16.7919 15.6226C16.7452 15.7629 16.6516 15.8564 16.6048 15.9968C16.5581 15.95 16.4645 15.95 16.4177 16.0435C16.371 16.0903 16.371 16.1839 16.4177 16.2306C16.371 16.2774 16.3242 16.3242 16.2774 16.371L15.2484 15.2016L14.8274 14.8742L14.8742 14.8274L15.2952 15.1548L16.6516 15.8564L15.4355 14.921L14.9677 14.7339C14.9677 14.6871 14.9677 14.6871 15.0145 14.6403L15.4823 14.8274L16.979 15.1548L15.529 14.6871L15.0145 14.5935C15.0145 14.5468 15.0145 14.5468 15.0145 14.5L15.529 14.5468L17.0726 14.4532L15.529 14.3597L15.0145 14.4064C15.0145 14.3597 15.0145 14.3597 15.0145 14.3129L15.529 14.2194L16.979 13.7516L15.4823 14.079L15.0145 14.2661C15.0145 14.2194 15.0145 14.2194 14.9677 14.1726L15.4355 13.9855L16.7452 13.1435L15.3887 13.8452L14.9677 14.1726L14.921 14.1258L15.3419 13.7984L16.371 12.629C16.4177 12.6758 16.4645 12.7226 16.5113 12.7694C16.4645 12.8161 16.4645 12.9097 16.5113 12.9564C16.5581 13.0032 16.6516 13.0032 16.6984 13.0032C16.7919 13.0968 16.8387 13.2371 16.8855 13.3774C16.8387 13.4242 16.7919 13.471 16.8387 13.5645C16.8855 13.6113 16.9323 13.6581 17.0258 13.6113C17.0726 13.7516 17.1194 13.8919 17.1194 14.0323C17.0726 14.0323 17.0258 14.1258 17.0258 14.1726C17.0258 14.2194 17.1194 14.3129 17.1661 14.2661C17.1661 14.3129 17.1661 14.4064 17.1661 14.4532C17.1661 14.5 17.1661 14.5935 17.1661 14.6403C16.979 14.6871 16.9323 14.7339 16.9323 14.8274ZM12.8629 12.5355C12.9097 12.5823 13.0032 12.5823 13.05 12.5355C13.0968 12.4887 13.0968 12.3952 13.0968 12.3484C13.1903 12.2548 13.3306 12.2081 13.471 12.1613C13.5177 12.2081 13.5645 12.2548 13.6581 12.2081C13.7048 12.1613 13.7516 12.1145 13.7048 12.021C13.8452 11.9742 13.9855 11.9274 14.1258 11.9274C14.1258 11.9742 14.2194 12.021 14.2661 12.021C14.3129 12.021 14.4064 11.9274 14.3597 11.8806C14.4064 11.8806 14.5 11.8806 14.5468 11.8806C14.5935 11.8806 14.6871 11.8806 14.7339 11.8806C14.7339 11.9274 14.7806 12.021 14.8274 12.021C14.8742 12.021 14.9677 11.9742 14.9677 11.9274C15.1081 11.9742 15.2484 11.9742 15.3887 12.021C15.3419 12.0677 15.3887 12.1613 15.4355 12.2081C15.4823 12.2548 15.5758 12.2081 15.6226 12.1613C15.7629 12.2081 15.8564 12.3016 15.9968 12.3484C15.95 12.3952 15.95 12.4887 16.0435 12.5355C16.0903 12.5823 16.1839 12.5823 16.2306 12.5355C16.2774 12.5823 16.3242 12.629 16.371 12.6758L15.2016 13.7048L14.8742 14.1258L14.8274 14.079L15.1548 13.6581L15.8564 12.3016L14.921 13.5645L14.7339 14.0323C14.6871 14.0323 14.6871 14.0323 14.6403 13.9855L14.8274 13.5177L15.1548 12.021L14.6871 13.471L14.5935 13.9855C14.5468 13.9855 14.5468 13.9855 14.5 13.9855L14.5468 13.471L14.5 11.9274L14.4064 13.471L14.4532 13.9855C14.4064 13.9855 14.4064 13.9855 14.3597 13.9855L14.2661 13.471L13.7984 12.021L14.1258 13.5177L14.3129 13.9855C14.2661 13.9855 14.2661 13.9855 14.2194 14.0323L14.0323 13.5645L13.1903 12.2548L13.8919 13.6113L14.2194 14.0323L14.1726 14.079L13.8452 13.6581L12.6758 12.629C12.7226 12.629 12.7694 12.5823 12.8629 12.5355ZM12.6758 16.3242C12.629 16.2774 12.5823 16.2306 12.5355 16.1839C12.5823 16.1371 12.5823 16.0435 12.5355 15.9968C12.4887 15.95 12.3952 15.95 12.3484 15.95C12.2548 15.8564 12.2081 15.7161 12.1613 15.5758C12.2081 15.529 12.2548 15.4823 12.2081 15.3887C12.1613 15.3419 12.1145 15.2952 12.021 15.3419C11.9742 15.2016 11.9274 15.0613 11.9274 14.921C11.9742 14.921 12.021 14.8274 12.021 14.7806C12.021 14.7339 11.9274 14.6403 11.8806 14.6871C11.8806 14.6403 11.8806 14.5468 11.8806 14.5C11.8806 14.4532 11.8806 14.3597 11.8806 14.3129C11.9274 14.3129 12.021 14.2661 12.021 14.2194C12.021 14.1726 11.9742 14.079 11.9274 14.079C11.9742 13.9387 11.9742 13.7984 12.021 13.6581C12.0677 13.7048 12.1613 13.6581 12.2081 13.6113C12.2548 13.5645 12.2081 13.471 12.1613 13.4242C12.2081 13.2839 12.3016 13.1903 12.3484 13.05C12.3952 13.0968 12.4887 13.0968 12.5355 13.0032C12.5823 12.9097 12.5823 12.8629 12.5355 12.8161C12.5823 12.7694 12.629 12.7226 12.6758 12.6758L13.7048 13.8452L14.1258 14.1726L14.079 14.2194L13.6581 13.8919L12.3016 13.1903L13.6113 14.0323L14.079 14.2194C14.079 14.2661 14.079 14.2661 14.0323 14.3129L13.5645 14.1258L12.0677 13.7984L13.5177 14.2661L14.0323 14.3597C14.0323 14.4064 14.0323 14.4064 14.0323 14.4532L13.5177 14.4064L11.9274 14.5L13.471 14.5935L13.9855 14.5468C13.9855 14.5935 13.9855 14.5935 13.9855 14.6403L13.471 14.7339L12.021 15.2016L13.5177 14.8742L13.9855 14.6871C13.9855 14.7339 13.9855 14.7339 14.0323 14.7806L13.5645 14.9677L12.2548 15.8097L13.6113 15.1081L14.0323 14.7806L14.079 14.8274L13.6581 15.1548L12.6758 16.3242ZM14.3129 17.0726C14.3129 17.0258 14.2661 16.9323 14.2194 16.9323C14.1726 16.9323 14.079 16.979 14.079 17.0258C13.9387 16.979 13.7984 16.979 13.6581 16.9323C13.7048 16.8855 13.6581 16.7919 13.6113 16.7452C13.5645 16.6984 13.471 16.7452 13.4242 16.7919C13.2839 16.7452 13.1903 16.6516 13.05 16.6048C13.0968 16.5581 13.0968 16.4645 13.0032 16.4177C12.9564 16.371 12.8629 16.371 12.8161 16.4177C12.7694 16.371 12.7226 16.3242 12.6758 16.2774L13.8452 15.2484L14.1726 14.8274L14.2194 14.8742L13.8919 15.2952L13.1903 16.6516L14.0323 15.3419L14.2194 14.8742C14.2661 14.8742 14.2661 14.8742 14.3129 14.921L14.1258 15.3887L13.7984 16.8855L14.2661 15.4355L14.3597 14.921C14.4064 14.921 14.4064 14.921 14.4532 14.921L14.4064 15.4355L14.5 16.979L14.5935 15.4355L14.5468 14.921C14.5935 14.921 14.5935 14.921 14.6403 14.921L14.7339 15.4355L15.2016 16.8855L14.8742 15.3887L14.6871 14.921C14.7339 14.921 14.7339 14.921 14.7806 14.8742L14.9677 15.3419L15.8097 16.6516L15.1081 15.2952L14.7806 14.8742L14.8274 14.8274L15.1548 15.2484L16.3242 16.2774C16.2774 16.3242 16.2306 16.371 16.1839 16.4177C16.1371 16.371 16.0435 16.371 15.9968 16.4177C15.95 16.4645 15.95 16.5581 15.95 16.6048C15.8564 16.6984 15.7161 16.7452 15.5758 16.7919C15.529 16.7452 15.4823 16.6984 15.3887 16.7452C15.2952 16.7919 15.2952 16.8387 15.3419 16.9323C15.2016 16.979 15.0613 17.0258 14.921 17.0258C14.921 16.979 14.8274 16.9323 14.7806 16.9323C14.7339 16.9323 14.6403 17.0258 14.6871 17.0726C14.6403 17.0726 14.5468 17.0726 14.5 17.0726C14.4532 17.0726 14.3597 17.0726 14.3129 17.0726Z" fill="#7D7DBC"/>
<path d="M15.1548 15.0615L15.2951 15.2018V15.1551L15.1548 15.0615Z" fill="#6060B2"/>
<path d="M14.5 11.5532C13.6113 11.5532 12.8162 11.9742 12.2549 12.5823L12.5355 12.8161C12.5823 12.7694 12.6291 12.7226 12.6759 12.6758C12.7226 12.629 12.7694 12.5823 12.8162 12.5355C12.8629 12.5823 12.9565 12.5823 13.0033 12.5355C13.05 12.4887 13.05 12.3952 13.05 12.3484C13.0968 12.3016 13.1904 12.3016 13.2371 12.2548L13.9388 13.6113L14.2662 14.0323L14.2194 14.079L13.892 13.6581L12.7226 12.629L13.7049 13.7516L13.8452 13.8452L14.1259 14.079L14.921 14.7339L14.9678 14.6871L15.3888 15.0145L16.7452 15.7161C16.6984 15.7629 16.6984 15.8564 16.6517 15.9032C16.6049 15.8564 16.5113 15.8564 16.4646 15.95C16.4178 15.9968 16.4178 16.0903 16.4646 16.1371L16.7452 16.371C17.1662 15.8564 17.4468 15.2016 17.4468 14.4532C17.4468 12.8629 16.1371 11.5532 14.5 11.5532ZM14.2662 14.0323L14.0791 13.5645L13.2371 12.3016C13.2839 12.2548 13.3307 12.2081 13.4242 12.2081C13.471 12.2548 13.5178 12.3016 13.6113 12.2548C13.6581 12.2081 13.7049 12.1613 13.6581 12.0677C13.7049 12.0677 13.7984 12.021 13.8452 12.021L14.1726 13.5177L14.3597 13.9855C14.3129 14.0323 14.3129 14.0323 14.2662 14.0323ZM14.5468 13.9855L14.5936 13.471L14.5 11.9274L14.4065 13.471L14.4533 13.9855C14.4065 13.9855 14.4065 13.9855 14.3597 13.9855L14.2662 13.471L13.7984 12.021C13.8452 12.021 13.9388 11.9742 13.9855 11.9742C13.9855 12.021 14.0791 12.0677 14.1259 12.0677C14.1726 12.0677 14.2662 11.9742 14.2194 11.9274C14.2662 11.9274 14.3597 11.9274 14.4065 11.9274C14.4533 11.9274 14.5468 11.9274 14.5936 11.9274C14.5936 11.9742 14.6404 12.0677 14.6871 12.0677C14.7339 12.0677 14.8275 12.021 14.8275 11.9742C14.8742 11.9742 14.9678 12.021 15.0146 12.021L14.5468 13.471L14.4533 13.9855C14.5936 13.9855 14.5468 13.9855 14.5468 13.9855ZM14.6404 14.0323L14.8275 13.5645L15.1549 12.0677C15.2017 12.0677 15.2952 12.1145 15.342 12.1145C15.2952 12.1613 15.342 12.2548 15.3888 12.3016C15.4355 12.3484 15.5291 12.3016 15.5758 12.2548C15.6226 12.3016 15.7162 12.3016 15.7629 12.3484L14.921 13.5645L14.7339 14.0323C14.6871 14.0323 14.6871 14.0323 14.6404 14.0323ZM16.7452 15.4355C16.6984 15.4823 16.7452 15.5758 16.792 15.6226C16.7452 15.6694 16.7452 15.7629 16.6984 15.8097L15.4355 14.921L14.9678 14.7339C14.9678 14.6871 14.9678 14.6871 15.0146 14.6403L15.4823 14.8274L16.9791 15.1548C16.9791 15.2016 16.9323 15.2952 16.9323 15.3419C16.8388 15.3419 16.792 15.3887 16.7452 15.4355ZM17.0726 14.3129C17.0726 14.3597 17.0726 14.4532 17.0726 14.5C17.0726 14.5468 17.0726 14.6403 17.0726 14.6871C17.0258 14.6871 16.9323 14.7339 16.9323 14.7806C16.9323 14.8274 16.9791 14.921 17.0259 14.921C17.0259 14.9677 16.9791 15.0613 16.9791 15.1081L15.5291 14.6403L15.0146 14.5468C15.0146 14.5 15.0146 14.5 15.0146 14.4532L15.5291 14.5L17.0726 14.4064L15.5291 14.3129L15.0146 14.3597C15.0146 14.3129 15.0146 14.3129 15.0146 14.2661L15.5291 14.1726L16.9791 13.7048C16.9791 13.7516 17.0259 13.8452 17.0259 13.8919C16.9791 13.8919 16.9323 13.9855 16.9323 14.0323C16.9323 14.2661 16.9791 14.3129 17.0726 14.3129ZM16.7452 13.5645C16.792 13.6113 16.8388 13.6581 16.9323 13.6113C16.9323 13.6581 16.9791 13.7516 16.9791 13.7984L15.4823 14.1258L15.0146 14.3129C15.0146 14.2661 15.0146 14.2661 14.9678 14.2194L15.4355 14.0323L16.6984 13.1903C16.7452 13.2371 16.792 13.2839 16.792 13.3774C16.7452 13.4242 16.6984 13.5177 16.7452 13.5645ZM16.6984 13.2371L15.342 13.9387L14.921 14.2661L14.8742 14.2194L15.2952 13.8919L16.3242 12.7226L15.1549 13.7516L14.8275 14.1726L14.7807 14.1258L15.1081 13.7048L15.8097 12.3484C15.8565 12.3952 15.95 12.3952 15.9968 12.4419C15.95 12.4887 15.95 12.5823 16.0436 12.629C16.0904 12.6758 16.1839 12.6758 16.2307 12.629C16.2775 12.6758 16.3242 12.7226 16.371 12.7694C16.4178 12.8161 16.4646 12.8629 16.5113 12.9097C16.4646 12.9564 16.4646 13.05 16.5113 13.0968C16.5581 13.1435 16.6517 13.1435 16.6984 13.1435C16.6517 13.0968 16.6984 13.1435 16.6984 13.2371Z" fill="#6060B2"/>
</g>
<defs>
<clipPath id="clip0_274_165">
<rect width="29" height="29" fill="white"/>
</clipPath>
</defs>
</svg>
