<svg width="512" height="349" viewBox="0 0 512 349" fill="none" xmlns="http://www.w3.org/2000/svg">
<path d="M511.714 17.5644V332.652C511.714 341.624 504.338 349 495.366 349H16.3469C7.37488 349 0 341.624 0 332.652V17.5644C0 8.5924 7.37488 1.29248 16.3469 1.29248H495.366C504.338 1.29248 511.714 8.5924 511.714 17.5644Z" fill="url(#paint0_linear_1951_1018)"/>
<g opacity="0.2">
<path d="M299.206 104.506C298.099 103.261 297.409 102.156 296.027 102.778C294.644 103.399 294.644 104.298 293.192 103.192C291.741 102.087 292.363 100.773 289.114 99.5983C285.864 98.423 285.174 97.7323 281.648 97.2486C278.123 96.7649 275.565 96.2812 275.357 96.2812C275.15 96.2812 276.118 96.9028 274.736 97.5944C273.353 98.286 272.247 98.424 270.865 97.5255C269.482 96.627 269.551 96.3501 267.202 96.558C264.851 96.7659 263.469 97.3186 262.432 97.4565C261.396 97.5944 262.432 97.3875 260.842 96.2812C259.252 95.1748 260.359 94.5531 257.593 94.76C254.829 94.9679 253.653 95.0958 252.962 94.72C252.27 94.3452 253.1 92.4093 250.404 91.5798C247.709 90.7502 247.155 91.3729 245.773 91.165C244.39 90.9581 244.459 90.6123 240.52 90.3355C236.58 90.0586 236.787 90.6813 234.091 91.5108C231.396 92.3404 230.704 92.3404 228.216 92.2024C225.727 92.0645 226.35 93.5847 224.828 93.7925C223.307 93.9994 220.889 92.4793 220.612 91.5808C220.335 90.6823 222.686 89.7148 220.612 88.8853C218.538 88.0557 214.667 86.4656 213.907 86.7425C213.146 87.0193 213.561 88.2636 212.178 88.6084C210.796 88.9542 208.999 88.9543 206.856 87.9868C204.714 87.0193 203.884 86.5406 201.603 86.7105C199.323 86.8804 198.078 87.572 196.142 87.7099C194.207 87.8479 193.032 87.0183 194.345 86.3967C195.659 85.775 197.318 83.9081 197.318 83.0096C197.318 82.1111 198.285 80.1752 196.073 79.9683C193.862 79.7614 193.447 81.2815 191.373 79.9683C189.299 78.655 186.604 78.586 185.843 79.0008C185.083 79.4156 185.083 80.1072 183.769 80.3141C182.456 80.521 182.94 81.6963 181.35 82.1111C179.76 82.5258 179.967 81.2815 176.304 81.6273C172.64 81.9731 169.115 82.4569 168.216 83.4933C167.318 84.5297 168.424 85.7051 166.488 86.6036C164.552 87.5021 160.129 86.8104 159.576 87.571C159.023 88.3316 161.996 90.9581 159.991 92.1335C157.986 93.3088 156.741 91.3039 152.111 92.1335C147.48 92.963 148.032 92.8251 146.305 93.8615C144.577 94.8979 144.231 94.2073 143.195 95.6585C142.159 97.1097 139.047 98.424 136.905 98.424C134.762 98.424 133.863 97.1107 131.098 98.2171C128.333 99.3235 128.748 100.083 124.393 99.7382C120.038 99.3924 118.241 99.4614 117.411 100.015C116.582 100.568 116.582 101.951 114.439 102.573C112.296 103.194 108.978 104.301 108.149 104.094C107.319 103.887 104.486 105.269 102.55 105.476C100.614 105.684 99.5085 105.545 98.8868 104.784C98.2641 104.024 97.5735 102.711 98.541 103.125C99.5085 103.54 100.338 104.093 102.066 104.024C103.794 103.955 105.73 102.573 105.315 101.812C104.9 101.051 105.246 99.9461 101.859 99.1166C98.472 98.287 97.0208 98.425 94.4633 96.559C91.9057 94.693 95.4307 93.4487 88.7265 94.1394C82.0212 94.831 80.2242 95.5216 77.5287 97.5265C74.8332 99.5313 74.2795 101.259 71.5151 103.678C68.7506 106.098 69.7181 106.788 66.262 108.516C62.806 110.244 62.2533 109.415 61.2158 112.041C60.1784 114.668 59.4878 117.709 61.6306 118.263C63.7734 118.816 65.9852 117.848 67.0916 117.433C68.1979 117.019 69.0275 117.779 69.1654 119.023C69.3033 120.268 69.3723 122.342 70.7555 122.617C72.1377 122.894 75.0411 120.958 74.9032 118.954C74.7653 116.95 74.2815 115.567 75.6638 113.562C77.046 111.558 77.9445 110.106 79.3967 109.415C80.8479 108.723 82.8528 107.48 82.0922 109.069C81.3316 110.659 79.9494 112.525 80.9168 114.115C81.8843 115.705 84.0961 114.599 84.6497 116.189C85.2024 117.779 83.8892 119.299 83.5434 119.853C83.1976 120.406 84.3729 121.097 82.7828 122.204C81.1927 123.309 80.1563 124.484 78.4282 125.798C76.7002 127.111 71.585 128.009 70.4097 127.734C69.2344 127.457 67.2994 127.734 67.1605 126.143C67.0226 124.553 68.8886 122.825 66.9536 122.065C65.0177 121.304 62.8749 122.342 62.2533 125.037C61.6306 127.733 60.6632 128.216 59.074 129.53C57.4839 130.843 58.7972 134.852 54.1668 135.612C49.5354 136.373 46.9088 135.266 47.2546 136.925C47.6005 138.585 50.5038 137.547 50.5728 140.313C50.6418 143.077 51.3334 144.045 49.3285 144.598C47.3236 145.151 46.8399 144.114 44.1444 145.013C41.4489 145.911 41.5868 149.299 41.0341 150.75C40.4814 152.201 40.2046 153.514 42.0016 154.137C43.7986 154.758 46.702 155.865 48.8448 154.966C50.9876 154.068 52.2319 153.93 52.5087 152.271C52.7856 150.612 53.4762 149.575 54.9284 149.299C56.3795 149.022 57.348 147.363 58.1765 146.395C59.0061 145.428 58.1765 145.773 60.3193 145.842C62.4621 145.911 64.467 143.631 65.2266 144.252C65.9872 144.874 68.2679 146.188 69.7191 147.57C71.1703 148.953 73.1752 149.367 72.8294 151.441C72.4836 153.515 72.3456 155.92 73.7278 155.305C75.1101 154.691 74.6264 152.824 75.5248 151.925C76.4233 151.027 77.5987 151.856 77.4608 150.266C77.3228 148.676 74.9722 148.261 73.7278 146.81C72.4835 145.359 71.5161 143.769 73.0362 144.252C74.5564 144.736 77.4598 146.049 77.7366 147.156C78.0135 148.262 80.571 150.543 80.8469 152.686C81.1237 154.828 82.6439 156.764 83.3355 155.658C84.0271 154.552 83.4044 153.722 84.9256 153.446C86.4457 153.169 85.8931 152.064 86.7226 150.612C87.5521 149.161 89.8329 151.303 90.6624 148.607C91.4919 145.911 89.626 144.983 91.6988 143.512C93.7727 142.041 94.6712 141.073 95.2928 142.386C95.9145 143.7 97.5046 145.082 98.2651 143.7C99.0257 142.317 96.8829 141.903 98.6799 140.865C100.477 139.829 102.067 138.585 101.583 140.382C101.1 142.179 100.408 143.354 101.652 144.598C102.897 145.842 106.56 146.603 104.556 147.708C102.551 148.815 99.6484 148.192 96.9519 149.367C94.2564 150.543 93.8416 149.989 93.15 152.202C92.4584 154.414 92.3894 155.105 94.6702 155.105C96.9509 155.105 97.9883 153.515 98.61 155.52C99.2316 157.525 99.0937 162.017 98.1262 162.432C97.1588 162.847 96.744 162.225 92.4584 162.709C88.1728 163.193 88.3797 164.23 84.9236 162.501C81.4675 160.773 80.638 158.63 79.3937 160.773C78.1494 162.916 79.0479 164.006 76.3524 163.462C73.6569 162.916 75.5918 161.742 71.9978 160.843C68.4038 159.945 67.7122 160.221 67.7122 158.631C67.7122 157.041 68.1959 154.967 65.3615 154.76C62.5271 154.554 57.5509 155.728 53.4722 156.903C49.3934 158.079 50.223 156.626 45.5226 158.285C40.8222 159.945 37.9189 160.497 37.4351 163.055C36.9514 165.612 35.3613 167.064 34.3249 168.447C33.2885 169.829 32.7348 175.913 32.4589 179.645C32.1821 183.377 33.1505 181.649 32.1131 184.414C31.0757 187.179 33.9791 191.534 35.1544 192.708C36.3297 193.884 40.1316 197.616 42.5503 197.892C44.9699 198.169 44.762 196.994 48.495 197.547C52.2279 198.099 52.1589 195.956 55.9608 196.925C59.7627 197.892 61.1449 198.584 63.3566 199.759C65.5684 200.935 65.7763 201.902 65.7763 204.737C65.7763 207.571 65.9142 205.428 67.9191 209.437C69.924 213.446 73.449 217.179 71.3752 220.635C69.3013 224.091 68.4028 224.712 69.7161 227.962C71.0294 231.211 74.6933 237.777 75.1081 241.095C75.5229 244.413 74.4864 244.62 74.9012 246.625C75.316 248.63 79.0489 250.842 82.436 249.46C85.8231 248.077 86.8595 248.008 89.625 245.451C92.3894 242.893 95.1549 244.829 97.2287 239.506C99.3026 234.184 98.611 233.561 99.5095 231.419C100.408 229.276 105.8 226.166 106.007 222.295C106.214 218.424 104.831 215.521 105.315 211.789C105.799 208.056 106.145 204.808 109.739 201.835C113.333 198.863 114.162 201.766 116.651 196.167C119.139 190.568 122.112 189.186 119.346 189.255C116.581 189.324 111.19 191.536 108.909 190.292C106.628 189.047 102.896 183.379 102.135 180.753C101.374 178.126 101.651 179.44 100.338 175.707C99.0247 171.974 97.7804 170.039 97.2277 168.587C96.675 167.136 96.3292 164.578 97.9883 166.652C99.6474 168.726 101.237 171.836 103.449 176.605C105.661 181.375 106.974 185.039 108.91 185.799C110.846 186.56 111.468 187.458 114.371 186.283C117.275 185.108 118.311 184.97 121.076 183.448C123.841 181.927 125.5 181.651 127.505 179.647C129.51 177.642 134.071 176.812 129.026 174.877C123.98 172.942 122.252 174.048 120.801 171.836C119.349 169.624 116.999 167.412 119.141 167.758C121.284 168.104 120.455 168.726 122.874 169.209C125.294 169.693 127.022 168.604 128.335 170.358C129.649 172.113 131.86 173.357 133.934 172.389C136.008 171.421 136.838 170.868 139.049 172.112C141.261 173.356 139.81 176.881 143.128 177.849C146.446 178.816 146.999 175.222 147.691 179.784C148.382 184.347 149.695 188.563 150.87 189.462C152.045 190.361 150.248 194.508 153.98 193.402C157.713 192.295 158.818 192.434 158.818 188.564C158.818 184.693 158.68 183.725 160.684 182.342C162.689 180.96 165.454 179.578 166.698 178.125C167.942 176.674 167.182 175.775 169.67 176.052C172.159 176.328 178.31 183.241 178.034 184.692C177.757 186.143 177.481 186.697 178.655 187.595C179.831 188.494 179.762 188.77 180.66 192.019C181.559 195.268 181.352 194.783 184.185 197.825C187.02 200.867 191.028 203.01 190.683 200.798C190.337 198.586 188.954 198.862 187.71 195.337C186.466 191.812 185.015 188.632 186.674 189.531C188.333 190.43 187.849 191.743 189.577 192.02C191.305 192.297 191.582 190.292 192.895 189.669C194.209 189.047 196.559 184.001 194.692 181.789C192.826 179.578 190.89 178.056 192.826 177.366C194.762 176.674 193.863 177.159 196.144 177.573C198.425 177.987 197.735 176.881 200.499 176.122C203.263 175.361 207.273 174.117 209.416 171.352C211.559 168.588 213.909 167.758 213.287 164.094C212.665 160.431 211.836 158.841 210.522 157.873C209.209 156.905 209.14 156.214 210.315 155.799C211.49 155.384 214.531 155.315 212.803 154.417C211.075 153.518 211.905 154.002 209.9 153.518C207.895 153.034 205.752 154.002 207.549 152.343C209.346 150.684 210.728 149.302 210.728 149.302C210.728 149.302 210.245 149.647 211.42 150.892C212.595 152.136 213.356 151.583 213.909 151.306C214.461 151.03 216.12 149.855 216.328 151.168C216.536 152.482 214.185 153.449 215.568 153.933C216.95 154.417 218.194 153.172 217.641 155.661C217.089 158.15 218.194 160.43 219.369 159.186C220.545 157.942 222.273 154.279 221.927 152.758C221.581 151.237 220.406 151.997 221.996 149.233C223.586 146.468 223.586 144.532 225.729 144.878C227.872 145.224 229.946 143.15 230.775 142.32C231.605 141.491 235.13 139.555 235.682 137.205C236.235 134.855 235.959 134.51 236.719 131.813C237.479 129.118 239.138 129.118 237.065 127.874C234.991 126.629 233.401 126.906 233.056 125.523C232.71 124.141 238.586 117.435 241.143 116.399C243.701 115.362 245.498 115.846 247.226 116.606C248.954 117.366 249.507 118.126 251.097 117.158C252.687 116.191 253.723 115.637 254.622 115.568C255.52 115.499 258.009 113.632 259.045 114.462C260.082 115.292 260.221 116.19 261.465 115.637C262.709 115.085 264.368 112.181 264.921 113.218C265.474 114.254 265.336 115.498 263.815 117.503C262.293 119.508 260.98 119.854 259.045 121.443C257.109 123.033 256.35 124.692 256.35 126.143C256.35 127.595 255.797 132.434 256.557 132.503C257.317 132.572 257.524 132.365 259.529 129.807C261.534 127.25 262.57 127.112 263.884 126.143C265.197 125.176 265.681 124.001 265.888 121.72C266.096 119.439 264.644 118.886 266.787 117.711C268.93 116.536 271.487 115.292 273.63 115.637C275.773 115.983 275.289 115.914 276.879 114.324C278.469 112.734 279.575 111.698 281.234 111.835C282.893 111.973 285.588 112.319 286.003 111.49C286.418 110.66 286.072 109.97 286.141 108.794C286.21 107.619 286.072 107.135 287.662 106.72C289.252 106.306 289.182 105.753 289.943 105.476C290.704 105.199 291.187 106.029 292.432 106.512C293.676 106.996 296.717 107.065 297.409 106.167C298.1 105.266 299.206 104.506 299.206 104.506Z" fill="white"/>
<path d="M238.515 142.108C239.419 142.441 241.142 143.836 242.179 143.767C243.216 143.698 243.77 145.081 242.94 145.219C242.11 145.357 239.346 146.67 239.346 146.67C239.346 146.67 238.516 145.633 238.033 146.67C237.549 147.706 237.272 148.467 237.411 149.089C237.549 149.711 238.517 151.509 237.964 152.408C237.411 153.306 236.65 153.79 236.65 154.896C236.65 156.002 237.342 157.177 236.374 157.661C235.406 158.144 234.438 158.283 233.609 158.559C232.78 158.836 232.158 158.905 231.812 159.666C231.466 160.426 230.637 161.531 228.909 161.463C227.181 161.394 227.181 160.011 225.591 161.325C224.001 162.638 223.932 163.398 223.102 163.053C222.273 162.707 222.894 162.223 223.102 160.91C223.309 159.597 220.268 159.942 223.033 158.421C225.798 156.9 225.798 156.693 227.665 156.416C229.53 156.14 230.568 157.038 231.327 155.449C232.088 153.859 231.327 153.237 232.849 153.168C234.37 153.099 235.337 153.791 235.613 152.062C235.89 150.334 235.682 148.883 235.613 147.776C235.544 146.67 235.129 145.633 236.374 145.219C237.618 144.804 237.756 145.564 237.895 144.597C238.032 143.628 237.202 141.625 238.515 142.108Z" fill="white"/>
<path d="M210.728 179.573C212.041 179.781 212.663 182.13 212.249 183.098C211.834 184.065 211.419 185.172 212.595 185.379C213.77 185.586 214.6 185.724 214.6 186.554C214.6 187.383 215.083 185.655 215.982 187.867C216.88 190.079 216.051 190.425 217.088 192.084C218.125 193.743 219.369 194.572 217.918 195.402C216.467 196.231 217.572 197.13 216.052 196.646C214.532 196.162 215.153 196.438 214.393 194.987C213.632 193.536 213.148 194.71 212.458 194.641C211.766 194.572 211.559 194.572 212.112 193.605C212.665 192.637 212.941 192.706 212.32 191.6C211.698 190.494 212.666 189.18 211.767 188.973C210.869 188.767 210.592 190.287 209.003 191.254C207.413 192.222 205.063 192.499 205.132 192.153C205.201 191.807 206.099 191.323 207.552 189.526C209.003 187.729 209.902 188.835 209.625 186.07C209.349 183.306 208.381 184.065 209.28 182.13C210.175 180.195 210.728 179.573 210.728 179.573Z" fill="white"/>
<path d="M206.304 195.264C207.351 196.31 208.724 196.024 208.309 197.061C207.895 198.097 206.663 198.236 207.348 199.272C208.032 200.31 208.655 201.83 209.554 201.692C210.452 201.554 210.383 200.863 212.595 200.863C214.807 200.863 216.189 200.379 216.328 201.277C216.466 202.176 215.36 202.245 213.908 203.558C212.457 204.871 211.005 206.185 212.18 207.014C213.356 207.844 213.839 209.365 213.424 209.918C213.01 210.47 212.595 211.024 213.562 211.715C214.53 212.406 219.161 212.198 218.055 213.857C216.949 215.516 214.253 216.415 211.419 216.484C208.584 216.553 210.863 215.723 205.127 215.171C199.391 214.618 198.424 216.069 194.415 214.134C190.406 212.198 187.779 213.857 185.567 210.332C183.355 206.807 184.254 208.535 181.488 204.871C178.724 201.208 180.037 201.208 177.686 199.756C175.336 198.305 173.332 196.231 174.922 196.231C176.512 196.231 175.752 194.365 180.659 198.443C185.566 202.521 184.253 202.314 187.848 204.733C191.442 207.153 192.617 207.429 193.93 207.153C195.244 206.876 197.18 207.153 195.935 205.563C194.691 203.973 193.999 201.969 195.037 201.623C196.074 201.277 196.004 203.005 197.732 201.139C199.46 199.273 199.46 198.789 200.981 198.167C202.503 197.545 201.673 198.167 203.124 197.269C204.576 196.37 205.129 194.088 206.304 195.264Z" fill="white"/>
<path d="M225.313 203.282C226.065 204.249 227.318 205.494 227.871 206.532C228.423 207.569 229.461 205.654 231.465 205.712C233.469 205.771 236.442 206.876 237.686 207.43C238.93 207.984 241.073 208.329 242.386 210.126C243.7 211.923 244.667 210.886 244.737 212.683C244.806 214.48 245.083 214.273 246.257 215.31C247.433 216.346 247.64 218.282 245.566 217.453C243.492 216.623 242.87 213.79 240.658 214.065C238.447 214.342 239.345 214.964 237.617 215.31C235.889 215.656 235.129 215.033 233.055 214.895C230.981 214.757 229.461 215.448 230.428 213.582C231.396 211.716 232.087 211.647 228.7 210.264C225.313 208.881 224 209.572 224 208.121C224 206.67 224.552 206.531 223.239 205.286C221.926 204.042 221.511 203.144 222.341 202.521C223.17 201.899 224.829 202.66 225.313 203.282Z" fill="white"/>
<path d="M229.323 223.189C231.604 224.365 232.502 226.714 233.608 226.3C234.715 225.885 234.3 225.193 235.129 222.706C235.958 220.217 236.027 217.66 237.065 218.697C238.101 219.733 237.133 221.757 238.793 222.405C240.452 223.051 240.797 223.536 241.143 225.471C241.489 227.407 241.835 226.784 243.563 228.789C245.291 230.794 246.843 230.448 247.138 232.729C247.434 235.01 250.337 237.36 250.475 239.71C250.613 242.061 251.028 243.719 249.3 246.691C247.572 249.664 246.88 251.184 246.327 252.429C245.775 253.673 244.116 254.295 242.319 254.295C240.522 254.295 239.484 253.534 238.379 253.811C237.272 254.088 236.513 255.47 235.2 254.503C233.886 253.535 233.126 252.291 232.711 251.531C232.296 250.77 232.089 248.212 230.153 248.489C228.218 248.766 228.494 249.734 227.319 248.489C226.144 247.245 226.973 246.209 223.517 245.655C220.061 245.102 219.162 244.825 217.71 245.171C216.259 245.517 214.738 246.001 213.148 247.245C211.558 248.489 209.069 247.868 207.687 248.489C206.305 249.111 204.231 250.494 202.71 249.665C201.189 248.835 201.742 248.42 201.811 246.485C201.88 244.549 201.742 245.864 200.775 242.546C199.807 239.227 200.222 239.711 199.324 238.122C198.425 236.532 197.733 237.293 198.978 235.012C200.222 232.731 199.807 232.247 200.498 231.487C201.19 230.726 201.811 231.695 204.162 230.105C206.513 228.514 207.203 229.206 209.346 228.377C211.489 227.547 211.973 224.368 213.286 223.399C214.599 222.432 214.945 221.671 215.912 221.671C216.88 221.671 217.986 222.224 219.714 222.916C221.442 223.607 221.096 223.676 222.549 222.086C224 220.496 222.549 218.976 225.175 219.252C227.802 219.528 228.769 219.114 229.115 220.634C229.461 222.153 229.323 223.189 229.323 223.189Z" fill="white"/>
<path d="M277.294 255.815C278.676 254.018 279.368 253.81 278.884 251.736C278.401 249.662 278.538 248.036 280.335 249.886C282.132 251.736 284.137 252.774 285.52 252.843C286.902 252.912 290.22 253.949 286.833 256.507C283.446 259.064 284.068 257.267 281.372 261.069C278.676 264.871 280.75 264.94 277.501 266.806C274.252 268.672 270.658 269.501 271.35 267.843C272.041 266.184 271.695 266.184 274.668 263.972C277.64 261.761 279.575 260.102 279.575 258.236C279.575 256.369 277.294 255.815 277.294 255.815Z" fill="white"/>
<path d="M112.228 237.153C110.984 235.356 110.984 234.802 110.846 231.899C110.708 228.996 109.74 227.614 110.846 225.955C111.952 224.296 114.855 221.531 115.961 219.595C117.068 217.66 117.343 213.513 118.035 217.245C118.727 220.978 120.938 223.189 117.62 228.167C114.302 233.143 112.228 237.153 112.228 237.153Z" fill="white"/>
<path d="M45.7321 134.297C45.4553 133.744 46.6996 131.946 46.6996 131.946C46.6996 131.946 48.2207 131.117 47.806 128.076C47.3912 125.034 47.1144 126.831 46.009 123.928C44.9026 121.024 43.2445 121.577 44.9026 119.642C46.5617 117.706 48.4966 114.804 48.9114 117.154C49.3261 119.503 48.3587 121.024 49.3261 122.131C50.2936 123.237 52.2295 123.465 53.3349 125.286C54.4413 127.107 58.8648 127.799 55.5467 130.148C52.2285 132.499 50.7084 130.978 49.4641 132.637C48.2198 134.297 45.7321 134.297 45.7321 134.297Z" fill="white"/>
<path d="M41.3077 132.085C43.5194 130.84 44.328 131.117 44.2001 128.905C44.0721 126.693 45.5933 124.757 43.2426 124.619C40.8929 124.481 40.2013 125.863 39.9245 126.831C39.6476 127.798 39.6476 128.075 40.3392 129.042C41.0308 130.01 41.1688 131.393 40.8919 132.084C40.6171 132.776 41.3077 132.085 41.3077 132.085Z" fill="white"/>
<path d="M33.2894 110.519C35.0864 109.275 37.9897 110.381 38.1277 107.753C38.2656 105.127 38.9572 104.435 34.9484 104.159C30.9397 103.883 30.9397 103.883 28.4511 104.159C25.9625 104.436 23.6128 101.948 25.5477 105.681C27.4826 109.414 27.7595 110.243 29.2806 110.519C30.8018 110.795 33.2894 110.519 33.2894 110.519Z" fill="white"/>
<path d="M311.579 100.566C309.421 98.0989 305.911 97.939 308.675 96.4178C311.44 94.8977 313.099 93.9292 315.726 93.3765C318.353 92.8238 321.118 93.9292 325.404 95.0356C329.69 96.142 336.602 95.1735 339.782 96.142C342.961 97.1094 344.482 99.0454 345.45 98.9064C346.417 98.7685 349.183 95.8651 351.947 95.8651C354.712 95.8651 356.095 95.4504 361.763 96.142C367.43 96.8336 372.96 97.1094 373.098 98.4927C373.236 99.8749 373.236 100.567 375.31 100.567C377.384 100.567 379.181 99.3222 380.425 101.258C381.669 103.194 383.604 104.576 383.329 103.055C383.052 101.535 381.669 100.291 382.776 99.737C383.882 99.1843 387.061 98.9074 387.891 99.1843C388.721 99.4611 391.347 99.8759 392.177 99.737C393.006 99.599 392.453 98.2158 395.218 99.0454C397.982 99.8749 398.397 101.949 398.951 102.087C399.504 102.225 400.748 99.9609 400.886 98.4667C401.024 96.9715 402.268 96.9715 399.78 95.0366C397.292 93.1007 399.539 90.751 401.318 91.5805C403.098 92.4101 401.992 93.5164 403.789 95.3134C405.586 97.1104 405.863 98.6316 407.107 98.0779C408.352 97.5252 407.66 95.1745 409.319 96.9715C410.978 98.7685 411.393 97.863 412.913 97.5552C414.434 97.2474 413.19 96.2799 414.987 97.2474C416.784 98.2148 419.825 99.3212 417.613 101.118C415.402 102.915 412.083 102.639 409.734 104.022C407.383 105.404 408.075 104.989 407.383 106.648C406.691 108.307 406.968 108.445 404.204 109.137C401.438 109.828 400.61 109.275 400.748 111.625C400.886 113.976 400.61 114.252 399.641 115.496C398.674 116.74 399.227 117.847 400.333 118.4C401.439 118.952 402.683 117.985 402.683 119.644C402.683 121.303 404.757 122.547 407.521 122.547C410.285 122.547 411.53 123.239 413.189 125.312C414.848 127.386 412.497 127.523 415.263 130.15C418.027 132.777 420.655 134.021 421.069 131.671C421.484 129.321 421.069 128.768 421.484 126.003C421.899 123.239 424.526 122.962 423.143 120.473C421.761 117.985 419.687 116.879 421.622 115.496C423.558 114.114 421.207 112.837 424.526 112.162C427.844 111.487 430.055 110.934 431.438 113.422C432.82 115.911 431.3 117.57 432.682 118.675C434.064 119.782 438.35 118.123 439.179 117.155C440.009 116.188 442.359 116.326 443.188 119.92C444.018 123.514 444.57 124.482 445.815 124.897C447.059 125.312 447.059 126.141 448.58 127.523C450.1 128.906 453.004 131.117 448.58 131.532C444.157 131.947 440.562 131.394 438.903 132.914C437.243 134.435 437.105 133.329 438.211 135.403C439.317 137.477 438.488 136.095 439.317 138.721C440.147 141.348 444.294 141.348 441.252 143.145C438.21 144.942 438.764 145.356 436.967 144.804C435.17 144.251 434.755 140.281 432.681 143.511C430.607 146.74 430.884 147.984 429.087 148.951C427.29 149.919 427.151 147.984 425.493 151.025C423.834 154.067 426.46 154.343 422.729 157.8C418.996 161.256 417.199 159.597 416.922 162.5C416.645 165.403 418.443 168.859 417.474 169.551C416.507 170.243 416.645 170.104 415.54 168.169C414.433 166.233 414.987 165.127 411.116 164.851C407.245 164.574 407.522 163.606 406.001 165.265C404.48 166.924 406.554 167.477 402.268 166.924C397.982 166.372 397.43 161.257 396.6 167.201C395.771 173.146 395.633 173.837 397.015 175.496C398.397 177.155 402.13 181.163 403.789 179.366C405.448 177.569 403.374 175.358 406.555 176.048C409.734 176.74 410.563 175.91 410.011 177.707C409.458 179.504 405.172 179.781 408.628 181.44C412.084 183.099 414.988 181.163 415.264 183.791C415.541 186.418 414.849 187.109 414.987 188.629C415.125 190.149 415.816 191.256 418.996 191.256C422.175 191.256 422.037 190.012 422.866 191.671C423.696 193.33 426.323 192.5 427.429 190.149C428.535 187.799 429.365 185.172 431.023 187.938C432.682 190.702 432.958 191.256 434.617 190.149C436.276 189.043 436.276 189.043 436.276 189.043C436.276 189.043 438.073 187.384 439.594 188.766C441.115 190.148 443.603 188.628 444.157 190.563C444.709 192.498 443.88 192.775 446.23 193.467C448.581 194.158 451.346 193.052 452.728 194.987C454.11 196.923 450.377 195.678 454.387 198.028C458.396 200.379 459.64 200.655 459.364 202.176C459.087 203.697 460.194 203.973 463.788 204.802C467.382 205.632 466.829 205.217 469.732 207.429C472.636 209.641 474.985 208.673 475.954 209.779C476.921 210.886 478.58 211.162 477.198 214.203C475.816 217.244 474.434 216.554 473.327 218.903C472.221 221.254 471.253 221.807 471.53 225.954C471.807 230.102 471.945 229.687 471.115 231.761C470.286 233.835 467.245 234.111 464.756 235.632C462.267 237.153 462.13 235.909 460.47 240.056C458.811 244.203 459.779 241.991 458.397 245.585C457.014 249.179 458.949 247.382 454.941 249.456C450.932 251.53 449.411 249.733 448.996 250.977C448.581 252.222 451.347 251.254 448.443 253.881C445.54 256.507 444.295 257.199 442.498 258.304C440.701 259.41 439.595 260.655 440.01 263.005C440.425 265.354 442.498 265.217 440.148 267.428C437.797 269.64 436.83 267.428 436.139 271.022C435.447 274.616 434.757 272.958 435.447 276.69C436.139 280.423 439.733 280.423 436.415 282.497C433.097 284.571 429.503 285.538 427.429 280.562C425.355 275.585 425.355 273.65 425.355 270.332C425.355 267.014 424.94 269.502 426.599 263.834C428.258 258.166 425.493 260.101 426.876 253.881C428.258 247.659 427.983 241.024 429.365 236.462C430.747 231.899 433.788 233.143 430.747 228.997C427.706 224.849 427.153 225.541 424.527 222.775C421.9 220.011 423.559 220.563 422.038 217.245C420.517 213.927 419.549 214.204 418.305 211.715C417.061 209.227 416.369 210.056 417.613 205.91C418.858 201.762 416.093 201.901 418.858 200.657C421.622 199.412 421.208 196.371 420.794 195.265C420.379 194.158 422.867 193.743 418.997 193.191C415.126 192.638 414.019 193.882 412.637 191.532C411.255 189.181 412.36 188.767 409.458 187.384C406.555 186.002 403.375 186.002 402.269 184.895C401.163 183.789 401.163 183.789 401.163 183.789C401.163 183.789 403.236 182.959 398.536 182.407C393.836 181.854 390.38 182.407 388.029 179.089C385.678 175.77 386.232 177.706 385.678 174.665C385.126 171.624 384.434 171.624 382.222 169.688C380.01 167.753 380.01 166.647 377.937 165.817C375.863 164.988 375.448 165.264 375.448 165.679C375.448 166.094 375.31 167.753 377.245 169.273C379.181 170.794 379.319 172.176 379.319 172.867C379.319 173.559 376.692 174.388 376.692 174.388C376.692 174.388 376.692 173.559 375.863 171.624C375.033 169.688 374.756 168.72 373.097 166.371C371.438 164.021 371.023 163.744 371.023 163.744C371.023 163.744 369.088 160.703 365.77 156.694C362.452 152.685 361.485 155.173 361.485 150.612C361.485 146.049 362.314 146.049 361.485 142.87C360.655 139.691 358.72 138.169 360.378 137.617C362.037 137.064 363.005 136.235 359.964 133.608C356.922 130.982 355.816 132.364 354.711 128.77C353.604 125.176 355.955 125.452 351.392 123.793C346.83 122.133 346.277 120.751 344.203 119.784C342.13 118.816 340.885 118.264 340.885 118.264C340.885 118.264 341.3 117.849 336.323 117.434C331.346 117.019 331.899 114.67 328.166 116.19C324.433 117.711 323.881 117.987 323.881 117.987C323.881 117.987 325.955 115.498 322.361 115.775C318.767 116.052 319.595 116.881 319.457 118.54C319.319 120.2 319.872 122.134 317.383 123.103C314.895 124.07 311.301 126.697 312.683 123.932C314.065 121.167 317.521 119.232 316.277 118.54C315.033 117.849 312.406 120.061 312.129 117.849C311.852 115.637 312.406 114.531 309.503 114.393C306.599 114.255 304.25 113.011 306.462 112.042C308.673 111.075 310.747 111.489 311.439 109.139C312.13 106.788 317.245 106.235 311.577 106.374C305.909 106.512 303.42 106.512 304.112 105.407C304.803 104.3 304.527 102.228 308.535 102.78C312.546 103.33 312.546 101.671 311.579 100.566Z" fill="white"/>
</g>
<path d="M84.8543 218.372C84.2456 217.003 83.486 215.863 82.4976 214.951C81.4332 214.038 80.2928 213.354 78.9236 212.822C77.6313 212.365 76.1861 212.138 74.7419 212.138C73.2208 212.138 71.7766 212.366 70.4843 212.822C70.3324 212.898 70.1045 212.974 69.9516 213.051C68.8872 213.583 67.8228 214.19 66.9863 214.952C65.9219 215.864 65.1613 217.004 64.5526 218.373C63.944 219.666 63.6401 221.262 63.6401 222.935V238.295C63.6401 240.044 63.944 241.564 64.5526 242.932C65.1603 244.301 65.9209 245.366 66.9863 246.354C67.9747 247.267 69.191 247.95 70.4833 248.406C71.7756 248.863 73.2208 249.091 74.7409 249.091C75.4255 249.091 76.1861 249.015 76.8697 248.939C77.5544 248.787 78.3139 248.634 78.9226 248.406C80.2918 247.95 81.4322 247.267 82.4966 246.354C83.485 245.366 84.2456 244.301 84.8533 242.932C85.4619 241.564 85.7658 240.044 85.7658 238.295V222.935C85.7668 221.261 85.4629 219.664 84.8543 218.372ZM79.1515 238.218C79.1515 239.814 78.6957 240.954 77.9351 241.868C77.1746 242.628 76.2621 243.083 75.1217 243.16H74.7419C73.3737 243.16 72.3083 242.703 71.4728 241.868C70.7122 240.954 70.2564 239.815 70.2564 238.218V223.087C70.2564 222.782 70.2564 222.554 70.3324 222.326C70.3324 222.251 70.4084 222.175 70.4084 222.175C70.4843 221.035 70.8641 220.198 71.4728 219.437C71.6247 219.286 71.7766 219.133 71.9285 219.057C72.6891 218.373 73.6016 218.144 74.7419 218.144C76.0352 218.144 77.0986 218.525 77.9362 219.437C78.6967 220.35 79.1525 221.566 79.1525 223.087L79.1515 238.218Z" fill="white"/>
<path d="M102.495 212.44L95.1187 218.904V226.051L102.495 219.588V248.785H109.186V212.44H102.495Z" fill="white"/>
<path d="M121.427 212.44V224.15H127.738V218.447H137.394L125.532 248.785H132.755L144.541 218.447V212.44H121.427Z" fill="white"/>
<path d="M171.915 218.372C171.306 217.003 170.547 215.863 169.558 214.951C168.494 214.038 167.353 213.354 165.984 212.822C164.616 212.365 163.247 212.138 161.802 212.138C160.281 212.138 158.837 212.366 157.545 212.822C156.177 213.354 155.035 214.038 154.047 214.951C152.982 215.863 152.146 217.003 151.613 218.372C151.006 219.665 150.701 221.261 150.701 222.934V238.294C150.701 240.043 151.006 241.563 151.613 242.931C152.146 244.3 152.982 245.365 154.047 246.353C155.035 247.266 156.176 247.949 157.545 248.405C158.837 248.862 160.282 249.09 161.802 249.09C163.247 249.09 164.616 248.862 165.984 248.405C167.352 247.949 168.494 247.266 169.558 246.353C170.547 245.365 171.307 244.3 171.915 242.931C172.522 241.563 172.827 240.043 172.827 238.294V222.934C172.826 221.261 172.522 219.664 171.915 218.372ZM166.136 238.218C166.136 239.814 165.756 240.954 164.996 241.868C164.159 242.703 163.095 243.16 161.802 243.16C160.434 243.16 159.37 242.703 158.533 241.868C157.774 240.954 157.317 239.815 157.317 238.218V223.087C157.317 221.566 157.774 220.349 158.533 219.437C159.37 218.525 160.434 218.144 161.802 218.144C163.095 218.144 164.159 218.525 164.996 219.437C165.756 220.35 166.136 221.566 166.136 223.087V238.218Z" fill="white"/>
<path d="M227.572 233.275C227.116 231.907 226.355 230.766 225.443 229.854C224.531 228.941 223.542 228.258 222.402 227.725C221.261 227.269 220.044 227.04 218.828 227.04C218.372 227.04 217.915 227.04 217.459 227.116C217.004 227.192 216.547 227.268 216.167 227.496L218.676 222.555L223.694 212.441H216.471L215.71 213.963V214.039L214.798 215.863L208.791 228.181C208.715 228.333 208.639 228.485 208.563 228.637C207.803 230.158 207.195 231.602 206.662 233.047C206.054 234.567 205.75 236.241 205.75 237.913C205.75 239.662 205.978 241.258 206.587 242.702C207.195 244.072 207.955 245.288 209.02 246.201C209.781 246.961 210.54 247.494 211.529 247.95H211.605C211.91 248.101 212.289 248.254 212.593 248.405C213.961 248.862 215.483 249.09 217.08 249.09C218.676 249.09 220.121 248.862 221.489 248.33C222.933 247.874 224.075 247.114 225.139 246.125L225.215 246.049C226.204 245.06 226.964 243.997 227.496 242.552C228.105 241.182 228.408 239.586 228.408 237.761C228.408 236.088 228.105 234.643 227.572 233.275ZM217.08 232.515C218.524 232.515 219.664 232.971 220.502 233.959C221.338 234.872 221.794 236.241 221.794 237.837C221.794 239.509 221.338 240.878 220.426 241.791C219.513 242.702 218.449 243.159 217.08 243.159C215.711 243.159 214.57 242.702 213.658 241.791C212.821 240.878 212.365 239.509 212.365 237.837C212.365 236.164 212.821 234.796 213.658 233.883C214.57 232.971 215.71 232.515 217.08 232.515Z" fill="white"/>
<path d="M256.921 231.45C256.617 229.854 255.704 228.257 254.26 226.889C253.499 226.128 252.588 225.52 251.446 225.063C250.306 224.608 249.014 224.38 247.416 224.38C246.2 224.38 245.136 224.609 244.147 224.988C243.159 225.368 242.474 225.748 242.018 226.205V218.449H256.693V212.442H235.936V232.972H242.018C242.246 232.288 242.703 231.603 243.387 230.995C243.842 230.539 244.375 230.234 245.136 230.158C245.516 230.007 245.972 230.007 246.428 230.007C248.1 230.007 249.241 230.615 249.849 231.679C250.534 232.819 250.914 234.417 250.914 236.545C250.914 237.685 250.762 238.75 250.609 239.739C250.609 239.891 250.533 239.967 250.457 240.044C250.457 240.12 250.457 240.12 250.457 240.12C250.229 240.879 249.925 241.488 249.468 241.945C248.632 242.78 247.643 243.161 246.275 243.161C244.907 243.161 243.841 242.78 243.158 241.945C242.473 241.183 242.018 240.12 241.866 238.675H235.174C235.326 239.968 235.554 241.259 235.935 242.553C236.315 243.922 236.999 245.061 238.14 246.203C238.9 247.039 240.041 247.648 241.41 248.255C242.702 248.863 244.375 249.092 246.276 249.092C246.961 249.092 247.492 249.092 248.025 248.94H248.101C249.241 248.864 250.23 248.635 251.142 248.256C252.435 247.649 253.499 246.963 254.336 246.204C255.629 244.834 256.464 243.39 256.921 241.87C257.301 240.349 257.53 238.6 257.53 236.547C257.53 234.796 257.301 233.123 256.921 231.45Z" fill="white"/>
<path d="M263.84 212.44V224.15H270.152V218.447H279.808L268.023 248.785H275.17L287.031 218.447V212.44H263.84Z" fill="white"/>
<path d="M314.707 218.6C314.174 217.155 313.339 216.015 312.35 215.027C311.286 214.114 310.146 213.354 308.701 212.898C307.333 212.365 305.888 212.137 304.291 212.137C302.695 212.137 301.174 212.365 299.805 212.898C298.437 213.43 297.22 214.19 296.155 215.103C295.167 216.09 294.406 217.308 293.799 218.676C293.191 220.12 292.886 221.717 292.886 223.466C292.886 225.215 293.191 226.736 293.723 228.027C294.255 229.321 295.016 230.461 295.852 231.372C296.764 232.286 297.828 233.046 298.969 233.501C300.109 234.034 301.326 234.263 302.543 234.263C302.999 234.263 303.455 234.263 303.911 234.187C304.367 234.111 304.824 233.958 305.203 233.806L297.676 248.785H304.899L312.578 233.122C313.415 231.449 314.099 229.776 314.707 228.256C315.316 226.66 315.62 225.063 315.62 223.39C315.62 221.565 315.316 219.968 314.707 218.6ZM307.636 227.344C306.724 228.256 305.659 228.713 304.291 228.713C302.847 228.713 301.706 228.256 300.869 227.344C299.956 226.355 299.576 225.062 299.576 223.466C299.576 221.717 300.032 220.425 300.869 219.512C301.781 218.6 302.922 218.143 304.291 218.143C305.659 218.143 306.724 218.6 307.636 219.512C308.549 220.425 308.928 221.717 308.928 223.466C308.929 225.139 308.549 226.431 307.636 227.344Z" fill="white"/>
<path d="M358.276 212.44L350.824 218.904V226.051L358.276 219.588V248.785H364.891V212.44H358.276Z" fill="white"/>
<path d="M377.132 212.44V224.15H383.518V218.447H393.099L381.314 248.785H388.536L400.322 218.447V212.44H377.132Z" fill="white"/>
<path d="M416.29 212.44L408.914 218.904V226.051L416.29 219.588V248.785H422.98V212.44H416.29Z" fill="white"/>
<path d="M457.044 218.6C456.512 217.155 455.676 216.015 454.688 215.027C453.623 214.114 452.482 213.354 451.038 212.898C449.67 212.365 448.224 212.137 446.628 212.137C445.031 212.137 443.511 212.365 442.142 212.898C440.774 213.43 439.557 214.19 438.492 215.103C437.503 216.09 436.667 217.308 436.135 218.676C435.526 220.12 435.223 221.717 435.223 223.466C435.223 225.215 435.526 226.736 436.059 228.027C436.592 229.321 437.351 230.461 438.188 231.372C439.1 232.286 440.089 233.046 441.305 233.501C442.446 234.034 443.662 234.263 444.878 234.263C445.334 234.263 445.791 234.263 446.246 234.187C446.703 234.111 447.159 233.958 447.54 233.806L440.012 248.785H447.235L454.915 233.122C455.751 231.449 456.436 229.776 457.043 228.256C457.651 226.66 457.956 225.063 457.956 223.39C457.957 221.565 457.653 219.968 457.044 218.6ZM449.973 227.344C449.061 228.256 447.997 228.713 446.628 228.713C445.184 228.713 444.043 228.256 443.206 227.344C442.294 226.355 441.914 225.062 441.914 223.466C441.914 221.717 442.37 220.425 443.206 219.512C444.119 218.6 445.259 218.143 446.628 218.143C447.997 218.143 449.061 218.6 449.973 219.512C450.886 220.425 451.266 221.717 451.266 223.466C451.266 225.139 450.886 226.431 449.973 227.344Z" fill="white"/>
<path d="M323.224 308.169C322.768 307.18 322.159 306.344 321.475 305.659C320.714 304.976 319.877 304.443 318.889 304.139C317.9 303.758 316.836 303.606 315.772 303.606C314.631 303.606 313.643 303.758 312.654 304.139C311.666 304.444 310.829 304.976 310.069 305.659C309.308 306.344 308.701 307.18 308.244 308.169C307.864 309.157 307.635 310.298 307.635 311.514V322.767C307.635 324.06 307.863 325.2 308.244 326.189C308.701 327.177 309.308 328.014 310.069 328.697C310.829 329.382 311.666 329.914 312.654 330.218C313.643 330.598 314.631 330.75 315.772 330.75C316.836 330.75 317.9 330.598 318.889 330.218C319.877 329.914 320.714 329.382 321.475 328.697C322.159 328.014 322.767 327.177 323.224 326.189C323.68 325.2 323.832 324.06 323.832 322.767V311.514C323.832 310.299 323.68 309.158 323.224 308.169ZM318.966 322.768C318.966 323.908 318.662 324.745 318.129 325.429C317.521 326.037 316.761 326.341 315.773 326.341C314.784 326.341 314.024 326.037 313.416 325.429C312.807 324.745 312.504 323.908 312.504 322.768V311.591C312.504 310.528 312.807 309.614 313.416 308.929C314.025 308.322 314.784 308.017 315.773 308.017C316.761 308.017 317.522 308.322 318.129 308.929C318.662 309.614 318.966 310.527 318.966 311.591V322.768Z" fill="white"/>
<path d="M344.97 317.826C344.742 316.609 344.058 315.468 342.994 314.404C342.461 313.872 341.777 313.415 340.941 313.11C340.104 312.731 339.116 312.579 337.975 312.579C337.139 312.579 336.303 312.731 335.619 313.034C334.858 313.262 334.326 313.567 334.023 313.948V308.169H344.82V303.834H329.536V318.889H334.023C334.175 318.357 334.555 317.902 335.011 317.445C335.543 316.988 336.227 316.685 337.292 316.685C338.432 316.685 339.269 317.141 339.8 317.979C340.257 318.814 340.485 319.955 340.485 321.552C340.485 322.388 340.485 323.148 340.333 323.833C340.181 324.517 339.877 325.05 339.497 325.505C338.888 326.113 338.128 326.341 337.14 326.341C336.151 326.341 335.315 326.113 334.859 325.505C334.326 324.897 334.023 324.136 333.871 323.072H329.004C329.08 324.06 329.232 324.973 329.537 325.961C329.841 326.874 330.374 327.786 331.21 328.622C331.742 329.154 332.578 329.686 333.567 330.142C334.555 330.523 335.772 330.75 337.14 330.75C338.508 330.75 339.725 330.523 340.714 330.142C341.626 329.686 342.463 329.154 343.071 328.546C343.983 327.634 344.667 326.569 344.971 325.429C345.275 324.365 345.427 322.996 345.427 321.552C345.426 320.259 345.274 319.042 344.97 317.826Z" fill="white"/>
<path d="M358.884 301.023L348.163 333.338H352.724L363.445 301.023H358.884Z" fill="white"/>
<path d="M373.558 303.834L368.084 308.55V313.796L373.558 309.082V330.523H378.425V303.834H373.558Z" fill="white"/>
<path d="M394.848 303.834L389.374 308.55V313.796L394.848 309.082V330.523H399.715V303.834H394.848Z" fill="white"/>
<path d="M409.067 317.521V322.083H420.624V317.521H409.067Z" fill="white"/>
<path d="M441.459 308.169C441.003 307.18 440.394 306.344 439.634 305.659C438.95 304.976 438.038 304.443 437.049 304.139C436.061 303.758 435.072 303.606 434.008 303.606C432.868 303.606 431.879 303.758 430.891 304.139C429.902 304.444 429.066 304.976 428.305 305.659C427.545 306.344 426.937 307.18 426.48 308.169C426.024 309.157 425.872 310.298 425.872 311.514V322.767C425.872 324.06 426.023 325.2 426.48 326.189C426.936 327.177 427.545 328.014 428.305 328.697C429.066 329.382 429.902 329.914 430.891 330.218C431.879 330.598 432.868 330.75 434.008 330.75C435.072 330.75 436.061 330.598 437.049 330.218C438.038 329.914 438.95 329.382 439.634 328.697C440.394 328.014 441.003 327.177 441.459 326.189C441.839 325.2 442.067 324.06 442.067 322.767V311.514C442.067 310.299 441.839 309.158 441.459 308.169ZM437.2 322.768C437.2 323.908 436.895 324.745 436.288 325.429C435.756 326.037 434.92 326.341 434.007 326.341C433.019 326.341 432.182 326.037 431.65 325.429C431.042 324.745 430.738 323.908 430.738 322.768V311.591C430.738 310.528 431.042 309.614 431.65 308.929C432.183 308.322 433.019 308.017 434.007 308.017C434.92 308.017 435.756 308.322 436.288 308.929C436.896 309.614 437.2 310.527 437.2 311.591V322.768Z" fill="white"/>
<path d="M462.747 308.169C462.292 307.18 461.683 306.344 460.998 305.659C460.238 304.976 459.402 304.443 458.414 304.139C457.425 303.758 456.361 303.606 455.296 303.606C454.155 303.606 453.167 303.758 452.178 304.139C451.19 304.444 450.353 304.976 449.593 305.659C448.833 306.344 448.225 307.18 447.768 308.169C447.388 309.157 447.16 310.298 447.16 311.514V322.767C447.16 324.06 447.388 325.2 447.768 326.189C448.224 327.177 448.832 328.014 449.593 328.697C450.353 329.382 451.19 329.914 452.178 330.218C453.167 330.598 454.155 330.75 455.296 330.75C456.36 330.75 457.424 330.598 458.414 330.218C459.402 329.914 460.239 329.382 460.998 328.697C461.683 328.014 462.292 327.177 462.747 326.189C463.203 325.2 463.355 324.06 463.355 322.767V311.514C463.356 310.299 463.204 309.158 462.747 308.169ZM458.49 322.768C458.49 323.908 458.185 324.745 457.653 325.429C457.046 326.037 456.285 326.341 455.297 326.341C454.309 326.341 453.548 326.037 452.94 325.429C452.332 324.745 452.027 323.908 452.027 322.768V311.591C452.027 310.528 452.332 309.614 452.94 308.929C453.549 308.322 454.309 308.017 455.297 308.017C456.285 308.017 457.046 308.322 457.653 308.929C458.186 309.614 458.49 310.527 458.49 311.591V322.768Z" fill="white"/>
<path d="M67.4424 258.138V260.571H71.0923V272.053H73.8298V260.571H77.4798V258.138H67.4424Z" fill="white"/>
<path d="M89.7969 261.788C89.645 261.332 89.568 260.952 89.3411 260.571C89.1892 260.191 88.8844 259.81 88.5046 259.431C88.0488 258.975 87.5161 258.594 86.9085 258.367C86.2998 258.139 85.6152 257.986 84.8556 257.986C84.0191 257.986 83.3345 258.138 82.7268 258.367C82.1192 258.594 81.5865 258.975 81.1307 259.431C80.7509 259.811 80.4461 260.192 80.2942 260.571C80.0653 260.952 79.9894 261.332 79.8384 261.788C79.7625 262.244 79.7625 262.777 79.6865 263.309V266.882C79.7625 267.414 79.7625 267.87 79.8384 268.327C79.9904 268.783 80.0663 269.24 80.2942 269.619C80.4461 269.924 80.7499 270.304 81.1307 270.684C81.5865 271.14 82.1192 271.52 82.7268 271.748C83.3355 272.053 84.0201 272.129 84.8556 272.129C85.6162 272.129 86.3008 272.053 86.9085 271.748C87.5161 271.52 88.0488 271.14 88.5046 270.684C88.8844 270.304 89.1892 269.923 89.3411 269.619C89.569 269.24 89.645 268.783 89.7969 268.327C89.8728 267.87 89.9488 267.414 89.9488 266.882V263.309C89.9488 262.776 89.8728 262.244 89.7969 261.788ZM87.2113 266.731C87.2113 267.187 87.1354 267.491 87.0594 267.794C87.0594 268.099 86.9834 268.327 86.9075 268.479C86.8315 268.631 86.6786 268.783 86.5267 268.935C86.3748 269.164 86.1469 269.39 85.8431 269.466C85.5392 269.618 85.2344 269.694 84.8546 269.694C84.4748 269.694 84.0951 269.618 83.7902 269.466C83.5624 269.39 83.2575 269.163 83.0307 268.935C82.9547 268.783 82.8018 268.631 82.7258 268.479C82.6499 268.327 82.5739 268.098 82.5739 267.794C82.498 267.49 82.422 267.187 82.422 266.731V263.385C82.422 263.005 82.498 262.624 82.5739 262.32C82.5739 262.016 82.6499 261.788 82.7258 261.637C82.8018 261.485 82.9537 261.332 83.0307 261.18C83.2585 260.952 83.5634 260.8 83.7902 260.648C84.0951 260.496 84.4748 260.42 84.8546 260.42C85.2344 260.42 85.5392 260.496 85.8431 260.648C86.1469 260.8 86.3758 260.953 86.5267 261.18C86.6786 261.332 86.8315 261.485 86.9075 261.637C86.9834 261.788 87.0594 262.017 87.0594 262.32C87.1354 262.625 87.2113 263.005 87.2113 263.385V266.731Z" fill="white"/>
<path d="M102.874 260.799C102.722 260.267 102.419 259.81 101.962 259.43C101.582 258.974 101.125 258.67 100.518 258.442C99.985 258.213 99.3014 258.137 98.6168 258.137H93.2178V272.052H95.9552V266.806H98.6158C99.3004 266.806 99.984 266.654 100.517 266.425C101.125 266.196 101.581 265.892 101.961 265.512C102.418 265.132 102.721 264.676 102.873 264.143C103.102 263.611 103.177 263.004 103.177 262.471C103.178 261.864 103.103 261.332 102.874 260.799ZM99.985 263.841C99.6052 264.145 99.0725 264.373 98.4638 264.373H95.9552V260.571H98.4638C99.0725 260.571 99.6042 260.723 99.985 261.028C100.289 261.408 100.518 261.864 100.518 262.472C100.518 263.005 100.289 263.461 99.985 263.841Z" fill="white"/>
<path d="M115.117 260.571V258.138H105.993V272.053H115.117V269.619H108.73V266.198H114.204V263.765H108.73V260.571H115.117Z" fill="white"/>
<path d="M124.544 269.164C124.164 269.543 123.632 269.695 122.948 269.695C122.568 269.695 122.264 269.619 121.96 269.543C121.656 269.391 121.427 269.239 121.199 269.012C121.123 268.86 120.971 268.708 120.895 268.48C120.819 268.328 120.743 268.099 120.667 267.795C120.667 267.49 120.591 267.188 120.591 266.732C120.591 266.275 120.515 265.742 120.515 265.059C120.515 264.375 120.591 263.842 120.591 263.387C120.591 263.007 120.667 262.626 120.667 262.322C120.743 262.018 120.819 261.79 120.895 261.639C120.971 261.487 121.123 261.258 121.199 261.182C121.427 260.954 121.656 260.726 121.96 260.65C122.264 260.498 122.568 260.422 122.948 260.422C123.632 260.422 124.164 260.574 124.544 260.955C124.925 261.335 125.153 261.791 125.305 262.399H128.042C127.814 260.955 127.206 259.814 126.293 259.13C125.381 258.369 124.24 257.989 122.948 257.989C122.188 257.989 121.427 258.141 120.819 258.37C120.287 258.597 119.679 258.978 119.223 259.434C118.918 259.814 118.615 260.195 118.387 260.574C118.235 260.955 118.083 261.335 118.007 261.791C117.931 262.247 117.855 262.78 117.855 263.312V266.885C117.855 267.417 117.931 267.873 118.007 268.33C118.083 268.786 118.236 269.242 118.387 269.622C118.616 269.927 118.919 270.307 119.223 270.687C119.679 271.143 120.288 271.523 120.819 271.751C121.428 272.056 122.188 272.132 122.948 272.132C124.24 272.132 125.382 271.751 126.293 271.067C127.206 270.307 127.814 269.242 128.042 267.721H125.305C125.153 268.327 124.925 268.783 124.544 269.164Z" fill="white"/>
<path d="M140.665 263.309C140.665 262.777 140.589 262.244 140.513 261.788C140.437 261.332 140.284 260.952 140.057 260.571C139.905 260.191 139.601 259.81 139.296 259.431C138.841 258.975 138.308 258.594 137.7 258.367C137.092 258.139 136.407 257.986 135.571 257.986C134.735 257.986 134.05 258.138 133.443 258.367C132.834 258.594 132.302 258.975 131.846 259.431C131.466 259.811 131.237 260.192 131.009 260.571C130.857 260.952 130.704 261.332 130.629 261.788C130.553 262.244 130.477 262.777 130.477 263.309C130.477 263.841 130.401 264.373 130.401 265.058C130.401 265.741 130.477 266.351 130.477 266.883C130.477 267.415 130.553 267.871 130.629 268.328C130.705 268.784 130.857 269.241 131.009 269.62C131.237 269.925 131.465 270.305 131.846 270.685C132.301 271.141 132.834 271.521 133.443 271.749C134.05 272.054 134.735 272.13 135.571 272.13C136.408 272.13 137.093 272.054 137.7 271.749C138.308 271.521 138.841 271.141 139.296 270.685C139.601 270.305 139.905 269.924 140.057 269.62C140.285 269.241 140.437 268.784 140.513 268.328C140.589 267.871 140.665 267.415 140.665 266.883C140.665 266.351 140.741 265.742 140.741 265.058C140.741 264.373 140.665 263.841 140.665 263.309ZM137.927 266.731C137.927 267.187 137.851 267.491 137.851 267.794C137.775 268.099 137.699 268.327 137.623 268.479C137.547 268.631 137.471 268.783 137.319 268.935C137.091 269.164 136.864 269.39 136.559 269.466C136.255 269.618 135.95 269.694 135.57 269.694C135.191 269.694 134.887 269.618 134.582 269.466C134.278 269.39 134.049 269.163 133.821 268.935C133.67 268.783 133.594 268.631 133.518 268.479C133.366 268.327 133.366 268.098 133.289 267.794C133.213 267.49 133.213 267.187 133.137 266.731V263.385C133.213 263.005 133.213 262.624 133.289 262.32C133.365 262.016 133.365 261.788 133.518 261.637C133.594 261.485 133.67 261.332 133.821 261.18C134.049 260.952 134.277 260.8 134.582 260.648C134.887 260.496 135.191 260.42 135.57 260.42C135.95 260.42 136.255 260.496 136.559 260.648C136.864 260.8 137.092 260.953 137.319 261.18C137.471 261.332 137.547 261.485 137.623 261.637C137.699 261.788 137.775 262.017 137.851 262.32C137.851 262.625 137.927 263.005 137.927 263.385C138.003 263.841 138.003 264.373 138.003 265.057C138.003 265.741 138.003 266.274 137.927 266.731Z" fill="white"/>
<path d="M151.917 258.138V266.654L146.367 258.138H143.934V272.053H146.671V263.461L152.221 272.053H154.654V258.138H151.917Z" fill="white"/>
<path d="M173.283 266.731C173.131 266.35 172.904 265.969 172.599 265.665C172.447 265.514 172.295 265.362 172.143 265.286C171.991 265.134 171.839 265.058 171.535 264.906C172.676 264.221 173.284 263.309 173.284 261.94C173.284 261.332 173.132 260.799 172.981 260.343C172.753 259.887 172.448 259.507 172.068 259.128C171.764 258.899 171.536 258.747 171.156 258.595C171.08 258.519 170.928 258.443 170.776 258.368C170.167 258.216 169.635 258.14 168.951 258.14H163.401V272.055H169.18C169.863 272.055 170.472 271.903 170.929 271.75C171.461 271.522 171.917 271.293 172.297 270.914C172.677 270.61 172.982 270.153 173.133 269.697C173.361 269.241 173.438 268.634 173.438 268.025C173.435 267.566 173.359 267.11 173.283 266.731ZM166.059 260.571H168.721C168.873 260.571 169.026 260.571 169.102 260.647C169.557 260.647 169.785 260.723 170.09 260.952C170.394 261.256 170.546 261.637 170.546 262.168C170.546 262.625 170.394 263.006 170.09 263.309C169.709 263.613 169.33 263.764 168.721 263.764H166.059V260.571ZM170.242 269.163C169.938 269.467 169.481 269.619 168.95 269.619H166.06V266.198H168.95C169.482 266.198 169.938 266.35 170.242 266.655C170.547 266.959 170.775 267.34 170.775 267.871C170.774 268.403 170.546 268.859 170.242 269.163Z" fill="white"/>
<path d="M182.407 258.138H180.278L175.184 272.053H177.998L178.834 269.543H183.776L184.613 272.053H187.426L182.407 258.138ZM179.594 267.263L181.419 262.244L183.092 267.263H179.594Z" fill="white"/>
<path d="M197.615 258.138V266.654L192.064 258.138H189.707V272.053H192.369V263.461L197.919 272.053H200.353V258.138H197.615Z" fill="white"/>
<path d="M210.388 263.612L214.95 258.138H211.68L206.738 264.144V258.138H204.077V272.053H206.738V267.87L208.563 265.664L212.136 272.052H215.329L210.388 263.612Z" fill="white"/>
<path d="M355.615 171.002C355.235 171.383 354.702 171.535 354.018 171.535C353.638 171.535 353.334 171.459 353.03 171.306C352.725 171.23 352.497 171.001 352.269 170.85C352.194 170.698 352.042 170.545 351.966 170.318C351.89 170.166 351.814 169.937 351.738 169.634C351.738 169.329 351.662 168.95 351.662 168.569C351.662 168.113 351.586 167.581 351.586 166.897C351.586 166.212 351.662 165.68 351.662 165.224C351.662 164.767 351.738 164.463 351.738 164.16C351.814 163.855 351.89 163.628 351.966 163.476C352.042 163.248 352.194 163.095 352.269 162.943C352.497 162.716 352.725 162.563 353.03 162.411C353.334 162.335 353.638 162.26 354.018 162.26C354.702 162.26 355.235 162.411 355.615 162.792C355.994 163.172 356.223 163.629 356.375 164.236H359.113C358.884 162.716 358.276 161.652 357.364 160.891C356.451 160.207 355.311 159.827 354.018 159.827C353.258 159.827 352.497 159.979 351.966 160.207C351.357 160.435 350.825 160.815 350.293 161.271C349.989 161.652 349.685 162.031 349.532 162.411C349.304 162.716 349.152 163.171 349.076 163.628C349 164.084 348.924 164.54 348.924 165.072V168.722C348.924 169.254 349 169.711 349.076 170.167C349.152 170.623 349.304 171.003 349.532 171.383C349.684 171.764 349.989 172.144 350.293 172.523C350.825 172.979 351.357 173.36 351.966 173.588C352.498 173.816 353.258 173.968 354.018 173.968C355.311 173.968 356.451 173.588 357.364 172.827C358.276 172.144 358.884 171.002 359.113 169.558H356.375C356.223 170.166 355.994 170.622 355.615 171.002Z" fill="white"/>
<path d="M369.377 167.809C369.757 167.733 370.061 167.581 370.365 167.353C370.67 167.124 370.974 166.896 371.202 166.592C371.43 166.287 371.583 165.909 371.734 165.528C371.81 165.299 371.886 164.995 371.886 164.691C371.962 164.539 371.962 164.31 371.962 164.16C371.962 163.627 371.81 163.018 371.658 162.562C371.43 162.031 371.126 161.574 370.745 161.193C370.365 160.813 369.909 160.51 369.301 160.282C368.997 160.13 368.769 160.053 368.388 159.977H368.312C368.009 159.901 367.705 159.901 367.4 159.901H362.002V173.815H364.663V168.265H366.64L369.378 173.815H372.495L369.377 167.809ZM368.693 165.528C368.312 165.833 367.857 166.06 367.249 166.06H364.663V162.334H367.249C367.857 162.334 368.313 162.485 368.693 162.865C369.073 163.17 369.226 163.627 369.226 164.16C369.225 164.767 369.073 165.148 368.693 165.528Z" fill="white"/>
<path d="M384.433 162.335V159.902H375.232V173.816H384.433V171.383H377.969V168.037H383.444V165.605H377.969V162.335H384.433Z" fill="white"/>
<path d="M397.586 164.387C397.586 164.235 397.51 164.084 397.51 164.008C397.51 163.627 397.358 163.247 397.282 162.942C397.13 162.562 396.978 162.259 396.75 161.955C396.294 161.27 395.685 160.738 395.001 160.434C394.317 160.13 393.556 159.902 392.567 159.902H387.549V173.816H392.567C393.555 173.816 394.316 173.665 395.001 173.36C395.381 173.208 395.685 172.98 395.989 172.752C396.294 172.523 396.522 172.22 396.75 171.839C396.978 171.535 397.129 171.232 397.282 170.851C397.358 170.546 397.51 170.167 397.51 169.787C397.586 169.407 397.586 168.95 397.662 168.494V165.3C397.586 164.995 397.586 164.692 397.586 164.387ZM394.925 168.341C394.925 168.721 394.849 169.025 394.849 169.33C394.773 169.634 394.773 169.862 394.697 170.013C394.621 170.241 394.468 170.394 394.393 170.545C393.937 171.154 393.253 171.382 392.34 171.382H390.287V162.333H392.34C393.253 162.333 393.937 162.638 394.393 163.246C394.469 163.398 394.621 163.551 394.697 163.779C394.773 163.931 394.773 164.159 394.849 164.462C394.849 164.766 394.925 165.07 394.925 165.451V168.341Z" fill="white"/>
<path d="M400.931 159.902V173.816H403.593V159.902H400.931Z" fill="white"/>
<path d="M406.33 159.902V162.335H409.98V173.816H412.642V162.335H416.291V159.902H406.33Z" fill="white"/>
<path d="M430.281 171.002C429.901 171.383 429.368 171.535 428.683 171.535C428.304 171.535 428 171.459 427.695 171.306C427.39 171.23 427.162 171.001 426.934 170.85C426.859 170.698 426.707 170.545 426.631 170.318C426.555 170.166 426.479 169.937 426.403 169.634C426.403 169.329 426.327 168.95 426.327 168.569C426.251 168.113 426.251 167.581 426.251 166.897C426.251 166.212 426.251 165.68 426.327 165.224C426.327 164.767 426.403 164.463 426.403 164.16C426.479 163.855 426.555 163.628 426.631 163.476C426.707 163.248 426.859 163.095 426.934 162.943C427.162 162.716 427.39 162.563 427.695 162.411C427.999 162.335 428.303 162.26 428.683 162.26C429.368 162.26 429.9 162.411 430.281 162.792C430.66 163.172 430.889 163.629 431.041 164.236H433.779C433.551 162.716 432.942 161.652 432.03 160.891C431.117 160.207 429.977 159.827 428.685 159.827C427.924 159.827 427.164 159.979 426.556 160.207C426.023 160.435 425.415 160.815 424.959 161.271C424.579 161.652 424.351 162.031 424.122 162.411C423.97 162.716 423.818 163.171 423.742 163.628C423.666 164.084 423.59 164.54 423.59 165.072V168.722C423.59 169.254 423.666 169.711 423.742 170.167C423.818 170.623 423.97 171.003 424.122 171.383C424.35 171.764 424.578 172.144 424.959 172.523C425.414 172.979 426.023 173.36 426.556 173.588C427.164 173.816 427.924 173.968 428.685 173.968C429.978 173.968 431.118 173.588 432.03 172.827C432.942 172.144 433.551 171.002 433.779 169.558H431.041C430.889 170.166 430.66 170.622 430.281 171.002Z" fill="white"/>
<path d="M442.294 159.902H440.165L435.071 173.816H437.96L438.797 171.383H443.739L444.575 173.816H447.389L442.294 159.902ZM439.557 169.102L441.306 164.008L442.978 169.102H439.557Z" fill="white"/>
<path d="M456.969 167.809C457.349 167.733 457.653 167.581 457.958 167.353C458.261 167.124 458.566 166.896 458.794 166.592C459.022 166.287 459.174 165.909 459.327 165.528C459.479 165.147 459.555 164.691 459.555 164.16C459.555 163.627 459.479 163.018 459.251 162.562C459.023 162.031 458.718 161.574 458.338 161.193C457.959 160.813 457.502 160.51 456.894 160.282C456.361 160.053 455.754 159.901 455.069 159.901H449.594V173.815H452.332V168.265H454.233L456.97 173.815H460.087L456.969 167.809ZM456.285 165.528C455.905 165.833 455.448 166.06 454.84 166.06H452.332V162.334H454.84C455.449 162.334 455.905 162.485 456.285 162.865C456.665 163.17 456.817 163.627 456.817 164.16C456.817 164.767 456.665 165.148 456.285 165.528Z" fill="white"/>
<path d="M472.86 164.008C472.784 163.627 472.708 163.247 472.556 162.942C472.48 162.562 472.252 162.259 472.1 161.955C471.567 161.27 470.96 160.738 470.275 160.434C469.666 160.13 468.831 159.902 467.842 159.902H462.824V173.816H467.842C468.831 173.816 469.667 173.665 470.275 173.36C470.959 173.056 471.567 172.523 472.1 171.839C472.252 171.535 472.48 171.232 472.556 170.851C472.708 170.546 472.784 170.167 472.86 169.787C472.86 169.407 472.936 168.95 472.936 168.494V165.3C472.936 164.843 472.86 164.387 472.86 164.008ZM470.199 168.341C470.199 168.721 470.199 169.025 470.123 169.33C470.123 169.634 470.047 169.862 469.971 170.013C469.895 170.241 469.819 170.394 469.666 170.545C469.211 171.154 468.526 171.382 467.614 171.382H465.561V162.333H467.614C468.526 162.333 469.21 162.638 469.666 163.246C469.818 163.398 469.894 163.551 469.971 163.779C470.047 163.931 470.123 164.159 470.123 164.462C470.199 164.766 470.199 165.07 470.199 165.451V168.341Z" fill="white"/>
<path d="M474.357 33.8983V87.4874C474.357 89.6442 472.593 91.4082 470.436 91.4082H404.43C402.273 91.4082 400.509 89.6442 400.509 87.4874V33.8983C400.509 31.7416 402.273 29.9775 404.43 29.9775H470.436C472.592 29.9765 474.357 31.7416 474.357 33.8983Z" fill="#F7D072"/>
<path opacity="0.2" d="M459.858 42.9601L471.339 31.4785H467.614L457.729 41.439L456.209 42.9601L455.069 44.0245L447.237 51.8561H430.205L428.684 50.335L422.374 44.0245L419.864 41.439L409.904 31.4785H406.178L416.062 41.439L417.583 42.9601H401.844V45.5447H420.244L425.11 50.4869L426.403 51.8561V54.8964H401.843V57.5579H426.403V66.9097H401.843V69.4943H426.403V72.6115H426.554L421.764 77.3269L420.243 78.848H401.843V81.5096H417.582L407.698 91.394H411.424L421.308 81.5096L430.204 72.6145H447.236L466.093 91.395H469.742L459.858 81.5106H474.38V78.849H457.272L451.038 72.6145V69.4973H474.381V66.9127H451.038V57.5609H474.381V54.8994H451.038V51.8591L457.272 45.5477H474.38V42.9631H459.858V42.9601ZM448.453 69.952H428.988V54.4417H448.453V69.952Z" fill="white"/>
<path d="M428.913 50.335L431.498 52.9195H443.36L444.424 51.8561L445.945 50.335H428.913ZM428.913 50.335L431.498 52.9195H443.36L444.424 51.8561L445.945 50.335H428.913ZM428.913 50.335L431.498 52.9195H443.36L444.424 51.8561L445.945 50.335H428.913ZM428.913 50.335L431.498 52.9195H443.36L444.424 51.8561L445.945 50.335H428.913ZM444.88 69.952L443.36 68.4319H431.498L430.054 69.952H429.978L428.914 71.0924H445.945L444.88 69.952ZM428.913 50.335L431.498 52.9195H443.36L444.424 51.8561L445.945 50.335H428.913ZM425.111 50.335V71.0924H449.746V50.335H425.111ZM447.161 68.4319H427.695V52.9205H447.161V68.4319ZM428.913 50.335L431.498 52.9195H443.36L444.424 51.8561L445.945 50.335H428.913ZM428.913 50.335L431.498 52.9195H443.36L444.424 51.8561L445.945 50.335H428.913ZM428.913 50.335L431.498 52.9195H443.36L444.424 51.8561L445.945 50.335H428.913ZM428.913 50.335L431.498 52.9195H443.36L444.424 51.8561L445.945 50.335H428.913ZM428.913 50.335L431.498 52.9195H443.36L444.424 51.8561L445.945 50.335H428.913ZM428.913 50.335L431.498 52.9195H443.36L444.424 51.8561L445.945 50.335H428.913Z" fill="black"/>
<path d="M419.999 41.4131L422.614 44.0276H400.508V41.4131H419.999Z" fill="black"/>
<path d="M474.357 41.4131V44.0276H452.251L454.865 41.4131H474.357Z" fill="black"/>
<path d="M427.711 53.395H400.508V56.0096H427.711V53.395Z" fill="black"/>
<path d="M474.356 53.395H447.153V56.0096H474.356V53.395Z" fill="black"/>
<path d="M427.711 65.3784H400.508V67.993H427.711V65.3784Z" fill="black"/>
<path d="M474.356 65.3784H447.153V67.993H474.356V65.3784Z" fill="black"/>
<path d="M422.617 77.3564L420.002 79.971H400.508V77.3564H422.617Z" fill="black"/>
<path d="M474.357 77.3564V79.971H454.862L452.248 77.3564H474.357Z" fill="black"/>
<path d="M431.521 68.4531L408.566 91.4083H404.871L427.826 68.4531H431.521Z" fill="black"/>
<path d="M469.997 29.9766L447.042 52.9317H443.347L466.302 29.9766H469.997Z" fill="black"/>
<path d="M431.518 52.9317H427.822L404.867 29.9766H408.563L431.518 52.9317Z" fill="black"/>
<path d="M469.994 91.4083H466.298L445.958 71.0677L444.869 69.9793L443.343 68.4531H447.039L448.46 69.8743L449.654 71.0677L451.075 72.4889L455.943 77.3572L457.469 78.8833L458.558 79.9717L460.084 81.4978L469.994 91.4083Z" fill="black"/>
<path d="M78.975 53.395C78.975 45.2136 82.3491 37.8237 87.776 32.5287C82.521 27.4015 75.341 24.2373 67.4194 24.2373C51.3154 24.2373 38.2617 37.292 38.2617 53.395C38.2617 69.499 51.3164 82.5527 67.4194 82.5527C75.342 82.5527 82.522 79.3885 87.776 74.2614C82.3491 68.9673 78.975 61.5764 78.975 53.395Z" fill="#DC3B39"/>
<path d="M108.133 24.2373C100.21 24.2373 93.0314 27.4015 87.7764 32.5287C93.2033 37.8237 96.5774 45.2136 96.5774 53.395C96.5774 61.5764 93.2033 68.9663 87.7764 74.2614C93.0314 79.3885 100.211 82.5527 108.133 82.5527C124.237 82.5527 137.291 69.498 137.291 53.395C137.291 37.292 124.236 24.2373 108.133 24.2373Z" fill="#E6AB2D"/>
<path d="M96.5773 53.3951C96.5773 45.2137 93.2031 37.8238 87.7762 32.5288C82.3492 37.8238 78.9751 45.2137 78.9751 53.3951C78.9751 61.5766 82.3492 68.9664 87.7762 74.2615C93.2031 68.9674 96.5773 61.5766 96.5773 53.3951Z" fill="#D67261"/>
<path d="M96.5775 53.3942C96.5775 52.7786 96.5525 52.1689 96.5145 51.5623L83.214 38.2627C82.2395 39.8628 81.413 41.5628 80.7573 43.3469L96.0888 58.6783C96.4036 56.9632 96.5775 55.2002 96.5775 53.3942Z" fill="#E6AB2D"/>
<path d="M79.2719 49.27C79.081 50.6183 78.9751 51.9945 78.9751 53.3947C78.9751 54.5141 79.0441 55.6175 79.167 56.7039L91.8129 69.3498C92.8304 67.7997 93.7029 66.1476 94.4135 64.4106L79.2719 49.27Z" fill="#E6AB2D"/>
<path opacity="0.2" d="M511.714 185.981H0V192.368H511.714V185.981Z" fill="#040000"/>
<path opacity="0.2" d="M511.714 16.2719V331.361C511.714 340.333 504.338 347.708 495.366 347.708H82.041L163.399 266.351L166.059 263.69L169.1 260.649L171.153 258.597L213.505 216.244L215.709 214.039V213.963L217.154 212.594L217.305 212.442L223.769 205.904L225.822 203.927L237.379 192.37L243.767 185.982L312.121 117.627L334.095 95.6546L428.379 1.29428L429.672 0H495.366C504.338 0 511.714 7.29892 511.714 16.2719Z" fill="#040000"/>
<defs>
<linearGradient id="paint0_linear_1951_1018" x1="255.857" y1="1.29218" x2="255.857" y2="349" gradientUnits="userSpaceOnUse">
<stop/>
<stop offset="1" stop-color="#005D7C"/>
</linearGradient>
</defs>
</svg>
