<svg width="34" height="34" viewBox="0 0 34 34" fill="none" xmlns="http://www.w3.org/2000/svg">
<g clip-path="url(#clip0_274_212)">
<path d="M0.526901 25.1438L21.0515 30.6431L26.5506 10.1191L6.02603 4.6198L0.526901 25.1438Z" fill="white"/>
<path d="M17.3519 14.3453L15.8007 14.6628L14.6158 13.6127L13.0636 13.9302L11.8787 12.8792L13.6176 6.63184L19.091 8.09899L17.3519 14.3453Z" fill="#B1B1B1"/>
<path d="M34.0001 0.708131C34.0001 0.316922 33.6826 0.000488281 33.2914 0.000488281C33.1368 0.000488281 32.9936 0.0502942 32.8774 0.134367H32.8764L26.5304 4.7205L20.8713 25.8433L22.2399 26.2096L27.7693 5.57344L33.7063 1.28302V1.28196C33.8838 1.15326 34.0001 0.944676 34.0001 0.708131Z" fill="#B1B1B1"/>
<path d="M0.891481 23.7755C0.513753 23.6749 0.125731 23.899 0.0240607 24.2767C-0.0765473 24.6544 0.147513 25.0435 0.525241 25.1441C0.526304 25.1451 0.5273 25.1451 0.5273 25.1451L20.3681 30.4327L20.7323 29.0641L0.891481 23.7755Z" fill="#B1B1B1"/>
<path d="M16.4284 28.6481C15.8213 30.9153 17.1671 33.2456 19.4343 33.8537C21.7014 34.4608 24.0319 33.116 24.6389 30.8489C25.2469 28.5817 23.9012 26.2514 21.634 25.6433C19.3669 25.0363 17.0363 26.3811 16.4284 28.6481Z" fill="#79808B"/>
<path d="M21.9182 30.1433C21.7159 30.8987 20.9387 31.348 20.1834 31.1446C19.428 30.9422 18.9798 30.1661 19.1821 29.4107C19.3845 28.6543 20.1616 28.2061 20.917 28.4084C21.6722 28.6107 22.1205 29.3879 21.9182 30.1433Z" fill="#E6E9ED"/>
</g>
<defs>
<clipPath id="clip0_274_212">
<rect width="34" height="34" fill="white"/>
</clipPath>
</defs>
</svg>
