<svg width="26" height="29" viewBox="0 0 26 29" fill="none" xmlns="http://www.w3.org/2000/svg">
<path d="M1.54688 4.80078V9.6994H23.9736V4.80078H22.3303V5.64982C22.3303 6.96445 21.3073 8.03388 20.0103 8.03388H19.978C18.681 8.03388 17.5936 6.9644 17.5936 5.64982V4.80078H15.0802V5.64982C15.0802 6.96445 14.0572 8.03388 12.7602 8.03388H12.7279C11.4309 8.03388 10.3434 6.9644 10.3434 5.64982V4.80078H7.92678V5.64982C7.92678 6.96445 6.90374 8.03388 5.60675 8.03388H5.57444C4.27745 8.03388 3.19003 6.9644 3.19003 5.64982V4.80078H1.54688Z" fill="#326A3C"/>
<path d="M24.0379 3.2331H22.3302V2.38406C22.3301 1.06949 21.3071 0 20.0101 0H19.9778C18.6809 0 17.5934 1.06949 17.5934 2.38406V3.2331H15.0801V2.38406C15.0801 1.06949 14.0571 0 12.7601 0H12.7278C11.4308 0 10.3434 1.06949 10.3434 2.38406V3.2331H7.92671V2.38406C7.92677 1.06949 6.90373 0 5.60673 0H5.57443C4.27743 0 3.19001 1.06949 3.19001 2.38406V3.2331H1.54669C0.692424 3.2331 0 3.96751 0 4.83331V9.6971V27.3997C0 28.2655 0.692424 29 1.54669 29H24.0378C24.8921 29 25.5201 28.2655 25.5201 27.3997V9.69705V4.83331C25.5201 3.96751 24.8921 3.2331 24.0379 3.2331ZM6.38008 5.64973C6.38008 6.10071 6.01939 6.46626 5.57454 6.46626H5.54224C5.09739 6.46626 4.7367 6.10071 4.7367 5.64973V2.38406C4.7367 1.93309 5.09739 1.56753 5.54224 1.56753H5.57454C6.01939 1.56753 6.38008 1.93309 6.38008 2.38406V5.64973ZM5.57443 8.03379H5.60673C6.90373 8.03379 7.92677 6.9643 7.92677 5.64973V4.80069H10.3434V5.64973C10.3434 6.96436 11.4309 8.03379 12.7279 8.03379H12.7601C14.0571 8.03379 15.0801 6.9643 15.0801 5.64973V4.80069H17.5935V5.64973C17.5935 6.96436 18.6809 8.03379 19.9779 8.03379H20.0102C21.3072 8.03379 22.3302 6.9643 22.3302 5.64973V4.80069H23.9736V9.69931H1.54669V4.80069H3.19001V5.64973C3.19007 6.9643 4.27743 8.03379 5.57443 8.03379ZM13.5334 5.64973C13.5334 6.10071 13.1728 6.46626 12.7279 6.46626H12.6956C12.2508 6.46626 11.8901 6.10071 11.8901 5.64973V2.38406C11.8901 1.93309 12.2508 1.56753 12.6956 1.56753H12.7279C13.1728 1.56753 13.5334 1.93309 13.5334 2.38406V5.64973ZM20.7835 5.64973C20.7835 6.10071 20.4228 6.46626 19.978 6.46626H19.9457C19.5008 6.46626 19.1401 6.10071 19.1401 5.64973V2.38406C19.1401 1.93309 19.5008 1.56753 19.9457 1.56753H19.978C20.4228 1.56753 20.7835 1.93309 20.7835 2.38406V5.64973ZM1.54669 11.2669H23.9734V27.4324H1.54669V11.2669Z" fill="#DAFF99" fill-opacity="0.721569"/>
<path d="M13.534 2.38416C13.534 1.93319 13.1733 1.56763 12.7285 1.56763H12.6962C12.2513 1.56763 11.8906 1.93319 11.8906 2.38416V5.64977C11.8906 6.10075 12.2513 6.4663 12.6962 6.4663H12.7285C13.1733 6.4663 13.534 6.10075 13.534 5.64977V2.38416Z" fill="#21872F"/>
<path d="M20.782 2.38416C20.782 1.93319 20.4214 1.56763 19.9765 1.56763H19.9442C19.4994 1.56763 19.1387 1.93319 19.1387 2.38416V5.64977C19.1387 6.10075 19.4994 6.4663 19.9442 6.4663H19.9765C20.4214 6.4663 20.782 6.10075 20.782 5.64977V2.38416Z" fill="#21872F"/>
<path d="M6.3797 2.38416C6.3797 1.93319 6.01902 1.56763 5.57417 1.56763H5.54186C5.09701 1.56763 4.73633 1.93319 4.73633 2.38416V5.64977C4.73633 6.10075 5.09701 6.4663 5.54186 6.4663H5.57417C6.01902 6.4663 6.3797 6.10075 6.3797 5.64977V2.38416Z" fill="#21872F"/>
<rect x="2.28906" y="12.76" width="20.6017" height="13.92" fill="#326A3C"/>
</svg>
