<svg width="17" height="17" viewBox="0 0 17 17" fill="none" xmlns="http://www.w3.org/2000/svg">
<path d="M8.98294 12.4284C8.85906 12.5639 8.68401 12.641 8.50041 12.641C8.31681 12.641 8.14175 12.5639 8.01787 12.4284L4.53067 8.61429C4.287 8.34778 4.30552 7.93421 4.57203 7.69054C4.83854 7.44687 5.25212 7.46535 5.49578 7.73186L7.84656 10.303V0.653846C7.84656 0.29274 8.13931 0 8.50041 0C8.8615 0 9.15425 0.29274 9.15425 0.653846V10.303L11.505 7.73186C11.7487 7.46535 12.1623 7.44687 12.4288 7.69054C12.6953 7.93421 12.7138 8.34778 12.4701 8.61429L8.98294 12.4284Z" fill="#1C274C"/>
<path d="M1.30769 11.1158C1.30769 10.7547 1.01496 10.4619 0.653847 10.4619C0.29274 10.4619 4.56779e-07 10.7547 4.56779e-07 11.1158V11.1636C-1.69791e-05 12.3559 -3.44775e-05 13.3169 0.101582 14.0727C0.207087 14.8574 0.432786 15.5181 0.957536 16.0428C1.48229 16.5676 2.14299 16.7933 2.92771 16.8988C3.68353 17.0004 4.64452 17.0004 5.83678 17.0004H11.1632C12.3555 17.0004 13.3165 17.0004 14.0723 16.8988C14.857 16.7933 15.5177 16.5676 16.0425 16.0428C16.5672 15.5181 16.7929 14.8574 16.8984 14.0727C17 13.3169 17 12.3559 17 11.1636V11.1158C17 10.7547 16.7073 10.4619 16.3462 10.4619C15.9851 10.4619 15.6923 10.7547 15.6923 11.1158C15.6923 12.3671 15.6909 13.2399 15.6024 13.8984C15.5164 14.5382 15.3591 14.8769 15.1178 15.1182C14.8765 15.3595 14.5378 15.5168 13.8981 15.6028C13.2395 15.6913 12.3668 15.6927 11.1154 15.6927H5.88462C4.63323 15.6927 3.76046 15.6913 3.10195 15.6028C2.46225 15.5168 2.12349 15.3595 1.88221 15.1182C1.64094 14.8769 1.48362 14.5382 1.39762 13.8984C1.30908 13.2399 1.30769 12.3671 1.30769 11.1158Z" fill="#1C274C"/>
</svg>
