<svg width="18" height="18" viewBox="0 0 18 18" fill="none" xmlns="http://www.w3.org/2000/svg">
<g clip-path="url(#clip0_274_188)">
<path fill-rule="evenodd" clip-rule="evenodd" d="M15.6358 1.40901C14.7571 0.530332 13.3325 0.530329 12.4538 1.40901L1.83558 12.0272C1.52148 12.3413 1.30738 12.7414 1.22027 13.1769L0.779963 15.3784C0.570047 16.428 1.49543 17.3534 2.54501 17.1435L4.74651 16.7032C5.18209 16.6161 5.58214 16.402 5.89624 16.0879L16.5144 5.46967C17.3931 4.59099 17.3931 3.16637 16.5144 2.28769L15.6358 1.40901ZM13.5144 2.46967C13.8074 2.17678 14.2822 2.17678 14.5751 2.46967L15.4538 3.34835C15.7467 3.64124 15.7467 4.11611 15.4538 4.40901L13.4501 6.4127L11.5108 4.47336L13.5144 2.46967ZM10.4501 5.53402L2.89624 13.0879C2.79154 13.1926 2.72018 13.3259 2.69114 13.4711L2.25083 15.6726L4.45234 15.2323C4.59753 15.2032 4.73088 15.1319 4.83558 15.0272L12.3894 7.47336L10.4501 5.53402Z" fill="white"/>
</g>
<defs>
<clipPath id="clip0_274_188">
<rect width="18" height="18" fill="white"/>
</clipPath>
</defs>
</svg>
