<svg width="21" height="16" viewBox="0 0 21 16" fill="none" xmlns="http://www.w3.org/2000/svg">
<path d="M18.0845 0H2.91551C1.3054 0 0 1.3054 0 2.91551V12.5125C0 14.1226 1.3054 15.428 2.91551 15.428H18.0845C19.6946 15.428 21 14.1226 21 12.5125V2.91551C21 1.3054 19.6946 0 18.0845 0ZM7.30759 10.4096L3.22489 13.8926C2.93692 14.1384 2.504 14.1042 2.25828 13.8159C2.01251 13.528 2.04668 13.0951 2.33498 12.8493L6.41767 9.36629C6.7056 9.12052 7.13848 9.15469 7.38425 9.44299C7.63001 9.73092 7.59585 10.1638 7.30759 10.4096ZM10.5 9.08541C9.95392 9.08406 9.42457 8.90261 9.01072 8.5447L9.01105 8.54503L9.00974 8.54405C9.01007 8.54437 9.01044 8.54437 9.01072 8.5447L2.74649 3.10771C2.4602 2.85924 2.42972 2.42636 2.67783 2.14044C2.92626 1.85415 3.35918 1.82368 3.64506 2.07178L9.91106 7.51013C10.045 7.62932 10.2656 7.71537 10.5 7.71401C10.734 7.71471 10.951 7.631 11.0923 7.50779L11.0953 7.50512L17.3549 2.07182C17.6408 1.82372 18.0737 1.85419 18.3222 2.14048C18.5702 2.42636 18.5398 2.85928 18.2535 3.10775L11.9876 8.54638C11.5751 8.90055 11.0464 9.08471 10.5 9.08541ZM18.742 13.8159C18.4962 14.1042 18.0633 14.1384 17.7754 13.8926L13.6927 10.4096C13.4045 10.1638 13.3703 9.73092 13.6161 9.44299C13.8618 9.15469 14.2947 9.12056 14.5827 9.36629L18.6653 12.8493C18.9536 13.0951 18.9878 13.528 18.742 13.8159Z" fill="#DAFF99"/>
</svg>
