<svg width="19" height="14" viewBox="0 0 19 14" fill="none" xmlns="http://www.w3.org/2000/svg">
<path d="M1.48279 1L17.5168 13M7.57955 5.60909C7.11399 5.96907 6.82748 6.45947 6.82748 7C6.82748 8.1046 8.02396 9 9.49981 9C10.2325 9 10.8963 8.77933 11.379 8.422M4.60053 3.43143C2.90867 4.26689 1.62 5.52263 1 7C2.13508 9.70473 5.51141 11.6667 9.49999 11.6667C11.2717 11.6667 12.9225 11.2796 14.3098 10.6123M8.60903 2.36626C8.90209 2.34449 9.19935 2.33333 9.49999 2.33333C13.4886 2.33333 16.865 4.29527 18 7C17.75 7.596 17.391 8.15587 16.9407 8.66667" stroke="#DAFF99" stroke-width="2" stroke-linecap="round" stroke-linejoin="round"/>
</svg>
