<svg width="30" height="30" viewBox="0 0 30 30" fill="none" xmlns="http://www.w3.org/2000/svg">
<path d="M26.25 7.5H23.75M26.25 15H20M26.25 22.5H20M8.75 25V16.9515C8.75 16.6915 8.75 16.5615 8.72448 16.4371C8.70184 16.3269 8.66439 16.2201 8.61315 16.1197C8.55539 16.0067 8.47418 15.9053 8.31174 15.7021L4.18826 10.5478C4.02583 10.3448 3.94461 10.2433 3.88685 10.1302C3.83561 10.0299 3.79816 9.92315 3.77553 9.81282C3.75 9.68847 3.75 9.55846 3.75 9.29844V7C3.75 6.29994 3.75 5.9499 3.88624 5.68251C4.00609 5.44731 4.19731 5.25609 4.43251 5.13624C4.6999 5 5.04994 5 5.75 5H16.75C17.4501 5 17.8001 5 18.0675 5.13624C18.3028 5.25609 18.4939 5.44731 18.6138 5.68251C18.75 5.9499 18.75 6.29994 18.75 7V9.29844C18.75 9.55846 18.75 9.68847 18.7245 9.81282C18.7019 9.92315 18.6644 10.0299 18.6131 10.1302C18.5554 10.2433 18.4741 10.3448 18.3118 10.5478L14.1883 15.7021C14.0259 15.9053 13.9446 16.0067 13.8869 16.1197C13.8356 16.2201 13.7981 16.3269 13.7755 16.4371C13.75 16.5615 13.75 16.6915 13.75 16.9515V21.25L8.75 25Z" stroke="#DAFF99" stroke-width="2" stroke-linecap="round" stroke-linejoin="round"/>
</svg>
