<svg width="26" height="22" viewBox="0 0 26 22" fill="none" xmlns="http://www.w3.org/2000/svg">
<path d="M22.2406 1H3.7594C2.23543 1 1 2.22562 1 3.7375V18.2625C1 19.7744 2.23543 21 3.7594 21H22.2406C23.7646 21 25 19.7744 25 18.2625V3.7375C25 2.22562 23.7646 1 22.2406 1Z" stroke="#DAFF99" stroke-width="1.75" stroke-linejoin="round"/>
<path d="M17.235 8.20001C18.0147 8.20001 18.6468 7.30458 18.6468 6.20001C18.6468 5.09544 18.0147 4.20001 17.235 4.20001C16.4553 4.20001 15.8232 5.09544 15.8232 6.20001C15.8232 7.30458 16.4553 8.20001 17.235 8.20001Z" stroke="#DAFF99" stroke-width="1.75" stroke-miterlimit="10"/>
<path d="M15.8235 15.8829L10.5752 9.64467C10.2397 9.2472 9.79095 9.01714 9.31951 9.00092C8.84806 8.9847 8.38904 9.18354 8.03508 9.5573L1 17" stroke="#DAFF99" stroke-width="1.75" stroke-linecap="round" stroke-linejoin="round"/>
<path d="M10.8828 21L18.1377 14.3075C18.4715 14.0016 18.9155 13.8214 19.3839 13.8018C19.8523 13.7821 20.3119 13.9244 20.6741 14.2012L25.0005 17.5273" stroke="#DAFF99" stroke-width="1.75" stroke-linecap="round" stroke-linejoin="round"/>
</svg>
