<svg width="29" height="29" viewBox="0 0 29 29" fill="none" xmlns="http://www.w3.org/2000/svg">
<g clip-path="url(#clip0_757_1032)">
<path d="M0 17.7742V21.6097C0 23.2 1.2629 24.3226 2.80645 24.3226H26.1935C27.7371 24.3226 29 23.2 29 21.6097V17.7742H0Z" fill="#359846"/>
<path d="M26.1935 4.67743H2.80645C1.2629 4.67743 0 5.80001 0 7.39033V11.2258H29V7.39033C29 5.80001 27.7371 4.67743 26.1935 4.67743Z" fill="#EA8634"/>
<path d="M29 11.2258H0V17.7742H29V11.2258Z" fill="#FCFBF0"/>
<path d="M26.0997 24.3226C27.6432 24.3226 28.9997 23.2 28.9997 21.6097V17.7742H18.4287L26.0997 24.3226Z" fill="#21872F"/>
<path d="M26.1937 4.67743H2.80664L10.5712 11.2258H29.0002V7.39033C29.0002 5.80001 27.7373 4.67743 26.1937 4.67743Z" fill="#E27423"/>
<path d="M18.476 17.7742H29.0002V11.2258H10.5244L18.476 17.7742Z" fill="#F7F4E2"/>
<path d="M26.1937 4.67743H2.80664L24.4631 11.2258H29.0002V7.39033C29.0002 5.80001 27.7373 4.67743 26.1937 4.67743Z" fill="#D86619"/>
<path d="M29.0005 12.5355V11.2258H24.2295L29.0005 12.5355Z" fill="#F2E9C2"/>
<path d="M29 21.5629C29 23.2468 27.7371 24.3226 26.1935 24.3226H2.80645C1.2629 24.3226 0 23.1064 0 21.5161" fill="#167A20"/>
<path d="M14.5005 11.5532C12.8634 11.5532 11.5537 12.8629 11.5537 14.5C11.5537 16.1371 12.8634 17.4468 14.5005 17.4468C16.1376 17.4468 17.4473 16.1371 17.4473 14.5C17.4473 12.8629 16.1376 11.5532 14.5005 11.5532ZM16.9327 14.8274C16.9327 14.8742 16.9795 14.9677 17.0263 14.9677C16.9795 15.1081 16.9795 15.2484 16.9327 15.3887C16.886 15.3419 16.7924 15.3887 16.7456 15.4355C16.6989 15.4823 16.7456 15.5758 16.7924 15.6226C16.7456 15.7629 16.6521 15.8564 16.6053 15.9968C16.5585 15.95 16.465 15.95 16.4182 16.0435C16.3715 16.0903 16.3715 16.1839 16.4182 16.2306C16.3715 16.2774 16.3247 16.3242 16.2779 16.371L15.2489 15.2016L14.8279 14.8742L14.8747 14.8274L15.2956 15.1548L16.6521 15.8564L15.436 14.921L14.9682 14.7339C14.9682 14.6871 14.9682 14.6871 15.015 14.6403L15.4827 14.8274L16.9795 15.1548L15.5295 14.6871L15.015 14.5935C15.015 14.5468 15.015 14.5468 15.015 14.5L15.5295 14.5468L17.0731 14.4532L15.5295 14.3597L15.015 14.4064C15.015 14.3597 15.015 14.3597 15.015 14.3129L15.5295 14.2194L16.9795 13.7516L15.4827 14.079L15.015 14.2661C15.015 14.2194 15.015 14.2194 14.9682 14.1726L15.436 13.9855L16.7456 13.1435L15.3892 13.8452L14.9682 14.1726L14.9215 14.1258L15.3424 13.7984L16.3715 12.629C16.4182 12.6758 16.465 12.7226 16.5118 12.7694C16.465 12.8161 16.465 12.9097 16.5118 12.9564C16.5585 13.0032 16.6521 13.0032 16.6989 13.0032C16.7924 13.0968 16.8392 13.2371 16.886 13.3774C16.8392 13.4242 16.7924 13.471 16.8392 13.5645C16.886 13.6113 16.9327 13.6581 17.0263 13.6113C17.0731 13.7516 17.1198 13.8919 17.1198 14.0323C17.0731 14.0323 17.0263 14.1258 17.0263 14.1726C17.0263 14.2194 17.1198 14.3129 17.1666 14.2661C17.1666 14.3129 17.1666 14.4064 17.1666 14.4532C17.1666 14.5 17.1666 14.5935 17.1666 14.6403C16.9795 14.6871 16.9327 14.7339 16.9327 14.8274ZM12.8634 12.5355C12.9102 12.5823 13.0037 12.5823 13.0505 12.5355C13.0973 12.4887 13.0973 12.3952 13.0973 12.3484C13.1908 12.2548 13.3311 12.2081 13.4715 12.1613C13.5182 12.2081 13.565 12.2548 13.6585 12.2081C13.7053 12.1613 13.7521 12.1145 13.7053 12.021C13.8456 11.9742 13.986 11.9274 14.1263 11.9274C14.1263 11.9742 14.2198 12.021 14.2666 12.021C14.3134 12.021 14.4069 11.9274 14.3602 11.8806C14.4069 11.8806 14.5005 11.8806 14.5473 11.8806C14.594 11.8806 14.6876 11.8806 14.7344 11.8806C14.7344 11.9274 14.7811 12.021 14.8279 12.021C14.8747 12.021 14.9682 11.9742 14.9682 11.9274C15.1085 11.9742 15.2489 11.9742 15.3892 12.021C15.3424 12.0677 15.3892 12.1613 15.436 12.2081C15.4827 12.2548 15.5763 12.2081 15.6231 12.1613C15.7634 12.2081 15.8569 12.3016 15.9973 12.3484C15.9505 12.3952 15.9505 12.4887 16.044 12.5355C16.0908 12.5823 16.1844 12.5823 16.2311 12.5355C16.2779 12.5823 16.3247 12.629 16.3715 12.6758L15.2021 13.7048L14.8747 14.1258L14.8279 14.079L15.1553 13.6581L15.8569 12.3016L14.9215 13.5645L14.7344 14.0323C14.6876 14.0323 14.6876 14.0323 14.6408 13.9855L14.8279 13.5177L15.1553 12.021L14.6876 13.471L14.594 13.9855C14.5473 13.9855 14.5473 13.9855 14.5005 13.9855L14.5473 13.471L14.5005 11.9274L14.4069 13.471L14.4537 13.9855C14.4069 13.9855 14.4069 13.9855 14.3602 13.9855L14.2666 13.471L13.7989 12.021L14.1263 13.5177L14.3134 13.9855C14.2666 13.9855 14.2666 13.9855 14.2198 14.0323L14.0327 13.5645L13.1908 12.2548L13.8924 13.6113L14.2198 14.0323L14.1731 14.079L13.8456 13.6581L12.6763 12.629C12.7231 12.629 12.7698 12.5823 12.8634 12.5355ZM12.6763 16.3242C12.6295 16.2774 12.5827 16.2306 12.536 16.1839C12.5827 16.1371 12.5827 16.0435 12.536 15.9968C12.4892 15.95 12.3956 15.95 12.3489 15.95C12.2553 15.8564 12.2085 15.7161 12.1618 15.5758C12.2085 15.529 12.2553 15.4823 12.2085 15.3887C12.1618 15.3419 12.115 15.2952 12.0215 15.3419C11.9747 15.2016 11.9279 15.0613 11.9279 14.921C11.9747 14.921 12.0215 14.8274 12.0215 14.7806C12.0215 14.7339 11.9279 14.6403 11.8811 14.6871C11.8811 14.6403 11.8811 14.5468 11.8811 14.5C11.8811 14.4532 11.8811 14.3597 11.8811 14.3129C11.9279 14.3129 12.0215 14.2661 12.0215 14.2194C12.0215 14.1726 11.9747 14.079 11.9279 14.079C11.9747 13.9387 11.9747 13.7984 12.0215 13.6581C12.0682 13.7048 12.1618 13.6581 12.2085 13.6113C12.2553 13.5645 12.2085 13.471 12.1618 13.4242C12.2085 13.2839 12.3021 13.1903 12.3489 13.05C12.3956 13.0968 12.4892 13.0968 12.536 13.0032C12.5827 12.9097 12.5827 12.8629 12.536 12.8161C12.5827 12.7694 12.6295 12.7226 12.6763 12.6758L13.7053 13.8452L14.1263 14.1726L14.0795 14.2194L13.6585 13.8919L12.3021 13.1903L13.6118 14.0323L14.0795 14.2194C14.0795 14.2661 14.0795 14.2661 14.0327 14.3129L13.565 14.1258L12.0682 13.7984L13.5182 14.2661L14.0327 14.3597C14.0327 14.4064 14.0327 14.4064 14.0327 14.4532L13.5182 14.4064L11.9279 14.5L13.4715 14.5935L13.986 14.5468C13.986 14.5935 13.986 14.5935 13.986 14.6403L13.4715 14.7339L12.0215 15.2016L13.5182 14.8742L13.986 14.6871C13.986 14.7339 13.986 14.7339 14.0327 14.7806L13.565 14.9677L12.2553 15.8097L13.6118 15.1081L14.0327 14.7806L14.0795 14.8274L13.6585 15.1548L12.6763 16.3242ZM14.3134 17.0726C14.3134 17.0258 14.2666 16.9323 14.2198 16.9323C14.1731 16.9323 14.0795 16.979 14.0795 17.0258C13.9392 16.979 13.7989 16.979 13.6585 16.9323C13.7053 16.8855 13.6585 16.7919 13.6118 16.7452C13.565 16.6984 13.4715 16.7452 13.4247 16.7919C13.2844 16.7452 13.1908 16.6516 13.0505 16.6048C13.0973 16.5581 13.0973 16.4645 13.0037 16.4177C12.9569 16.371 12.8634 16.371 12.8166 16.4177C12.7698 16.371 12.7231 16.3242 12.6763 16.2774L13.8456 15.2484L14.1731 14.8274L14.2198 14.8742L13.8924 15.2952L13.1908 16.6516L14.0327 15.3419L14.2198 14.8742C14.2666 14.8742 14.2666 14.8742 14.3134 14.921L14.1263 15.3887L13.7989 16.8855L14.2666 15.4355L14.3602 14.921C14.4069 14.921 14.4069 14.921 14.4537 14.921L14.4069 15.4355L14.5005 16.979L14.594 15.4355L14.5473 14.921C14.594 14.921 14.594 14.921 14.6408 14.921L14.7344 15.4355L15.2021 16.8855L14.8747 15.3887L14.6876 14.921C14.7344 14.921 14.7344 14.921 14.7811 14.8742L14.9682 15.3419L15.8102 16.6516L15.1085 15.2952L14.7811 14.8742L14.8279 14.8274L15.1553 15.2484L16.3247 16.2774C16.2779 16.3242 16.2311 16.371 16.1844 16.4177C16.1376 16.371 16.044 16.371 15.9973 16.4177C15.9505 16.4645 15.9505 16.5581 15.9505 16.6048C15.8569 16.6984 15.7166 16.7452 15.5763 16.7919C15.5295 16.7452 15.4827 16.6984 15.3892 16.7452C15.2956 16.7919 15.2956 16.8387 15.3424 16.9323C15.2021 16.979 15.0618 17.0258 14.9215 17.0258C14.9215 16.979 14.8279 16.9323 14.7811 16.9323C14.7344 16.9323 14.6408 17.0258 14.6876 17.0726C14.6408 17.0726 14.5473 17.0726 14.5005 17.0726C14.4537 17.0726 14.3602 17.0726 14.3134 17.0726Z" fill="#7D7DBC"/>
<path d="M15.1553 15.0613L15.2956 15.2016V15.1548L15.1553 15.0613Z" fill="#6060B2"/>
<path d="M14.5 11.5532C13.6113 11.5532 12.8162 11.9742 12.2549 12.5823L12.5355 12.8161C12.5823 12.7694 12.6291 12.7226 12.6759 12.6758C12.7226 12.629 12.7694 12.5823 12.8162 12.5355C12.8629 12.5823 12.9565 12.5823 13.0033 12.5355C13.05 12.4887 13.05 12.3952 13.05 12.3484C13.0968 12.3016 13.1904 12.3016 13.2371 12.2548L13.9388 13.6113L14.2662 14.0323L14.2194 14.079L13.892 13.6581L12.7226 12.629L13.7049 13.7516L13.8452 13.8452L14.1259 14.079L14.921 14.7339L14.9678 14.6871L15.3888 15.0145L16.7452 15.7161C16.6984 15.7629 16.6984 15.8564 16.6517 15.9032C16.6049 15.8564 16.5113 15.8564 16.4646 15.95C16.4178 15.9968 16.4178 16.0903 16.4646 16.1371L16.7452 16.371C17.1662 15.8564 17.4468 15.2016 17.4468 14.4532C17.4468 12.8629 16.1371 11.5532 14.5 11.5532ZM14.2662 14.0323L14.0791 13.5645L13.2371 12.3016C13.2839 12.2548 13.3307 12.2081 13.4242 12.2081C13.471 12.2548 13.5178 12.3016 13.6113 12.2548C13.6581 12.2081 13.7049 12.1613 13.6581 12.0677C13.7049 12.0677 13.7984 12.021 13.8452 12.021L14.1726 13.5177L14.3597 13.9855C14.3129 14.0323 14.3129 14.0323 14.2662 14.0323ZM14.5468 13.9855L14.5936 13.471L14.5 11.9274L14.4065 13.471L14.4533 13.9855C14.4065 13.9855 14.4065 13.9855 14.3597 13.9855L14.2662 13.471L13.7984 12.021C13.8452 12.021 13.9388 11.9742 13.9855 11.9742C13.9855 12.021 14.0791 12.0677 14.1259 12.0677C14.1726 12.0677 14.2662 11.9742 14.2194 11.9274C14.2662 11.9274 14.3597 11.9274 14.4065 11.9274C14.4533 11.9274 14.5468 11.9274 14.5936 11.9274C14.5936 11.9742 14.6404 12.0677 14.6871 12.0677C14.7339 12.0677 14.8275 12.021 14.8275 11.9742C14.8742 11.9742 14.9678 12.021 15.0146 12.021L14.5468 13.471L14.4533 13.9855C14.5936 13.9855 14.5468 13.9855 14.5468 13.9855ZM14.6404 14.0323L14.8275 13.5645L15.1549 12.0677C15.2017 12.0677 15.2952 12.1145 15.342 12.1145C15.2952 12.1613 15.342 12.2548 15.3888 12.3016C15.4355 12.3484 15.5291 12.3016 15.5758 12.2548C15.6226 12.3016 15.7162 12.3016 15.7629 12.3484L14.921 13.5645L14.7339 14.0323C14.6871 14.0323 14.6871 14.0323 14.6404 14.0323ZM16.7452 15.4355C16.6984 15.4823 16.7452 15.5758 16.792 15.6226C16.7452 15.6694 16.7452 15.7629 16.6984 15.8097L15.4355 14.921L14.9678 14.7339C14.9678 14.6871 14.9678 14.6871 15.0146 14.6403L15.4823 14.8274L16.9791 15.1548C16.9791 15.2016 16.9323 15.2952 16.9323 15.3419C16.8388 15.3419 16.792 15.3887 16.7452 15.4355ZM17.0726 14.3129C17.0726 14.3597 17.0726 14.4532 17.0726 14.5C17.0726 14.5468 17.0726 14.6403 17.0726 14.6871C17.0258 14.6871 16.9323 14.7339 16.9323 14.7806C16.9323 14.8274 16.9791 14.921 17.0259 14.921C17.0259 14.9677 16.9791 15.0613 16.9791 15.1081L15.5291 14.6403L15.0146 14.5468C15.0146 14.5 15.0146 14.5 15.0146 14.4532L15.5291 14.5L17.0726 14.4064L15.5291 14.3129L15.0146 14.3597C15.0146 14.3129 15.0146 14.3129 15.0146 14.2661L15.5291 14.1726L16.9791 13.7048C16.9791 13.7516 17.0259 13.8452 17.0259 13.8919C16.9791 13.8919 16.9323 13.9855 16.9323 14.0323C16.9323 14.2661 16.9791 14.3129 17.0726 14.3129ZM16.7452 13.5645C16.792 13.6113 16.8388 13.6581 16.9323 13.6113C16.9323 13.6581 16.9791 13.7516 16.9791 13.7984L15.4823 14.1258L15.0146 14.3129C15.0146 14.2661 15.0146 14.2661 14.9678 14.2194L15.4355 14.0323L16.6984 13.1903C16.7452 13.2371 16.792 13.2839 16.792 13.3774C16.7452 13.4242 16.6984 13.5177 16.7452 13.5645ZM16.6984 13.2371L15.342 13.9387L14.921 14.2661L14.8742 14.2194L15.2952 13.8919L16.3242 12.7226L15.1549 13.7516L14.8275 14.1726L14.7807 14.1258L15.1081 13.7048L15.8097 12.3484C15.8565 12.3952 15.95 12.3952 15.9968 12.4419C15.95 12.4887 15.95 12.5823 16.0436 12.629C16.0904 12.6758 16.1839 12.6758 16.2307 12.629C16.2775 12.6758 16.3242 12.7226 16.371 12.7694C16.4178 12.8161 16.4646 12.8629 16.5113 12.9097C16.4646 12.9564 16.4646 13.05 16.5113 13.0968C16.5581 13.1435 16.6517 13.1435 16.6984 13.1435C16.6517 13.0968 16.6984 13.1435 16.6984 13.2371Z" fill="#6060B2"/>
</g>
<defs>
<clipPath id="clip0_757_1032">
<rect width="29" height="29" fill="white"/>
</clipPath>
</defs>
</svg>
