<svg width="18" height="14" viewBox="0 0 18 14" fill="none" xmlns="http://www.w3.org/2000/svg">
<path d="M17.9559 1.89783C17.8811 1.52109 17.7124 1.16502 17.4663 0.865662C17.4163 0.802813 17.3641 0.7469 17.3069 0.690182C16.8691 0.251571 16.26 0 15.6359 0H2.36405C1.73296 0 1.13941 0.24523 0.692754 0.690427C0.636223 0.74662 0.583805 0.803093 0.531914 0.867939C0.286875 1.16603 0.118934 1.52162 0.0459141 1.89889C0.0153984 2.04704 0 2.20055 0 2.35585V11.6444C0 11.9675 0.0658828 12.2822 0.196488 12.5813C0.309516 12.847 0.481008 13.0988 0.692613 13.3096C0.74591 13.3624 0.798855 13.4112 0.855387 13.4587C1.27846 13.8079 1.81417 14 2.36405 14H15.6359C16.1893 14 16.7245 13.8071 17.1464 13.4549C17.2028 13.4094 17.2551 13.3617 17.3074 13.3096C17.5119 13.106 17.6745 12.872 17.7913 12.614L17.8067 12.5772C17.9349 12.2838 18 11.9701 18 11.6444V2.35585C18 2.20258 17.9852 2.04805 17.9559 1.89783ZM1.22425 1.50347C1.25768 1.4547 1.30036 1.40464 1.35482 1.34996C1.62513 1.08073 1.98362 0.932574 2.36401 0.932574H15.6358C16.0196 0.932574 16.3782 1.08097 16.6455 1.35048C16.6917 1.39697 16.7357 1.44857 16.7742 1.50014L16.8757 1.63607L9.79172 7.7884C9.57333 7.97919 9.29215 8.08418 8.99989 8.08418C8.71052 8.08418 8.42959 7.97943 8.2086 7.78864L1.13168 1.63782L1.22425 1.50347ZM0.940605 11.7264C0.936773 11.7011 0.935895 11.673 0.935895 11.6444V2.54818L6.43328 7.32705L0.991371 12.0551L0.940605 11.7264ZM16.3441 12.8799C16.1313 13.0022 15.8863 13.0671 15.6359 13.0671H2.36405C2.11349 13.0671 1.86855 13.0022 1.65593 12.8799L1.43346 12.7514L7.05621 7.86855L7.67243 8.40266C8.04206 8.72244 8.51344 8.89873 8.99996 8.89873C9.48829 8.89873 9.96043 8.72244 10.3298 8.40266L10.9458 7.86831L16.5666 12.7517L16.3441 12.8799ZM17.0639 11.6444C17.0639 11.6725 17.0633 11.7003 17.0598 11.7251L17.0111 12.0569L11.5668 7.32961L17.0639 2.5505V11.6444Z" fill="#DAFF99"/>
</svg>
