<svg width="26" height="27" viewBox="0 0 26 27" fill="none" xmlns="http://www.w3.org/2000/svg">
<path d="M14.4537 5.729H6.18708C5.85125 5.729 5.52833 5.74192 5.21833 5.78067C1.74375 6.07775 0 8.1315 0 11.9161V17.0828C0 22.2494 2.06667 23.2698 6.18708 23.2698H6.70375C6.98792 23.2698 7.3625 23.4636 7.53042 23.6832L9.08042 25.7498C9.765 26.6669 10.8758 26.6669 11.5604 25.7498L13.1104 23.6832C13.3042 23.4248 13.6142 23.2698 13.9371 23.2698H14.4537C18.2383 23.2698 20.2921 21.539 20.5892 18.0515C20.6279 17.7415 20.6408 17.4186 20.6408 17.0828V11.9161C20.6408 7.79567 18.5742 5.729 14.4537 5.729ZM5.8125 16.0623C5.08917 16.0623 4.52083 15.4811 4.52083 14.7707C4.52083 14.0603 5.10208 13.479 5.8125 13.479C6.52292 13.479 7.10417 14.0603 7.10417 14.7707C7.10417 15.4811 6.52292 16.0623 5.8125 16.0623ZM10.3204 16.0623C9.59708 16.0623 9.02875 15.4811 9.02875 14.7707C9.02875 14.0603 9.61 13.479 10.3204 13.479C11.0308 13.479 11.6121 14.0603 11.6121 14.7707C11.6121 15.4811 11.0437 16.0623 10.3204 16.0623ZM14.8412 16.0623C14.1179 16.0623 13.5496 15.4811 13.5496 14.7707C13.5496 14.0603 14.1308 13.479 14.8412 13.479C15.5517 13.479 16.1329 14.0603 16.1329 14.7707C16.1329 15.4811 15.5517 16.0623 14.8412 16.0623Z" fill="#DAFF99"/>
<path d="M25.8078 6.74958V11.9162C25.8078 14.4996 25.0069 16.2562 23.4053 17.225C23.0178 17.4575 22.5657 17.1475 22.5657 16.6954L22.5786 11.9162C22.5786 6.74958 19.6207 3.79167 14.454 3.79167L6.58782 3.80458C6.13573 3.80458 5.82573 3.3525 6.05823 2.965C7.02698 1.36333 8.78365 0.5625 11.354 0.5625H19.6207C23.7411 0.5625 25.8078 2.62917 25.8078 6.74958Z" fill="#DAFF99"/>
</svg>
