<svg width="32" height="31" viewBox="0 0 32 31" fill="none" xmlns="http://www.w3.org/2000/svg">
<path d="M17.5959 6.13965H7.77285C7.37378 6.13965 6.99007 6.155 6.62171 6.20104C2.49295 6.55406 0.420898 8.99448 0.420898 13.4916V19.631C0.420898 25.7704 2.87666 26.983 7.77285 26.983H8.38679C8.72445 26.983 9.16956 27.2132 9.36909 27.4741L11.2109 29.9299C12.0244 31.0196 13.3444 31.0196 14.1578 29.9299L15.9997 27.4741C16.2299 27.1671 16.5983 26.983 16.982 26.983H17.5959C22.093 26.983 24.5334 24.9263 24.8865 20.7821C24.9325 20.4138 24.9479 20.0301 24.9479 19.631V13.4916C24.9479 8.59541 22.4921 6.13965 17.5959 6.13965ZM7.32774 18.4185C6.46822 18.4185 5.79288 17.7278 5.79288 16.8836C5.79288 16.0395 6.48357 15.3488 7.32774 15.3488C8.17191 15.3488 8.86259 16.0395 8.86259 16.8836C8.86259 17.7278 8.17191 18.4185 7.32774 18.4185ZM12.6844 18.4185C11.8249 18.4185 11.1495 17.7278 11.1495 16.8836C11.1495 16.0395 11.8402 15.3488 12.6844 15.3488C13.5285 15.3488 14.2192 16.0395 14.2192 16.8836C14.2192 17.7278 13.5439 18.4185 12.6844 18.4185ZM18.0564 18.4185C17.1968 18.4185 16.5215 17.7278 16.5215 16.8836C16.5215 16.0395 17.2122 15.3488 18.0564 15.3488C18.9005 15.3488 19.5912 16.0395 19.5912 16.8836C19.5912 17.7278 18.9005 18.4185 18.0564 18.4185Z" fill="white"/>
<path d="M31.0876 7.35195V13.4914C31.0876 16.5611 30.136 18.6485 28.2328 19.7996C27.7723 20.0759 27.2351 19.7075 27.2351 19.1703L27.2505 13.4914C27.2505 7.35195 23.7357 3.83713 17.5962 3.83713L8.24907 3.85248C7.71187 3.85248 7.34351 3.31528 7.61978 2.85483C8.77092 0.951609 10.8583 0 13.9126 0H23.7357C28.6318 0 31.0876 2.45577 31.0876 7.35195Z" fill="white"/>
</svg>
