<svg width="61" height="61" viewBox="0 0 61 61" fill="none" xmlns="http://www.w3.org/2000/svg">
<path opacity="0.4" d="M48.9201 36.2421L46.4201 32.0921C45.8951 31.1671 45.4201 29.4171 45.4201 28.3921V22.0671C45.4201 13.9171 38.7951 7.26709 30.6201 7.26709C22.4452 7.26709 15.8202 13.9171 15.8202 22.0671V28.3921C15.8202 29.4171 15.3452 31.1671 14.8202 32.0671L12.2952 36.2421C11.2952 37.9171 11.0702 39.7671 11.6952 41.4671C12.2952 43.1421 13.7202 44.4421 15.5702 45.0671C20.4202 46.7171 25.5202 47.5171 30.6201 47.5171C35.7201 47.5171 40.8201 46.7171 45.6701 45.0921C47.4201 44.5171 48.7701 43.1921 49.4201 41.4671C50.0701 39.7421 49.8951 37.8421 48.9201 36.2421Z" fill="#DAFF99" fill-opacity="0.64"/>
<path d="M36.1973 8.31758C34.4723 7.64258 32.5973 7.26758 30.6223 7.26758C28.6723 7.26758 26.7973 7.61758 25.0723 8.31758C26.1473 6.29258 28.2723 5.01758 30.6223 5.01758C32.9973 5.01758 35.0973 6.29258 36.1973 8.31758Z" fill="#62AB6E" fill-opacity="0.71"/>
<path d="M37.6446 50.0426C36.5946 52.9426 33.8196 55.0176 30.5696 55.0176C28.5946 55.0176 26.6446 54.2176 25.2695 52.7926C24.4695 52.0426 23.8695 51.0426 23.5195 50.0176C23.8445 50.0676 24.1695 50.0926 24.5195 50.1426C25.0945 50.2176 25.6946 50.2926 26.2946 50.3426C27.7196 50.4676 29.1696 50.5426 30.6196 50.5426C32.0446 50.5426 33.4696 50.4676 34.8696 50.3426C35.3946 50.2926 35.9196 50.2676 36.4196 50.1926C36.8196 50.1426 37.2196 50.0926 37.6446 50.0426Z" fill="#62AB6E" fill-opacity="0.71"/>
</svg>
