<svg width="26" height="23" viewBox="0 0 26 23" fill="none" xmlns="http://www.w3.org/2000/svg">
<path opacity="0.4" d="M26 7.28003V16.978C26 19.955 23.582 22.36 20.605 22.36H5.395C2.418 22.36 0 19.955 0 16.978V7.28003H26Z" fill="#61B870"/>
<path d="M26 5.382V7.28H0V5.382C0 2.405 2.418 0 5.395 0H20.605C23.582 0 26 2.405 26 5.382Z" fill="#DAFF99" fill-opacity="0.721569"/>
<path d="M7.80156 18.0052H5.20156C4.66856 18.0052 4.22656 17.5632 4.22656 17.0302C4.22656 16.4972 4.66856 16.0552 5.20156 16.0552H7.80156C8.33456 16.0552 8.77656 16.4972 8.77656 17.0302C8.77656 17.5632 8.33456 18.0052 7.80156 18.0052Z" fill="#DAFF99" fill-opacity="0.721569"/>
<path d="M16.2492 18.0052H11.0492C10.5162 18.0052 10.0742 17.5632 10.0742 17.0302C10.0742 16.4972 10.5162 16.0552 11.0492 16.0552H16.2492C16.7822 16.0552 17.2242 16.4972 17.2242 17.0302C17.2242 17.5632 16.7822 18.0052 16.2492 18.0052Z" fill="#DAFF99" fill-opacity="0.721569"/>
</svg>
