<svg width="18" height="18" viewBox="0 0 18 18" fill="none" xmlns="http://www.w3.org/2000/svg">
<path d="M12.213 2.89172e-07C11.3097 -0.000231398 10.4188 0.211177 9.61183 0.617282C8.80486 1.02339 8.10423 1.6129 7.56609 2.33857C7.02795 3.06424 6.66726 3.9059 6.51294 4.79608C6.35861 5.68627 6.41493 6.60023 6.67739 7.46473L0 14.1429V18H3.85675L10.5341 11.3219C11.3299 11.5635 12.1683 11.6307 12.9924 11.5189C13.8165 11.4072 14.6067 11.119 15.3094 10.6741C16.012 10.2293 16.6105 9.63812 17.064 8.941C17.5175 8.24388 17.8154 7.45716 17.9374 6.63448C18.0594 5.81179 18.0026 4.97246 17.7709 4.17371C17.5392 3.37496 17.1381 2.63555 16.5948 2.00588C16.0515 1.37622 15.3788 0.871092 14.6227 0.524938C13.8665 0.178784 13.0446 -0.000262645 12.213 2.89172e-07ZM12.213 10.2857C11.7704 10.2854 11.3303 10.22 10.9068 10.0914L10.1696 9.86786L9.62504 10.4125L7.58025 12.4575L6.6941 11.5714L5.78513 12.4805L6.67134 13.3667L5.65194 14.3863L4.76572 13.5L3.85675 14.4091L4.74297 15.2953L3.32426 16.7143H1.28558V14.6754L7.58642 8.37392L8.13099 7.82916L7.90775 7.092C7.63301 6.1862 7.65086 5.21683 7.95876 4.32176C8.26667 3.4267 8.84895 2.65153 9.62277 2.10651C10.3966 1.5615 11.3226 1.2744 12.2689 1.28606C13.2153 1.29771 14.1339 1.60752 14.8941 2.17143C15.6543 2.73533 16.2173 3.52461 16.5031 4.42698C16.7889 5.32936 16.7828 6.29888 16.4859 7.19764C16.1889 8.09639 15.6161 8.87861 14.849 9.43303C14.0819 9.98744 13.1595 10.2858 12.213 10.2857Z" fill="#DAFF99"/>
<path d="M12.8559 6.42861C13.5659 6.42861 14.1415 5.85297 14.1415 5.14289C14.1415 4.43281 13.5659 3.85718 12.8559 3.85718C12.1459 3.85718 11.5703 4.43281 11.5703 5.14289C11.5703 5.85297 12.1459 6.42861 12.8559 6.42861Z" fill="#DAFF99"/>
</svg>
