<svg width="60" height="60" viewBox="0 0 60 60" fill="none" xmlns="http://www.w3.org/2000/svg">
<path d="M31.7738 29.8988C31.7738 30.4788 31.5894 30.9812 31.2206 31.4062C30.8519 31.8313 30.3888 32.0431 29.8313 32.0419C29.2513 32.0419 28.7487 31.8575 28.3237 31.4888C27.8987 31.12 27.6869 30.6569 27.6881 30.0994C27.6881 29.5194 27.8781 29.0169 28.2581 28.5919C28.6381 28.1669 29.1069 27.955 29.6644 27.9562C30.2219 27.9575 30.7131 28.1419 31.1381 28.5094C31.5631 28.8769 31.775 29.34 31.7738 29.8988ZM32.2762 31.8413L43.995 12.3881C43.7937 12.5669 43.0406 13.2644 41.7356 14.4806C40.4306 15.6969 39.03 16.9969 37.5337 18.3806C36.0375 19.7644 34.5138 21.1819 32.9625 22.6331C31.4113 24.0844 30.1056 25.3175 29.0456 26.3325C27.9856 27.3475 27.4219 27.9225 27.3544 28.0575L15.6694 47.4769C15.8256 47.3206 16.5731 46.6287 17.9119 45.4012C19.2506 44.1737 20.6569 42.8737 22.1306 41.5012C23.6044 40.1287 25.1225 38.7113 26.685 37.2488C28.2475 35.7863 29.5531 34.5475 30.6019 33.5325C31.6506 32.5175 32.2087 31.9538 32.2762 31.8413ZM53.94 30C53.94 34.4862 52.7794 38.6269 50.4581 42.4219C50.3906 42.3769 50.2006 42.2544 49.8881 42.0544C49.5756 41.8544 49.28 41.67 49.0012 41.5012C48.7225 41.3325 48.5381 41.2487 48.4481 41.25C48.1581 41.25 48.0131 41.395 48.0131 41.685C48.0131 41.9088 48.6719 42.4 49.9894 43.1587C48.3381 45.6587 46.2788 47.785 43.8113 49.5375C41.3438 51.29 38.6481 52.5231 35.7244 53.2369L35.1881 50.9944C35.1656 50.7706 34.9981 50.6587 34.6856 50.6587C34.5744 50.6587 34.485 50.72 34.4175 50.8425C34.35 50.965 34.3275 51.0712 34.35 51.1612L34.8862 53.4375C33.2787 53.7725 31.6494 53.94 29.9981 53.94C25.5556 53.94 21.4037 52.7681 17.5425 50.4244C17.565 50.3794 17.71 50.1506 17.9775 49.7381C18.245 49.3256 18.485 48.9519 18.6975 48.6169C18.91 48.2819 19.0162 48.07 19.0162 47.9812C19.0162 47.6912 18.8712 47.5463 18.5812 47.5463C18.4475 47.5463 18.2575 47.7081 18.0112 48.0319C17.765 48.3556 17.5138 48.7406 17.2575 49.1869C17.0013 49.6331 16.8506 49.89 16.8056 49.9575C14.2831 48.2838 12.14 46.1913 10.3763 43.68C8.6125 41.1688 7.385 38.44 6.69375 35.4938L9.00375 34.9912C9.2275 34.9237 9.33937 34.7563 9.33937 34.4888C9.33937 34.3775 9.27812 34.2881 9.15562 34.2206C9.03312 34.1531 8.91563 34.1306 8.80313 34.1531L6.52687 34.6556C6.21437 33.0481 6.05812 31.4969 6.05812 30.0019C6.05812 25.4031 7.27438 21.1731 9.70688 17.3119C9.75188 17.3344 9.95812 17.4681 10.3256 17.7131C10.6931 17.9581 11.0281 18.17 11.3306 18.3488C11.6331 18.5275 11.8288 18.6169 11.9175 18.6169C12.2075 18.6169 12.3525 18.4831 12.3525 18.2156C12.3525 18.0819 12.2131 17.9087 11.9344 17.6962C11.6556 17.4837 11.2931 17.2438 10.8469 16.9763L10.1775 16.575C11.8962 14.075 14.0056 11.9656 16.5056 10.2469C19.0056 8.52813 21.7288 7.33375 24.675 6.66375L25.1775 8.90625C25.2225 9.13 25.39 9.24188 25.68 9.24188C25.7913 9.24188 25.8806 9.18063 25.9481 9.05813C26.0156 8.93563 26.0381 8.81813 26.0156 8.70563L25.5131 6.495C27.0981 6.205 28.5938 6.06 30 6.06C34.5538 6.06 38.7837 7.27625 42.69 9.70875C41.82 10.9587 41.385 11.6844 41.385 11.8856C41.385 12.1756 41.5188 12.3206 41.7863 12.3206C42.0312 12.3206 42.5669 11.6062 43.3931 10.1775C45.8706 11.8512 47.9631 13.9269 49.6706 16.4044C51.3781 18.8819 52.5781 21.5719 53.2706 24.4744L51.3956 24.8756C51.1719 24.9206 51.06 25.0994 51.06 25.4119C51.06 25.5231 51.1212 25.6125 51.2437 25.68C51.3662 25.7475 51.4725 25.77 51.5625 25.7475L53.4712 25.3125C53.7837 26.92 53.94 28.4825 53.94 30ZM56.7862 30C56.7862 26.3613 56.0775 22.89 54.66 19.5862C53.2425 16.2825 51.3394 13.4363 48.9506 11.0475C46.5619 8.65875 43.7156 6.75562 40.4119 5.33812C37.1081 3.92062 33.6369 3.21187 29.9981 3.21187C26.3594 3.21187 22.8881 3.92062 19.5844 5.33812C16.2806 6.75562 13.4344 8.65875 11.0456 11.0475C8.65688 13.4363 6.75375 16.2825 5.33625 19.5862C3.91875 22.89 3.21 26.3613 3.21 30C3.21 33.6388 3.91875 37.11 5.33625 40.4137C6.75375 43.7175 8.65688 46.5637 11.0456 48.9525C13.4344 51.3412 16.2806 53.2444 19.5844 54.6619C22.8881 56.0794 26.3594 56.7881 29.9981 56.7881C33.6369 56.7881 37.1081 56.0794 40.4119 54.6619C43.7156 53.2444 46.5619 51.3412 48.9506 48.9525C51.3394 46.5637 53.2425 43.7175 54.66 40.4137C56.0775 37.11 56.7862 33.6388 56.7862 30ZM60 30C60 34.0625 59.2075 37.9462 57.6225 41.6512C56.0375 45.3562 53.9056 48.5481 51.2269 51.2269C48.5481 53.9056 45.3562 56.0375 41.6512 57.6225C37.9462 59.2075 34.0625 60 30 60C25.9375 60 22.0538 59.2075 18.3488 57.6225C14.6438 56.0375 11.4519 53.9056 8.77313 51.2269C6.09438 48.5481 3.9625 45.3562 2.3775 41.6512C0.7925 37.9462 0 34.0625 0 30C0 25.9375 0.7925 22.0538 2.3775 18.3488C3.9625 14.6438 6.09438 11.4519 8.77313 8.77313C11.4519 6.09438 14.6438 3.9625 18.3488 2.3775C22.0538 0.7925 25.9375 0 30 0C34.0625 0 37.9462 0.7925 41.6512 2.3775C45.3562 3.9625 48.5481 6.09438 51.2269 8.77313C53.9056 11.4519 56.0375 14.6438 57.6225 18.3488C59.2075 22.0538 60 25.9375 60 30Z" fill="#DAFF99"/>
</svg>
