<svg width="47" height="46" viewBox="0 0 47 46" fill="none" xmlns="http://www.w3.org/2000/svg">
<path fill-rule="evenodd" clip-rule="evenodd" d="M4.1665 23C4.1665 12.4146 12.7477 3.83337 23.3332 3.83337C33.9185 3.83337 42.4998 12.4146 42.4998 23C42.4998 33.5854 33.9185 42.1667 23.3332 42.1667C12.7477 42.1667 4.1665 33.5854 4.1665 23ZM17.5832 22.0417C17.5832 19.3954 19.7285 17.25 22.3748 17.25C25.0212 17.25 27.1665 19.3954 27.1665 22.0417C27.1665 24.688 25.0212 26.8334 22.3748 26.8334C19.7285 26.8334 17.5832 24.688 17.5832 22.0417ZM22.3748 13.4167C17.6114 13.4167 13.7498 17.2783 13.7498 22.0417C13.7498 26.8052 17.6114 30.6667 22.3748 30.6667C24.0625 30.6667 25.637 30.182 26.9666 29.3442L29.6446 32.022C30.393 32.7704 31.6067 32.7704 32.3551 32.022C33.1036 31.2735 33.1036 30.0599 32.3551 29.3114L29.6773 26.6335C30.5151 25.3039 30.9998 23.7293 30.9998 22.0417C30.9998 17.2783 27.1383 13.4167 22.3748 13.4167Z" fill="#DAFF99"/>
</svg>
