<svg width="14" height="14" viewBox="0 0 14 14" fill="none" xmlns="http://www.w3.org/2000/svg">
<path d="M5.00721 2.38587C5.89385 0.795292 6.33716 0 6.99999 0C7.66282 0 8.10613 0.795285 8.99275 2.38586L9.22214 2.79736C9.47414 3.24936 9.60007 3.47536 9.79656 3.62447C9.99298 3.77359 10.2376 3.82894 10.7269 3.93964L11.1723 4.04043C12.8941 4.43 13.755 4.62478 13.9598 5.28342C14.1646 5.94203 13.5777 6.62838 12.4039 8.00094L12.1003 8.35605C11.7667 8.74609 11.5999 8.94111 11.5249 9.1824C11.4499 9.42369 11.4751 9.68388 11.5255 10.2043L11.5714 10.6781C11.7489 12.5094 11.8376 13.4251 11.3014 13.8322C10.7651 14.2392 9.9591 13.8681 8.347 13.1259L7.92994 12.9338C7.47186 12.7229 7.24282 12.6174 6.99999 12.6174C6.75716 12.6174 6.52812 12.7229 6.07004 12.9338L5.65298 13.1259C4.04087 13.8681 3.23482 14.2392 2.6986 13.8322C2.16238 13.4251 2.25111 12.5094 2.42858 10.6781L2.47448 10.2043C2.52492 9.68388 2.55013 9.42369 2.4751 9.1824C2.40007 8.94111 2.2333 8.74609 1.89974 8.35605L1.59607 8.00094C0.422276 6.62838 -0.164624 5.94203 0.0401953 5.28342C0.245015 4.62478 1.1059 4.43 2.82768 4.04043L3.27312 3.93964C3.76239 3.82894 4.00703 3.77359 4.20345 3.62447C4.39988 3.47536 4.52587 3.24936 4.77782 2.79736L5.00721 2.38587Z" fill="white"/>
</svg>
