<svg width="20" height="20" viewBox="0 0 20 20" fill="none" xmlns="http://www.w3.org/2000/svg">
<g clip-path="url(#clip0_734_809)">
<path d="M19.1673 9.99992C19.1673 15.0625 15.0632 19.1666 10.0007 19.1666C4.93804 19.1666 0.833984 15.0625 0.833984 9.99992C0.833984 4.93731 4.93804 0.833252 10.0007 0.833252C15.0632 0.833252 19.1673 4.93731 19.1673 9.99992ZM2.50634 9.99992C2.50634 14.1389 5.86166 17.4943 10.0007 17.4943C14.1397 17.4943 17.495 14.1389 17.495 9.99992C17.495 5.86093 14.1397 2.50561 10.0007 2.50561C5.86166 2.50561 2.50634 5.86093 2.50634 9.99992Z" fill="#DAFF99"/>
<path d="M9.99935 4.16675C9.5391 4.16675 9.16602 4.53984 9.16602 5.00008V10.389C9.16602 10.389 9.16602 10.6062 9.2716 10.7697C9.34227 10.9082 9.45243 11.0287 9.59718 11.1122L13.447 13.335C13.8456 13.5651 14.3553 13.4285 14.5853 13.0299C14.8154 12.6313 14.6789 12.1217 14.2803 11.8916L10.8327 9.90108V5.00008C10.8327 4.53985 10.4596 4.16675 9.99935 4.16675Z" fill="#DAFF99"/>
</g>
<defs>
<clipPath id="clip0_734_809">
<rect width="20" height="20" fill="white"/>
</clipPath>
</defs>
</svg>
