<svg width="33" height="33" viewBox="0 0 33 33" fill="none" xmlns="http://www.w3.org/2000/svg">
<path opacity="0.4" d="M16.5116 32.3332C25.256 32.3332 32.3449 25.2444 32.3449 16.4998C32.3449 7.75533 25.256 0.666504 16.5116 0.666504C7.76704 0.666504 0.678223 7.75533 0.678223 16.4998C0.678223 25.2444 7.76704 32.3332 16.5116 32.3332Z" fill="#DAFF99"/>
<path d="M16.5117 8.47217C13.2342 8.47217 10.5742 11.1322 10.5742 14.4096C10.5742 17.6238 13.0917 20.2363 16.4326 20.3313C16.4801 20.3313 16.5434 20.3313 16.5751 20.3313C16.6067 20.3313 16.6542 20.3313 16.6859 20.3313C16.7017 20.3313 16.7176 20.3313 16.7176 20.3313C19.9159 20.2204 22.4334 17.6238 22.4492 14.4096C22.4492 11.1322 19.7892 8.47217 16.5117 8.47217Z" fill="#DAFF99"/>
<path d="M27.2478 28.1376C24.4295 30.7343 20.6612 32.3334 16.5128 32.3334C12.3645 32.3334 8.59616 30.7343 5.77783 28.1376C6.15783 26.6968 7.187 25.3826 8.69117 24.3693C13.0137 21.4876 20.0437 21.4876 24.3345 24.3693C25.8545 25.3826 26.8678 26.6968 27.2478 28.1376Z" fill="#DAFF99"/>
</svg>